<?xml version="1.0" encoding="UTF-8"?>
<svg id="Camada_1" data-name="Camada 1" xmlns="http://www.w3.org/2000/svg" viewBox="0 0 1609.99 536.91">
  <g>
    <path d="M976.11,225.27c0,.83-.04,1.46-.13,1.87-.42.17-.75.4-1,.69-.25.29-.67.4-1.25.31-.17,1.25-.58,2.29-1.25,3.12-.67.83-1.35,1.6-2.06,2.31-.71.71-1.39,1.46-2.06,2.25-.67.79-1.08,1.81-1.25,3.06-1.25.67-2.48,1.56-3.68,2.68-1.21,1.12-2.27,1.89-3.18,2.31-.67.33-1.37.6-2.12.81-.75.21-1.5.48-2.25.81-2.42,1.08-4.89,2.2-7.43,3.37-2.54,1.16-5.18,1.75-7.93,1.75h-.87c-.33.33-.75.56-1.25.69-.5.12-1,.23-1.5.31-.5.08-1,.21-1.5.37-.5.17-.87.42-1.12.75-.92-.33-1.92-.5-3-.5h-.87c-1.42.33-2.75.58-4,.75-1.25.17-2.58.25-4,.25-2.5,0-4.99-.17-7.49-.5-2.5-.33-4.99-.62-7.49-.87-1.58-1.25-2.87-2.81-3.87-4.68-1-1.87-1.5-3.85-1.5-5.93,0-1.58.33-3.06,1-4.43.67-1.37,1.54-2.6,2.62-3.68h.37c.75,0,1.52-.17,2.31-.5.79-.33,1.56-.5,2.31-.5.83,0,1.52.33,2.06,1,.54.67.96,1.46,1.25,2.37.29.91.48,1.85.56,2.81.08.96.13,1.73.13,2.31.92.42,1.89.67,2.93.75,1.04.08,2.1.12,3.18.12s2.29-.06,3.62-.19c1.33-.12,2.68-.33,4.06-.62,1.37-.29,2.7-.65,4-1.06,1.29-.42,2.39-.96,3.31-1.62,4.58-.42,8.62-1.46,12.11-3.12,3.5-1.67,7.2-3.62,11.11-5.87.17-.91.52-1.64,1.06-2.19.54-.54.81-1.35.81-2.43,0-.17-.02-.35-.06-.56-.04-.21-.06-.39-.06-.56-1.67-2.08-3.39-3.91-5.18-5.49-1.79-1.58-4.1-2.62-6.93-3.12-.33-.75-.87-1.31-1.62-1.69-.75-.37-1.54-.73-2.37-1.06-.83-.33-1.62-.69-2.37-1.06s-1.29-1.02-1.62-1.94c-2.25-.42-4.56-.94-6.93-1.56-2.37-.62-4.39-1.77-6.06-3.43-1.33-.08-2.6-.35-3.81-.81-1.21-.46-2.39-.91-3.56-1.37-1.17-.46-2.37-.87-3.62-1.25-1.25-.37-2.54-.56-3.87-.56-.33-.58-.79-1.04-1.37-1.37-.58-.33-1.23-.62-1.94-.87-.71-.25-1.37-.52-2-.81-.62-.29-1.1-.73-1.44-1.31-.33.08-.58.25-.75.5-.17.25-.46.37-.87.37h-.5c-.17-.5-.5-.85-1-1.06-.5-.21-.79-.64-.87-1.31-1.5-.08-2.85-.37-4.06-.87-1.21-.5-2.33-1.06-3.37-1.69-1.04-.62-2.1-1.23-3.18-1.81-1.08-.58-2.29-1.04-3.62-1.37-.83-.67-1.6-1.39-2.31-2.19-.71-.79-1.6-1.19-2.68-1.19-.25,0-.71.08-1.37.25-.17-1.5-.79-2.56-1.87-3.18-1.08-.62-2.25-1.19-3.5-1.69-.83-2.16-1.96-4.08-3.37-5.74-1.41-1.66-2.95-3.2-4.62-4.62.17-.5.25-.87.25-1.12,0-.83-.21-1.56-.62-2.19-.42-.62-.87-1.14-1.37-1.56-1.16-3.75-1.75-7.41-1.75-10.99,0-4.99,1.1-9.63,3.31-13.92,2.21-4.29,5.68-7.51,10.43-9.68.08-.67.31-1.25.69-1.75s.6-1.08.69-1.75c.75,0,1.33-.17,1.75-.5.42-.33.81-.69,1.19-1.06s.77-.73,1.19-1.06c.42-.33.96-.54,1.62-.62,3.16-2.75,6.53-4.97,10.11-6.68,3.58-1.71,7.24-3.47,10.99-5.31.75-.33,1.37-.96,1.87-1.87h.75c.83,0,1.48-.19,1.94-.56.46-.37,1.14-.48,2.06-.31.33-.5.77-.83,1.31-1,.54-.17,1.08-.31,1.62-.44.54-.12,1.06-.31,1.56-.56s.83-.62,1-1.12h.87c1.41,0,2.79-.23,4.12-.69,1.33-.46,2.66-.98,4-1.56h.87c1.66,0,3.23-.31,4.68-.94,1.46-.62,3.02-1.06,4.68-1.31.66-.17,1.33-.21,2-.12.67.08,1.33.12,2,.12.42,0,.92-.04,1.5-.12.58-.08,1-.33,1.25-.75h.25c.5,0,.79.17.87.5.08.33.33.5.75.5.58,0,1.16-.08,1.75-.25.58-.17,1.16-.25,1.75-.25,2.5,0,4.97.25,7.43.75,2.45.5,4.89.96,7.3,1.37.17,1,.6,1.71,1.31,2.12.71.42,1.48.79,2.31,1.12v.5c0,.67.17,1.21.5,1.62-.33,1.17-.92,2.04-1.75,2.62-.83.58-1.75,1.08-2.75,1.5.42.33.66.79.75,1.37.08.58.12,1.12.12,1.62v1.5l-.62-.12c-1.33,0-2,.62-2,1.87-1.08-.67-2.27-1.08-3.56-1.25-1.29-.17-2.56-.25-3.81-.25-1.67,0-3.41.06-5.24.19-1.83.12-3.62.11-5.37-.06-.67.83-1.5,1.44-2.5,1.81-1,.37-2,.56-3,.56-1.08,0-2.12-.23-3.12-.69-1-.46-1.71-1.14-2.12-2.06-.42-.17-.79-.25-1.12-.25h-1.12c-1.33,0-2.64.15-3.93.44-1.29.29-2.6.62-3.93,1-1.33.37-2.64.75-3.93,1.12-1.29.37-2.6.6-3.93.69-.5.67-1.17,1.12-2,1.37-.83.25-1.5.71-2,1.37-1.75.33-3.33.9-4.75,1.69-1.42.79-2.79,1.64-4.12,2.56l-3.87,2.62c-1.25.83-2.67,1.54-4.25,2.12-1.17,1.25-2.25,2.25-3.25,3-1,.75-2.29,1.42-3.87,2-1,.33-1.56.83-1.69,1.5-.13.67-.48,1.33-1.06,2-.5.58-1.1,1.02-1.81,1.31-.71.29-1.31.77-1.81,1.44-.42.58-.73,1.27-.94,2.06-.21.79-.44,1.56-.69,2.31-.25.75-.54,1.48-.87,2.19-.33.71-.83,1.31-1.5,1.81,0,.33-.02.67-.06,1-.04.33-.06.62-.06.87,0,1.17.14,2.35.44,3.56.29,1.21.48,2.39.56,3.56,1.66,2.91,3.62,5.56,5.87,7.93s4.66,4.56,7.24,6.56c2.58,2,5.26,3.87,8.05,5.62,2.79,1.75,5.56,3.46,8.3,5.12,1-.08,1.91.02,2.75.31.83.29,1.71.48,2.62.56,1,.75,2.16,1.33,3.5,1.75l4,1.25c1.33.42,2.62.9,3.87,1.44,1.25.54,2.29,1.27,3.12,2.19.42.08.79.19,1.12.31.33.12.71.19,1.12.19.5,0,.79-.17.87-.5,3.75,1.42,7.41,2.98,10.99,4.68,3.58,1.71,7.37,3.02,11.36,3.93,1.58,1.33,3.33,2.5,5.24,3.5,1.91,1,3.83,2.02,5.74,3.06,1.91,1.04,3.75,2.17,5.49,3.37,1.75,1.21,3.29,2.64,4.62,4.31.17,1.58.52,3.1,1.06,4.56.54,1.46.81,3.02.81,4.68Z"/>
    <path d="M1060.77,171.58c-.33.83-.67,1.62-1,2.37-.33.75-.58,1.58-.75,2.5-.58.42-1.23.73-1.94.94-.71.21-1.44.42-2.18.62-.75.21-1.44.46-2.06.75-.62.29-1.1.73-1.44,1.31-.25,1.25-.37,2.42-.37,3.5,0,1.42.25,2.62.75,3.62-.25.75-.42,1.54-.5,2.37-.08.83-.12,1.62-.12,2.37,0,2.75.33,5.47,1,8.18.67,2.71,1.04,5.43,1.12,8.18,0,.42-.04.87-.13,1.37-.08.5-.12.96-.12,1.37,0,1.75.66,2.91,2,3.5-.25.42-.37.79-.37,1.12,0,.67.08,1.25.25,1.75.17.5.21,1.04.13,1.62.42.83.83,1.56,1.25,2.18.42.62.71,1.4.87,2.31-.58,1.17-1.29,2.23-2.12,3.18-.83.96-1.42,2.14-1.75,3.56-.33-.08-.71-.12-1.12-.12-.58,0-1.04.12-1.37.37-.33.25-.6.56-.81.94-.21.37-.44.75-.69,1.12-.25.37-.58.64-1,.81h-.37c-.42.08-.77.06-1.06-.06-.29-.12-.56-.19-.81-.19-.17,0-.5.08-1,.25-.67-.83-1.12-1.81-1.37-2.93-.25-1.12-.37-2.23-.37-3.31,0-1.16.17-2.2.5-3.12-.92-.75-1.48-1.87-1.69-3.37-.21-1.5-.44-2.75-.69-3.75-.67-3.08-1.44-6.08-2.31-8.99-.87-2.91-1.39-5.91-1.56-8.99-.08-1.16-.13-2.29-.13-3.37v-6.49c0-1.08.04-2.12.13-3.12,0-.75.06-1.48.19-2.19.13-.71.19-1.44.19-2.19,0-1-.33-1.95-1-2.87-5.91.25-11.51,1.31-16.79,3.18-5.29,1.87-10.55,4.1-15.8,6.68-.33,1.92-.54,3.79-.62,5.62-.08,1.83-.13,3.7-.13,5.62v5.49c0,2.08.08,3.83.25,5.24.42,2.42,1.64,4.27,3.68,5.56,2.04,1.29,4.1,2.27,6.18,2.93-.08,1.25-.33,2.31-.75,3.18-.42.87-.94,1.67-1.56,2.37-.62.71-1.31,1.39-2.06,2.06-.75.67-1.5,1.42-2.25,2.25-.67-.42-1.33-.71-2-.87-.67-.17-1.37-.27-2.12-.31-.75-.04-1.5-.1-2.25-.19-.75-.08-1.5-.25-2.25-.5l-2.75-3.75c-.92-1.25-1.92-2.5-3-3.75v-1.12c0-2.25-.42-4.41-1.25-6.49-.83-2.08-1.46-4.2-1.87-6.37.25-.75.42-1.5.5-2.25.08-.75.12-1.54.12-2.37,0-1.66-.06-3.29-.19-4.87-.13-1.58-.11-3.16.06-4.74h-.62c-.75,0-1.54.19-2.37.56-.83.37-1.65.79-2.44,1.25-.79.46-1.54.87-2.25,1.25-.71.37-1.31.56-1.81.56-.25,0-.5-.04-.75-.12-.25-.08-.54-.12-.87-.12-.42,0-.92.17-1.5.5-.58.33-1.23.69-1.94,1.06-.71.37-1.44.73-2.18,1.06-.75.33-1.5.5-2.25.5-1.17,0-2.33-.5-3.5-1.5-.17-.67-.23-1.29-.19-1.87.04-.58.06-1.21.06-1.87s-.12-1.37-.37-2.12c.58-1.08,1.35-1.94,2.31-2.56.96-.62,1.96-1.21,3-1.75,1.04-.54,2.1-1.08,3.18-1.62,1.08-.54,2-1.27,2.75-2.19h.75c1.17,0,2.23-.25,3.18-.75.96-.5,2.06-.71,3.31-.62.42-.17.71-.79.87-1.87l.5.12c1.83,0,3.45-.62,4.87-1.87.92-5.16,1.66-10.36,2.25-15.61.58-5.24.87-10.49.87-15.73,0-.5-.17-1-.5-1.5-.17-.67-.25-1.29-.25-1.87v-1.87c0-.92.04-1.87.12-2.87.08-1,.29-2,.62-3,.83-.5,1.71-.75,2.62-.75,1.08,0,2.14.15,3.18.44,1.04.29,2.06.52,3.06.69.75.75,1.31,1.58,1.69,2.5.37.92.6,1.85.69,2.81.08.96.1,1.92.06,2.87-.04.96-.06,1.89-.06,2.81,0,1.83.21,3.62.62,5.37.42,1.75.62,3.46.62,5.12,0,.42-.15.73-.44.94-.29.21-.44.77-.44,1.69s.08,1.87.25,2.87c.17,1,.25,2,.25,3,0,1.17-.17,2.37-.5,3.62-.33,1.25-.62,2.46-.87,3.62,4.99-.42,10.11-1.04,15.36-1.87,5.24-.83,10.24-2.16,14.98-4,.08-.17.12-.42.12-.75,0-.5-.04-1-.12-1.5-.08-.5-.13-1.04-.13-1.62,0-1,.33-1.79,1-2.37-.42-2.33-.71-4.66-.87-6.99-.17-2.33-.25-4.66-.25-6.99v-7.12c0-2.33-.04-4.66-.12-6.99.66-.42,1.37-.62,2.12-.62.92,0,1.77.23,2.56.69.79.46,1.73.69,2.81.69.75,0,1.37-.12,1.87-.37.92.83,1.54,1.92,1.87,3.25.33,1.33.62,2.71.87,4.12.25,1.42.52,2.81.81,4.18.29,1.37.89,2.48,1.81,3.31l.12.37c0,.33-.17.58-.5.75-.33.17-.5.5-.5,1v.5c.33,1.33.58,2.71.75,4.12.17,1.42.31,2.85.44,4.31.13,1.46.31,2.87.56,4.25.25,1.37.71,2.64,1.37,3.81.42-.08.96-.12,1.62-.12,1.66,0,2.97.56,3.93,1.69.96,1.12,1.81,2.27,2.56,3.43Z"/>
    <path d="M1161.66,220.78c-.25,1.17-.77,2.1-1.56,2.81-.79.71-1.73,1.27-2.81,1.69-1.08.42-2.18.69-3.31.81-1.12.12-2.14.19-3.06.19-.42,0-.81-.02-1.19-.06-.37-.04-.77-.06-1.19-.06s-.62.21-.62.62-.21.71-.62.87c-.42-.17-.83-.29-1.25-.37-.42-.08-.83-.12-1.25-.12-.58,0-1.14.04-1.69.12-.54.08-1.06.12-1.56.12-.67,0-1.15-.08-1.44-.25-.29-.17-.54-.35-.75-.56-.21-.21-.42-.44-.62-.69-.21-.25-.52-.46-.94-.62-.58-.25-1.06-.29-1.44-.12-.37.17-.94-.08-1.69-.75-1-.83-1.85-1.85-2.56-3.06-.71-1.21-1.39-2.48-2.06-3.81-.67-1.33-1.37-2.66-2.12-4-.75-1.33-1.62-2.5-2.62-3.5h-1c-1.5,0-2.54.62-3.12,1.87-.42-.25-.83-.56-1.25-.94-.42-.37-.87-.69-1.37-.94-1.92.58-3.91,1.08-5.99,1.5-2.08.42-4.16.62-6.24.62h-1.75c-.5,0-1.04-.08-1.62-.25-.83.33-1.58.73-2.25,1.19-.67.46-1.42.69-2.25.69-.5,0-1.08-.17-1.75-.5-.5,0-.73.21-.69.62.04.42-.23.62-.81.62h-1.12c-1.17,0-2.31.04-3.43.12-1.12.08-2.27.12-3.43.12-1.58,0-3.21-.21-4.87-.62-.42.25-.87.37-1.37.37-.33.17-.58.44-.75.81-.17.37-.33.71-.5,1-.17.29-.4.54-.69.75-.29.21-.69.27-1.19.19-.17,1-.58,1.79-1.25,2.37-.67.58-1,1.46-1,2.62-.92.5-1.67,1.12-2.25,1.87-.58.75-1.17,1.54-1.75,2.37-.58.83-1.19,1.62-1.81,2.37-.62.75-1.39,1.33-2.31,1.75-.42.5-.54,1.29-.37,2.37-.92.75-2.04,1.41-3.37,2-1.33.58-2.58.87-3.75.87-2.41,0-4.08-1.29-4.99-3.87,0-.83.06-1.73.19-2.68.13-.96.31-1.87.56-2.75s.62-1.66,1.12-2.37c.5-.71,1.21-1.23,2.12-1.56,0-.75-.25-1.27-.75-1.56-.5-.29-.71-.81-.62-1.56,2.25-1.08,4.2-2.5,5.87-4.25,1.67-1.75,3.18-3.6,4.56-5.56,1.37-1.95,2.77-3.93,4.18-5.93,1.41-2,3-3.79,4.74-5.37v-2.62c2.5-2.66,4.12-5.66,4.87-8.99.92-.17,1.52-.58,1.81-1.25.29-.67.44-1.46.44-2.37.42,0,.69-.19.81-.56s.48-.48,1.06-.31c.75-2,1.58-3.83,2.5-5.49.92-1.66,1.83-3.35,2.75-5.06.92-1.71,1.73-3.47,2.44-5.31.71-1.83,1.23-3.87,1.56-6.12,1.16-.08,1.81-.64,1.94-1.69.13-1.04.27-1.98.44-2.81,1.25-1.16,2.18-2.54,2.81-4.12.62-1.58,1.19-3.22,1.69-4.93.5-1.71,1.06-3.41,1.69-5.12.62-1.71,1.52-3.22,2.68-4.56v-.37c0-.42-.17-.69-.5-.81-.33-.12-.5-.39-.5-.81.08-.08.13-.17.13-.25,1-.42,1.75-1.1,2.25-2.06.5-.96,1.25-1.64,2.25-2.06,1.75,1.42,3.29,2.27,4.62,2.56,1.33.29,3.08.52,5.24.69,1.08,1.17,1.69,2.56,1.81,4.18.13,1.62.39,3.23.81,4.81.66,2.66,1.39,5.27,2.18,7.8.79,2.54,1.39,5.14,1.81,7.8.25,1.58.71,3.08,1.37,4.49.66,1.42,1.12,2.87,1.37,4.37.17,1.17.17,2.48,0,3.93-.17,1.46,0,2.73.5,3.81l.87,2c.42.92.77,1.87,1.06,2.87.29,1,.56,2,.81,3,.66,2.5,1.27,5.18,1.81,8.05.54,2.87,1.39,5.47,2.56,7.8.42.83,1.06,1.42,1.94,1.75.87.33,1.85.56,2.93.69,1.08.12,2.14.17,3.18.12,1.04-.04,1.94-.06,2.68-.06h1.25c.5,0,1,.08,1.5.25.33.67.5,1.25.5,1.75,0,1-.33,1.79-1,2.37-.67.58-1,1.25-1,2,0,.42.17.87.5,1.37-.33-.08-.83-.12-1.5-.12-1.92,0-3.79.33-5.62,1,.66,1.42,1.56,2.6,2.68,3.56,1.12.96,2.31,1.85,3.56,2.68.83-.67,1.71-1,2.62-1,1,0,1.93.23,2.81.69.87.46,1.81.69,2.81.69.75,0,1.29-.12,1.62-.37.67.75,1.21,1.52,1.62,2.31.42.79.96,1.52,1.62,2.19ZM1122.57,200.8c-.17-1.41-.44-2.43-.81-3.06s-.69-1.39-.94-2.31c-.33-1.16-.56-2.41-.69-3.75-.12-1.33-.31-2.62-.56-3.87-.58-2.83-1.23-5.66-1.94-8.49-.71-2.83-1.6-5.58-2.68-8.24.33-.5.5-.96.5-1.37v-.37c-.75-.83-1.29-1.85-1.62-3.06-.33-1.21-.65-2.41-.94-3.62-.29-1.21-.67-2.33-1.12-3.37-.46-1.04-1.19-1.89-2.18-2.56-.25.5-.37,1.08-.37,1.75,0,.58.06,1.12.19,1.62.12.5.19,1.04.19,1.62-.83.42-1.44,1.06-1.81,1.94s-.98,1.56-1.81,2.06c-.67,2.67-1.62,5.18-2.87,7.55-1.25,2.37-2.56,4.73-3.93,7.05-1.37,2.33-2.68,4.68-3.93,7.05-1.25,2.37-2.25,4.85-3,7.43-1.08.75-1.81,1.71-2.18,2.87-.37,1.17-.56,2.33-.56,3.5.75.42,1.6.65,2.56.69.96.04,1.89.06,2.81.06s1.79.08,2.62.25c.83.17,1.58.58,2.25,1.25,1.08-.33,2.27-.56,3.56-.69,1.29-.12,2.35-.48,3.18-1.06,1.66.58,3.45.87,5.37.87,1,0,1.98-.08,2.93-.25.96-.17,1.89-.37,2.81-.62.75.17,1.33.44,1.75.81.42.37,1.04.52,1.87.44.42-.33.66-.69.75-1.06.08-.37.29-.73.62-1.06Z"/>
    <path d="M1228.71,197.8c0,.92-.33,1.6-1,2.06-.67.46-1,1.06-1,1.81,0,.33.17.75.5,1.25-1.17,0-1.96.37-2.37,1.12-.42.75-.83,1.58-1.25,2.5h-1.62c-.42,0-.75.08-1,.25-.25.17-.48.4-.69.69-.21.29-.48.73-.81,1.31-1.58.33-3.1.85-4.56,1.56-1.46.71-2.87,1.46-4.25,2.25-1.37.79-2.77,1.58-4.18,2.37-1.42.79-2.87,1.44-4.37,1.94-.75,1.25-1.83,2.25-3.25,3h-.37c-.42.08-.77.02-1.06-.19-.29-.21-.65-.31-1.06-.31-.25,0-.42.04-.5.12-2.5,1.67-5.29,2.5-8.37,2.5-.83,0-1.62-.06-2.37-.19s-1.54-.19-2.37-.19c-.25,0-.42.08-.5.25l-.25.5c-.08.17-.19.33-.31.5-.12.17-.44.25-.94.25-.92,0-1.83-.12-2.75-.37-.92-.25-1.87-.29-2.87-.12-1.92-1.08-3.41-2.12-4.5-3.12-1.08-1-2.08-2.5-3-4.49-.42-.92-.98-1.79-1.69-2.62-.71-.83-1.23-1.75-1.56-2.75-.08-.33-.21-.94-.37-1.81-.17-.87-.33-1.81-.5-2.81-.17-1-.31-1.95-.44-2.87-.12-.91-.19-1.54-.19-1.87,0-1,.06-1.98.19-2.93.13-.96.27-1.94.44-2.93.5-3.16.85-6.35,1.06-9.55.21-3.2.89-6.31,2.06-9.3-.17-.92-.25-1.79-.25-2.62v-2.75c0-1.58-.21-2.91-.62-4,.67-1.08,1-2.29,1-3.62,0-1.5-.62-2.37-1.87-2.62v-.37c0-1.75-.58-3.12-1.75-4.12,0-2.91.73-5.1,2.18-6.56,1.46-1.46,3.39-2.73,5.81-3.81.33-.5.46-.92.37-1.25.58.17,1.12.33,1.62.5.5.17,1,.25,1.5.25.83,0,1.58-.12,2.25-.37.25,1,.89,1.6,1.94,1.81,1.04.21,1.89.48,2.56.81v1.62c0,2.58.62,5.04,1.87,7.37-.33.67-.54,1.37-.62,2.12-.08.75-.13,1.46-.13,2.12,0,1,.04,2,.13,3,.08,1,.12,1.96.12,2.87,0,1-.11,2-.31,3-.21,1-.69,1.87-1.44,2.62-.08,1.08-.15,2.31-.19,3.68-.04,1.37-.13,2.77-.25,4.18-.12,1.42-.35,2.79-.69,4.12-.33,1.33-.83,2.42-1.5,3.25-.08,1.25-.15,2.52-.19,3.81-.04,1.29-.06,2.52-.06,3.68,0,1.83.1,4,.31,6.49.21,2.5.77,4.58,1.69,6.24.42.67,1.23,1.17,2.44,1.5,1.21.33,2.18.5,2.93.5.92,0,1.85-.14,2.81-.44.96-.29,1.64-.81,2.06-1.56.5.08.83.33,1,.75.17.42.46.75.87,1,4.75-2,9.49-3.91,14.23-5.74,4.74-1.83,9.41-3.95,13.98-6.37.67.33,1.37.5,2.12.5.83,0,1.66-.08,2.5-.25.83-.17,1.66-.25,2.5-.25h.87c.17.5.25.87.25,1.12Z"/>
    <path d="M1306.87,157.6c-.5.75-.79,1.58-.87,2.5-.08.92-.13,1.75-.13,2.5,0,1,.02,1.98.06,2.93.04.96.06,1.89.06,2.81v1.87c-.17.58-.42,1.17-.75,1.75-.33.58-.58,1.17-.75,1.75-1.17,3.08-1.75,6.16-1.75,9.24v.25c-.42,1-.81,1.92-1.19,2.75-.37.83-.73,1.64-1.06,2.43-.33.79-.58,1.62-.75,2.5-.17.87-.21,1.89-.12,3.06-1.17,2.91-2.71,5.56-4.62,7.93-1.92,2.37-3.79,4.81-5.62,7.3-1.75.67-3.35,1.54-4.81,2.62-1.46,1.08-2.85,2.29-4.18,3.62-2.58.83-5.12,1.79-7.62,2.87-2.5,1.08-4.74,2.54-6.74,4.37-1.58.17-3.16.42-4.74.75-1.58.33-3.12.83-4.62,1.5h-1.5c-.75,0-1.29-.17-1.62-.5-1.08.58-2.21.98-3.37,1.19-1.17.21-2.33.31-3.5.31-1.5,0-2.98-.1-4.43-.31-1.46-.21-2.93-.44-4.43-.69-.83-1.16-2-2.06-3.5-2.68s-2.83-1.23-4-1.81c-2.42-3.33-4.16-6.56-5.24-9.68-1.08-3.12-2.2-6.64-3.37-10.55.17-1.16.46-2.31.87-3.43.42-1.12.58-2.35.5-3.68,1.5-4.33,3.47-8.26,5.93-11.8,2.45-3.54,5.26-6.93,8.43-10.18,0-.5.1-.92.31-1.25.21-.33.23-.83.06-1.5.08.08.25.12.5.12.67,0,1.08-.19,1.25-.56.17-.37.21-.81.12-1.31,3-1.91,5.72-4.12,8.18-6.62,2.45-2.5,5.26-4.58,8.43-6.24.25-.75.66-1.37,1.25-1.87.58-.5,1.04-1.08,1.37-1.75,2.66-.75,5.08-1.87,7.24-3.37,2.16-1.5,4.45-2.83,6.87-4,1.33-.75,2.6-1.27,3.81-1.56,1.21-.29,2.52-.6,3.93-.94.5-.17.96-.29,1.37-.37.42-.08.87-.12,1.37-.12,1.5,0,2.95.27,4.37.81,1.41.54,2.87.81,4.37.81.42,0,.77-.02,1.06-.06.29-.04.6-.1.94-.19,1.41,1.75,3.2,3.08,5.37,4,.5,1.25,1.1,2.33,1.81,3.25.71.92,1.44,1.81,2.18,2.68s1.44,1.83,2.06,2.87c.62,1.04,1.02,2.27,1.19,3.68ZM1294.38,164.09c0-.42-.04-.79-.12-1.12-.83-.25-1.62-.58-2.37-1-.75-.42-1.58-.62-2.5-.62-.58,0-1.17.12-1.75.37-.08-.58-.31-1-.69-1.25-.37-.25-.79-.48-1.25-.69-.46-.21-.92-.37-1.37-.5-.46-.12-.85-.35-1.19-.69-.25-.67-.52-1.35-.81-2.06-.29-.71-.81-1.23-1.56-1.56-.75.75-1.62,1.35-2.62,1.81-1,.46-2.02.9-3.06,1.31-1.04.42-2.04.92-3,1.5-.96.58-1.77,1.29-2.44,2.12h-2.25c-.5.92-1.21,1.6-2.12,2.06-.92.46-1.71,1.1-2.37,1.94-1.33.67-2.56,1.48-3.68,2.43-1.12.96-2.23,1.96-3.31,3-1.08,1.04-2.14,2.1-3.18,3.18-1.04,1.08-2.14,2.08-3.31,3-1.08,2.33-2.27,4.35-3.56,6.06-1.29,1.71-2.5,3.43-3.62,5.18-1.12,1.75-2.08,3.64-2.87,5.68-.79,2.04-1.19,4.56-1.19,7.55v1.25c0,.42.04.83.13,1.25,1.08,1.17,1.98,2.42,2.68,3.75.71,1.33,1.89,2.29,3.56,2.87,1.66.67,3.43.96,5.31.87,1.87-.08,3.68.12,5.43.62,4-.75,7.85-1.98,11.55-3.68,3.7-1.71,7.22-3.77,10.55-6.18.5-.42,1.08-.85,1.75-1.31.67-.46,1.21-.94,1.62-1.44.42-.42.77-.87,1.06-1.37.29-.5.6-.96.94-1.37.67-1.08,1.41-2.16,2.25-3.25.83-1.08,1.71-2.08,2.62-3,.42-1.83.96-3.6,1.62-5.31.66-1.71,1.33-3.39,2-5.06.66-1.66,1.23-3.37,1.69-5.12.46-1.75.69-3.58.69-5.49,0-.42-.02-.87-.06-1.37-.04-.5-.11-.96-.19-1.37.67-.92,1-1.91,1-3Z"/>
    <path d="M1435.6,214.16c-.42,1.33-.54,2.66-.37,4-.25.33-.54.54-.87.62-.33.08-.67.19-1,.31-.33.12-.6.29-.81.5-.21.21-.23.6-.06,1.19-2.75.17-5.37.75-7.87,1.75-2.5,1-4.95,2.08-7.37,3.25-1.25-.42-2.33-.91-3.25-1.5-.92-.58-2.08-.96-3.5-1.12-1.42-2.83-2.73-5.81-3.93-8.93-1.21-3.12-1.81-6.26-1.81-9.43,0-2.33.42-4.45,1.25-6.37,0-2.5.21-4.95.62-7.37.42-2.41.89-4.81,1.44-7.18.54-2.37,1.02-4.76,1.44-7.18.42-2.41.62-4.87.62-7.37v-2.75c-.17,0-.37.19-.62.56s-.48.79-.69,1.25c-.21.46-.4.9-.56,1.31-.17.42-.29.67-.37.75-1.42,1.08-2.52,2.43-3.31,4.06-.79,1.62-1.64,3.14-2.56,4.56-1.17,1.75-2.39,3.46-3.68,5.12-1.29,1.67-2.89,2.96-4.81,3.87v.25c0,.42-.13.71-.37.87-.25.17-.29.58-.13,1.25-2.08.67-4.02,1.62-5.81,2.87-1.79,1.25-3.27,2.83-4.43,4.74-1.67.42-3.23.98-4.68,1.69-1.46.71-2.93,1.48-4.43,2.31-.67.33-1.37.75-2.12,1.25-.75.5-1.5.83-2.25,1-.67.25-1.56.42-2.68.5-1.12.08-2.29.17-3.5.25-1.21.08-2.39.12-3.56.12h-2.75c-.42,0-.96-.21-1.62-.62-.67-.42-1.39-.87-2.18-1.37-.79-.5-1.6-.98-2.44-1.44-.83-.46-1.62-.77-2.37-.94-.67-2.16-1.6-4.1-2.81-5.81-1.21-1.71-2.48-3.43-3.81-5.18-.42-2-.98-4.08-1.69-6.24-.71-2.16-1.94-3.95-3.68-5.37.42-.58.62-1.25.62-2,0-.92-.21-1.79-.62-2.62-.42-.83-.62-1.75-.62-2.75,0-.67.04-1.16.12-1.5-.92,1-1.56,2.27-1.93,3.81-.37,1.54-.56,2.93-.56,4.18,0,1,.13,1.92.37,2.75-.83,1.17-1.35,2.62-1.56,4.37-.21,1.75-.31,3.29-.31,4.62,0,1.67.13,3.29.37,4.87-1.33,1.33-2,2.96-2,4.87,0,1.08.25,2.04.75,2.87,0,.33-.08.58-.25.75-.17.17-.36.29-.56.37-.21.08-.42.19-.62.31-.21.12-.31.36-.31.69,0,.42.02.87.06,1.37.04.5.06,1,.06,1.5,0,1.17-.04,2.37-.13,3.62-.08,1.25-.13,2.46-.13,3.62,0,2.42.23,4.14.69,5.18.46,1.04,1.04,1.81,1.75,2.31.71.5,1.48,1,2.31,1.5.83.5,1.66,1.46,2.5,2.87-.25.75-.69,1.35-1.31,1.81-.62.46-1.21.92-1.75,1.37-.54.46-1.02.98-1.44,1.56-.42.58-.58,1.41-.5,2.5h-.62c-1.08,0-2.12.17-3.12.5-1,.33-2.04.5-3.12.5-.25,0-.5-.02-.75-.06-.25-.04-.5-.06-.75-.06l-1.25-.75c-.42-.25-.83-.37-1.25-.37s-.96.08-1.62.25c-1.17-3.75-2.06-7.62-2.68-11.61-.62-4-.94-7.91-.94-11.74,0-.42.1-.85.31-1.31.21-.46.52-.6.94-.44v-2.37c0-2.58.23-5.1.69-7.55.46-2.45.69-5.01.69-7.68,0-.75-.02-1.5-.06-2.25-.04-.75-.11-1.46-.19-2.12.42-1.41.85-2.85,1.31-4.31.46-1.46.69-2.98.69-4.56,0-.67-.12-1.46-.37-2.37.67-.5,1.16-1.14,1.5-1.94.33-.79.58-1.66.75-2.62.17-.96.29-1.89.37-2.81.08-.91.17-1.75.25-2.5.83-1.66,1.29-3.45,1.37-5.37.08-1.91.5-3.7,1.25-5.37-.08-.33-.13-.92-.13-1.75,0-1.66.27-3.35.81-5.06.54-1.71,1.64-3.02,3.31-3.93,1.5.58,3.25.87,5.24.87s3.75-.29,5.49-.87c.5.17.96.36,1.37.56.42.21.85.42,1.31.62.46.21.94.37,1.44.5.5.12,1.08.15,1.75.06.83,2.42,1.56,4.87,2.19,7.37.62,2.5,1.1,5.04,1.44,7.62.17,1.08.23,2.25.19,3.5-.04,1.25.02,2.42.19,3.5.08.67.29,1.27.62,1.81.33.54.67,1.15,1,1.81.33.67.6,1.42.81,2.25.21.83.27,1.87.19,3.12.92,2.17,1.94,4.23,3.06,6.18,1.12,1.96,2.35,3.89,3.68,5.81.75.25,1.41.56,2,.94.58.37.96.98,1.12,1.81.75,0,1.41.12,2,.37l2.12.62c3.16-1,6.1-2.33,8.8-4,2.7-1.66,5.56-3.08,8.55-4.25,3.66-3.58,6.82-7.55,9.49-11.92,2.66-4.37,5.33-8.72,7.99-13.05v-2.75c.5-.25.94-.56,1.31-.94s.85-.64,1.44-.81c.08-1,.31-1.98.69-2.93.37-.96.79-1.87,1.25-2.75.46-.87.85-1.75,1.19-2.62.33-.87.5-1.81.5-2.81,0-.58-.04-1.08-.13-1.5,1.25-1.25,2.75-1.87,4.49-1.87s3.35.4,5.06,1.19c1.71.79,3.31,1.52,4.81,2.19.92,2,1.6,4.1,2.06,6.31.46,2.21.77,4.48.94,6.8.17,2.33.25,4.66.25,6.99v8.87c-.08.67-.31,1.15-.69,1.44-.37.29-.65.73-.81,1.31v1.25c0,.42-.04.83-.12,1.25,0,1.75-.21,3.58-.62,5.49-.42,2.42-.94,4.85-1.56,7.3-.62,2.46-.94,4.93-.94,7.43,0,.92.04,1.83.13,2.75.08.92.25,1.83.5,2.75-.42.75-.62,1.71-.62,2.87,0,1.33.23,2.56.69,3.68.46,1.12,1.02,2.23,1.69,3.31,1.16,0,2.33-.04,3.5-.12,1.16-.08,2.37-.12,3.62-.12,1.16,0,2.25.11,3.25.31,1,.21,2.04.65,3.12,1.31Z"/>
    <path d="M1022.56,389.05c0,1.08-.29,2.06-.87,2.93-.58.87-.75,1.89-.5,3.06-.33.58-.77,1.04-1.31,1.37-.54.33-.73.96-.56,1.87-1.75.92-3.35,2.06-4.81,3.43-1.46,1.37-3.02,2.68-4.68,3.93-1,.75-1.85,1.27-2.56,1.56-.71.29-1.56.73-2.56,1.31l-3.12,2c-1.42.75-2.85,1.5-4.31,2.25-1.46.75-2.77,1.71-3.93,2.87-1.75.08-3.54.56-5.37,1.44-1.83.87-3.58,1.64-5.24,2.31-.67.25-1.33.44-2,.56-.67.12-1.33.35-2,.69l-2,.87c-1.17.58-2.54,1.19-4.12,1.81-1.58.62-3,.94-4.25.94-.75.33-1.37.91-1.87,1.75-2.75.92-5.58,1.62-8.49,2.12-2.91.5-5.74,1.29-8.49,2.37-.92.42-1.85.98-2.81,1.69-.96.71-1.98,1.02-3.06.94-.25.42-.42.92-.5,1.5-.08.58-.21,1.16-.37,1.75h-.37c-.33,0-.48-.17-.44-.5.04-.33-.11-.5-.44-.5-.25,0-.42.04-.5.12-1.08.25-2.1.46-3.06.62-.96.17-2.02.25-3.18.25-.67,0-1.73-.08-3.18-.25-1.46-.17-2.52-.38-3.18-.63-.5-.25-.92-.72-1.25-1.39-.33-.67-.65-1.39-.94-2.14-.29-.76-.54-1.54-.75-2.33-.21-.8-.4-1.45-.56-1.95.25-.92.66-1.68,1.25-2.27.58-.59,1.04-1.34,1.37-2.27.75-.08,1.5-.21,2.25-.38.75-.17,1.5-.21,2.25-.13,2.58-.75,5.18-1.47,7.8-2.17,2.62-.7,5.22-1.43,7.8-2.17,2.58-.75,5.12-1.57,7.62-2.48,2.5-.91,4.91-2.03,7.24-3.35h2.62c1.5-.83,3.16-1.53,4.99-2.11,1.83-.58,3.33-1.53,4.49-2.86,2.75-.58,5.62-1.37,8.62-2.36,3-.99,5.49-2.57,7.49-4.72,1.25-.17,2.33-.48,3.25-.94.92-.46,1.79-.94,2.62-1.44l2.5-1.62c.83-.58,1.79-1.04,2.87-1.37.66-.67,1.29-1.37,1.87-2.12.58-.75,1.29-1.37,2.12-1.87-.25-1.33-.92-2.33-2-3-1.08-.67-2.04-1.46-2.87-2.37h-2.75c-2.17-1.33-4.48-2.35-6.93-3.06-2.46-.71-4.89-1.48-7.3-2.31-.17-.08-.37-.12-.62-.12-.58,0-.94.21-1.06.62-.12.42-.48.58-1.06.5-.75-.5-1.54-.81-2.37-.94-.83-.12-1.71-.19-2.62-.19-1.17,0-2.31.06-3.43.19-1.12.12-2.27.19-3.43.19-.58,0-1.17-.04-1.75-.12-.58-.08-1.17-.29-1.75-.62h-1.62c-1.75,0-3.48.06-5.18.19-1.71.12-3.39.19-5.06.19-.92,0-1.79-.02-2.62-.06-.83-.04-1.67-.14-2.5-.31-1.75.83-3.62,1.42-5.62,1.75-2,.33-4.06.58-6.18.75-2.12.17-4.23.31-6.31.44-2.08.12-4.08.36-5.99.69-.5-.08-.98-.14-1.44-.19-.46-.04-.9-.06-1.31-.06s-.85.02-1.31.06c-.46.04-.9.11-1.31.19-1.08-1.16-2.39-2.02-3.93-2.56-1.54-.54-3.06-.89-4.56-1.06-1.17-1.41-2.02-2.85-2.56-4.31-.54-1.46-.9-3.1-1.06-4.93h.5c.58,0,.85-.29.81-.87-.04-.58.14-1.08.56-1.5.42-.5.98-.85,1.69-1.06.71-.21,1.39-.44,2.06-.69.67-.25,1.31-.56,1.94-.94s1.1-.98,1.44-1.81h1.62c.33,0,.69.02,1.06.06.37.04.69.19.94.44.33-.33.75-.62,1.25-.87.5-.25.98-.5,1.44-.75.46-.25.85-.54,1.19-.87.33-.33.54-.83.62-1.5.08.25.29.37.62.37s.64-.08.94-.25c.29-.17.64-.21,1.06-.12.42-1.16,1.12-1.79,2.12-1.87,1-.08,1.91-.37,2.75-.87.58-.33,1.12-.73,1.62-1.19.5-.46,1.04-.89,1.62-1.31l7.49-5.74,11.49-8.74c3.83-2.91,7.74-5.62,11.74-8.12.17-.5.42-.87.75-1.12.33-.25.66-.52,1-.81.33-.29.6-.6.81-.94.21-.33.27-.83.19-1.5,1.17-.25,2.06-.71,2.68-1.37.62-.67,1.19-1.39,1.69-2.19.5-.79,1.02-1.58,1.56-2.37.54-.79,1.27-1.39,2.18-1.81-.08-.25-.13-.62-.13-1.12,0-.67.06-1.33.19-2,.12-.67.44-1.25.94-1.75-.75-1.75-2.04-3.02-3.87-3.81-1.83-.79-3.58-1.48-5.24-2.06h-.37c-.42,0-.65.19-.69.56-.04.37-.27.65-.69.81-1.33-.33-2.83-.5-4.49-.5s-3.31.12-4.93.37c-1.62.25-3.27.29-4.93.12-.25.33-.52.67-.81,1-.29.33-.65.62-1.06.87-1.75.08-3.5.33-5.24.75l-5.24,1.25-2.87.62c-.42.17-.71.46-.87.87-.17.42-.29.87-.37,1.37-.5-.08-.81-.29-.94-.62-.13-.33-.44-.58-.94-.75-1.92,1.17-3.98,2.12-6.18,2.87-2.21.75-4.18,1.92-5.93,3.5-.58-.67-1.42-1-2.5-1-.92,0-1.92.29-3,.87-1.08.58-1.75,1.33-2,2.25-.83-.17-1.46-.25-1.87-.25-.92,0-1.69.25-2.31.75-.62.5-1.23,1.06-1.81,1.69-.58.62-1.21,1.23-1.87,1.81-.67.58-1.5.92-2.5,1,0,.42.02.85.06,1.31.04.46.06.94.06,1.44,0,3.75-.21,7.47-.62,11.18-.42,3.7-.62,7.43-.62,11.18,0,.83.04,1.64.13,2.43.08.79.12,1.64.12,2.56,0,.25-.19.79-.56,1.62-.37.83-.65,1.46-.81,1.87.33.92.48,1.83.44,2.75-.04.92.14,1.79.56,2.62-.75.67-1.12,1.58-1.12,2.75,0,.5.02,1,.06,1.5.04.5.06,1,.06,1.5v1.5c-.25,1.67-.42,3.35-.5,5.06-.08,1.71-.12,3.39-.12,5.06,0,.75.02,2.02.06,3.81.04,1.79.14,3.79.31,5.99.17,2.21.42,4.48.75,6.8.33,2.33.77,4.48,1.31,6.43.54,1.95,1.23,3.56,2.06,4.81.83,1.25,1.83,1.87,3,1.87.25,0,.56-.04.94-.12.37-.08.56-.29.56-.62s-.06-.62-.19-.87c-.12-.25-.19-.54-.19-.87l.13-.25c.66.33,1.39.54,2.18.62.79.08,1.6.17,2.43.25.83.08,1.62.23,2.37.44.75.21,1.41.64,2,1.31-.33.67-.5,1.37-.5,2.12,0,1,.25,1.94.75,2.81.5.87.83,1.77,1,2.68-1.58.5-3.02,1.06-4.31,1.69-1.29.62-2.56,1.21-3.81,1.75-1.25.54-2.58,1.04-4,1.5-1.42.46-3.04.77-4.87.94-1.17-.75-2.17-1.42-3-2-.83-.58-1.96-.96-3.37-1.12-2.17-2.91-3.95-6.18-5.37-9.8-1.42-3.62-2.52-7.39-3.31-11.3-.79-3.91-1.33-7.84-1.62-11.8-.29-3.95-.44-7.68-.44-11.18,0-3.83.14-7.64.44-11.42.29-3.79.69-7.6,1.19-11.42.17-1.16.33-2.35.5-3.56.17-1.21.33-2.39.5-3.56.17-.42.31-.89.44-1.44.13-.54.19-1.02.19-1.44,0-1.41-.04-2.83-.13-4.25-.08-1.41-.12-2.79-.12-4.12,0-2.08.12-4.2.37-6.37.08-.42.23-.96.44-1.62.21-.67.31-1.25.31-1.75,0-.67-.17-1.12-.5-1.37-.33-.25-.62-.67-.87-1.25.25-.83.46-1.64.62-2.43.17-.79.25-1.6.25-2.43,0-1.58-.29-2.95-.87-4.12.42-2.16,1.04-4.29,1.87-6.37.83-2.08,2.29-3.66,4.37-4.74,1.66.08,3.35.25,5.06.5,1.71.25,3.18.96,4.43,2.12.58-.33,1.25-.54,2-.62l2.37-.25c.83-.08,1.58-.23,2.25-.44.67-.21,1.25-.64,1.75-1.31,1.66-.33,3.45-.81,5.37-1.44,1.91-.62,3.58-1.35,4.99-2.18h2.75c.58-.42,1.25-.71,2-.87l2.37-.62c.83-.25,1.6-.5,2.31-.75.71-.25,1.27-.67,1.69-1.25h.5c1.91,0,3.79-.42,5.62-1.25,1.83-.83,3.62-1.58,5.37-2.25.42-.17,1.06-.46,1.94-.87.87-.42,1.48-.62,1.81-.62,1.16-.17,2.33-.27,3.5-.31,1.16-.04,2.33-.19,3.5-.44,2.66-.42,5.31-.89,7.93-1.44,2.62-.54,5.26-.81,7.93-.81.92,0,1.77.02,2.56.06.79.04,1.64.11,2.56.19.08.33.29.6.62.81.33.21.64.4.94.56.29.17.56.4.81.69.25.29.33.69.25,1.19.17.17.33.25.5.25.25,0,.48-.12.69-.37.21-.25.52-.37.94-.37h.62c1.08,1.17,2.14,2.27,3.18,3.31,1.04,1.04,2.35,1.89,3.93,2.56.67,2.5,1.46,4.95,2.37,7.37.92,2.42,1.37,4.99,1.37,7.74,0,1.67-.25,3.29-.75,4.87-1.17.58-2,1.5-2.5,2.75-.5,1.25-.96,2.46-1.37,3.62-2.33,1.17-4.29,2.71-5.87,4.62-1.58,1.92-3.21,3.83-4.87,5.74h-2c-.33,0-.58.12-.75.37l-1.12,1.25c-.75.67-1.56,1.33-2.43,2-.87.67-1.52,1.54-1.94,2.62-2.58,1.42-5.06,3-7.43,4.74-2.37,1.75-4.64,3.58-6.8,5.49-.92.75-1.83,1.6-2.75,2.56-.92.96-1.83,1.77-2.75,2.43-.5.42-1.06.77-1.69,1.06-.62.29-1.19.65-1.69,1.06-1.08.83-2.08,1.69-3,2.56-.92.87-1.87,1.69-2.87,2.43,3.75-.17,7.53-.27,11.36-.31,3.83-.04,7.62-.1,11.36-.19,1.91,0,3.79-.06,5.62-.19,1.83-.12,3.7-.19,5.62-.19.33,0,.62.06.87.19.25.12.54.23.87.31,1.41.25,2.66.54,3.75.87,4,.75,7.99,1.42,11.99,2,4,.58,7.91,1.54,11.74,2.87,1.08.42,1.89.87,2.44,1.37.54.5,1.52.62,2.93.37,1.17,1.17,2.44,2.08,3.81,2.75,1.37.67,2.77,1.25,4.18,1.75,1.08,1.67,2.1,3.25,3.06,4.74.96,1.5,1.44,3.29,1.44,5.37Z"/>
    <path d="M1185.13,388.55c-.17,1.25-.6,2.21-1.31,2.87-.71.67-1.52,1.29-2.43,1.87-.42-.08-.81-.14-1.19-.19-.37-.04-.77-.06-1.19-.06-2.58-.08-5.02.25-7.3,1-2.29.75-4.64,1.29-7.05,1.62-.83.17-1.6.23-2.31.19-.71-.04-1.44.02-2.18.19-2.67.42-5.49.75-8.49,1-3,.25-5.99.56-8.99.94s-5.93.83-8.8,1.37c-2.87.54-5.56,1.31-8.05,2.31-.25-.17-.5-.35-.75-.56-.25-.21-.54-.31-.87-.31-.83,0-1.62.12-2.37.37s-1.5.33-2.25.25c-.83.5-1.73.85-2.68,1.06-.96.21-1.92.37-2.87.5-.96.12-1.89.31-2.81.56-.92.25-1.79.71-2.62,1.37-.67-.33-1.48-.52-2.44-.56-.96-.04-1.6-.35-1.94-.94-1.92.92-3.93,1.5-6.06,1.75-2.12.25-4.27.33-6.43.25-1.42-.08-3.04-.29-4.87-.62-1.83-.33-3.66-.81-5.49-1.44-1.83-.62-3.54-1.37-5.12-2.25-1.58-.87-2.79-1.94-3.62-3.18-.58-.83-1-1.75-1.25-2.75-.25-1-.83-1.75-1.75-2.25.25-1.91.54-3.79.87-5.62.33-1.83.67-3.7,1-5.62,1.66-1.41,3.25-2.91,4.75-4.49,1.5-1.58,2.91-3.25,4.25-4.99,1.58-.75,3.06-1.66,4.43-2.75,1.37-1.08,2.75-2.19,4.12-3.31,1.37-1.12,2.75-2.23,4.12-3.31,1.37-1.08,2.85-2.04,4.43-2.87.25-.58.6-1.06,1.06-1.44.46-.37.94-.75,1.44-1.12.5-.37.96-.79,1.37-1.25.42-.46.71-1.02.87-1.69,2.91-1.75,5.45-3.95,7.62-6.62,2.16-2.66,3.58-5.66,4.25-8.99-1.42-1.16-3.02-1.94-4.81-2.31-1.79-.37-3.64-.64-5.56-.81-1.67-.08-3.39-.08-5.18,0-1.79.08-3.6.04-5.43-.12-1.83.58-3.73.96-5.68,1.12-1.96.17-3.89.31-5.81.44-1.92.12-3.81.37-5.68.75s-3.68,1.06-5.43,2.06c-.33,0-.65-.04-.94-.12-.29-.08-.6-.12-.94-.12-2.67-.08-5.16.44-7.49,1.56-2.33,1.12-4.62,2.23-6.87,3.31-.17.33-.25.58-.25.75,0,.5.1.98.31,1.44.21.46.31.94.31,1.44-.08.08-.12.17-.12.25s-.04.17-.13.25c-.08.42-.19.79-.31,1.12-.13.33-.27.71-.44,1.12-.92,2.67-1.42,5.29-1.5,7.87-.08,2.17-.08,4.29,0,6.37.08,2.08.08,4.2,0,6.37-.17,2.66-.58,5.16-1.25,7.49.42,2,.79,4.1,1.12,6.31.33,2.21.75,4.39,1.25,6.56.5,2.17,1.1,4.27,1.81,6.31.71,2.04,1.64,3.98,2.81,5.81-.08.17-.04.29.13.37.17.08.33.12.5.12h1c.42,0,.58.17.5.5.17.25.29.48.37.69.08.21.25.4.5.56.17.25.17.58,0,1-.08,1.67-.5,3.2-1.25,4.62-.75,1.41-1.21,2.95-1.37,4.62-1,.25-1.92.37-2.75.37-1.42-.08-2.66-.48-3.75-1.19-1.08-.71-2.08-1.56-3-2.56-.92-1-1.79-2.02-2.62-3.06-.83-1.04-1.75-1.94-2.75-2.68-.58-2.33-1.15-4.91-1.69-7.74-.54-2.83-1.44-5.24-2.68-7.24.33-.75.5-1.66.5-2.75.08-1.66-.06-3.31-.44-4.93-.37-1.62-.48-3.27-.31-4.93,0-.91.1-1.83.31-2.75.21-.92.35-1.83.44-2.75.08-1.41-.06-2.79-.44-4.12-.37-1.33-.52-2.7-.44-4.12.08-.67.23-1.31.44-1.94.21-.62.52-1.19.94-1.69-.42-1-.54-1.95-.37-2.87.08-1.41.25-2.75.5-4,.25-1.25.42-2.5.5-3.75,0-.67-.04-1.31-.12-1.94-.08-.62-.21-1.23-.37-1.81l-1.12-.37c-.5,0-.98.12-1.44.37-.46.25-.85.54-1.19.87-.33.33-.62.6-.87.81-.25.21-.5.31-.75.31-.17,0-.36-.02-.56-.06-.21-.04-.4-.06-.56-.06s-.48.17-.94.5c-.46.33-1,.69-1.62,1.06-.62.37-1.23.75-1.81,1.12-.58.37-1.04.6-1.37.69-.92-.17-1.65-.48-2.18-.94-.54-.46-1.04-.92-1.5-1.37-.46-.46-.94-.87-1.44-1.25-.5-.37-1.12-.52-1.87-.44-.25-.5-.39-1.04-.44-1.62-.04-.58-.02-1.16.06-1.75v-2c.58-1.08,1.35-1.98,2.31-2.68.96-.71,1.98-1.31,3.06-1.81l3.25-1.5c1.08-.5,2.08-1.12,3-1.87h1.12c1.5.08,2.81-.21,3.93-.87,1.12-.67,2.19-1.44,3.18-2.31,1-.87,2.02-1.77,3.06-2.68,1.04-.92,2.18-1.62,3.43-2.12.92.42,1.87.77,2.87,1.06,1,.29,2.04.48,3.12.56,1.08,0,2.2-.17,3.37-.5,1.16-.33,2.08-.96,2.75-1.87.42.17.77.27,1.06.31.29.04.64.06,1.06.06,1.25.08,2.5-.1,3.75-.56,1.25-.46,2.45-1.02,3.62-1.69,1.66.08,3.31-.02,4.93-.31,1.62-.29,3.25-.6,4.87-.94,1.62-.33,3.25-.64,4.87-.94,1.62-.29,3.27-.39,4.93-.31,2.75.08,5.45-.17,8.12-.75,2.66-.58,5.37-.79,8.12-.62,1.91.08,3.81.23,5.68.44,1.87.21,3.77.27,5.68.19,1.08.5,2.06.94,2.93,1.31.87.37,1.98.48,3.31.31,2.66,2.25,5.08,4.87,7.24,7.87v2.12c-.08,1.92-.42,3.79-1,5.62-.58,1.83-1.27,3.64-2.06,5.43-.79,1.79-1.64,3.54-2.56,5.24-.92,1.71-1.79,3.39-2.62,5.06-5.41,4.91-10.82,9.78-16.23,14.61-5.41,4.83-10.99,9.49-16.73,13.98-.17.83-.4,1.58-.69,2.25-.29.67-.48,1.37-.56,2.12,0,.42.04.75.13,1,.58.17,1.1.48,1.56.94.46.46.6,1.06.44,1.81h1.12c.42,0,.62.17.62.5l2,.12c3.16.17,6.33.08,9.49-.25,3.16-.33,6.35-.71,9.55-1.12,3.2-.42,6.39-.81,9.55-1.19,3.16-.37,6.33-.6,9.49-.69.75-.25,1.54-.46,2.37-.62.83-.17,1.58-.5,2.25-1h.37c.58,0,1.02.17,1.31.5.29.33.73.54,1.31.62.42,0,.85-.08,1.31-.25.46-.17.94-.29,1.44-.37,1.16-.33,2.39-.54,3.68-.62,1.29-.08,2.56-.21,3.81-.37,4.83-.42,9.61-.69,14.36-.81,4.75-.12,9.49-.73,14.23-1.81.42.58,1,.98,1.75,1.19.75.21,1.54.42,2.37.62.83.21,1.6.44,2.31.69.71.25,1.19.75,1.44,1.5Z"/>
    <path d="M1242.57,401.16c-.25,1.17-.77,2.1-1.56,2.81-.79.71-1.73,1.27-2.81,1.69-1.08.42-2.18.69-3.31.81s-2.14.19-3.06.19c-.42,0-.81-.02-1.19-.06-.37-.04-.77-.06-1.19-.06s-.62.21-.62.62-.21.71-.62.87c-.42-.17-.83-.29-1.25-.37-.42-.08-.83-.12-1.25-.12-.58,0-1.14.04-1.69.12-.54.08-1.06.12-1.56.12-.67,0-1.15-.08-1.44-.25-.29-.17-.54-.35-.75-.56-.21-.21-.42-.44-.62-.69-.21-.25-.52-.46-.94-.62-.58-.25-1.06-.29-1.44-.12-.37.17-.94-.08-1.69-.75-1-.83-1.85-1.85-2.56-3.06-.71-1.21-1.39-2.48-2.06-3.81-.67-1.33-1.37-2.66-2.12-4-.75-1.33-1.62-2.5-2.62-3.5h-1c-1.5,0-2.54.62-3.12,1.87-.42-.25-.83-.56-1.25-.94-.42-.37-.87-.69-1.37-.94-1.92.58-3.91,1.08-5.99,1.5-2.08.42-4.16.62-6.24.62h-1.75c-.5,0-1.04-.08-1.62-.25-.83.33-1.58.73-2.25,1.19-.67.46-1.42.69-2.25.69-.5,0-1.08-.17-1.75-.5-.5,0-.73.21-.69.62.04.42-.23.62-.81.62h-1.12c-1.17,0-2.31.04-3.43.12-1.12.08-2.27.12-3.43.12-1.58,0-3.21-.21-4.87-.62-.42.25-.87.37-1.37.37-.33.17-.58.44-.75.81-.17.37-.33.71-.5,1-.17.29-.4.54-.69.75-.29.21-.69.27-1.19.19-.17,1-.58,1.79-1.25,2.37-.67.58-1,1.46-1,2.62-.92.5-1.67,1.12-2.25,1.87-.58.75-1.17,1.54-1.75,2.37-.58.83-1.19,1.62-1.81,2.37-.62.75-1.39,1.33-2.31,1.75-.42.5-.54,1.29-.37,2.37-.92.75-2.04,1.41-3.37,2-1.33.58-2.58.87-3.75.87-2.41,0-4.08-1.29-4.99-3.87,0-.83.06-1.73.19-2.68.13-.96.31-1.87.56-2.75s.62-1.66,1.12-2.37c.5-.71,1.21-1.23,2.12-1.56,0-.75-.25-1.27-.75-1.56-.5-.29-.71-.81-.62-1.56,2.25-1.08,4.2-2.5,5.87-4.25,1.67-1.75,3.18-3.6,4.56-5.56,1.37-1.95,2.77-3.93,4.18-5.93,1.41-2,3-3.79,4.74-5.37v-2.62c2.5-2.66,4.12-5.66,4.87-8.99.92-.17,1.52-.58,1.81-1.25.29-.67.44-1.46.44-2.37.42,0,.69-.19.81-.56s.48-.48,1.06-.31c.75-2,1.58-3.83,2.5-5.49.92-1.66,1.83-3.35,2.75-5.06.92-1.71,1.73-3.47,2.44-5.31.71-1.83,1.23-3.87,1.56-6.12,1.16-.08,1.81-.64,1.94-1.69.13-1.04.27-1.98.44-2.81,1.25-1.16,2.18-2.54,2.81-4.12.62-1.58,1.19-3.22,1.69-4.93.5-1.71,1.06-3.41,1.69-5.12.62-1.71,1.52-3.22,2.68-4.56v-.37c0-.42-.17-.69-.5-.81-.33-.12-.5-.39-.5-.81.08-.08.13-.17.13-.25,1-.42,1.75-1.1,2.25-2.06.5-.96,1.25-1.64,2.25-2.06,1.75,1.42,3.29,2.27,4.62,2.56,1.33.29,3.08.52,5.24.69,1.08,1.17,1.69,2.56,1.81,4.18.13,1.62.39,3.23.81,4.81.66,2.66,1.39,5.27,2.18,7.8.79,2.54,1.39,5.14,1.81,7.8.25,1.58.71,3.08,1.37,4.49.66,1.42,1.12,2.87,1.37,4.37.17,1.17.17,2.48,0,3.93-.17,1.46,0,2.73.5,3.81l.87,2c.42.92.77,1.87,1.06,2.87.29,1,.56,2,.81,3,.66,2.5,1.27,5.18,1.81,8.05.54,2.87,1.39,5.47,2.56,7.8.42.83,1.06,1.42,1.94,1.75.87.33,1.85.56,2.93.69,1.08.12,2.14.17,3.18.12,1.04-.04,1.94-.06,2.68-.06h1.25c.5,0,1,.08,1.5.25.33.67.5,1.25.5,1.75,0,1-.33,1.79-1,2.37-.67.58-1,1.25-1,2,0,.42.17.87.5,1.37-.33-.08-.83-.12-1.5-.12-1.92,0-3.79.33-5.62,1,.66,1.42,1.56,2.6,2.68,3.56,1.12.96,2.31,1.85,3.56,2.68.83-.67,1.71-1,2.62-1,1,0,1.93.23,2.81.69.87.46,1.81.69,2.81.69.75,0,1.29-.12,1.62-.37.67.75,1.21,1.52,1.62,2.31.42.79.96,1.52,1.62,2.19ZM1203.49,381.18c-.17-1.41-.44-2.43-.81-3.06s-.69-1.39-.94-2.31c-.33-1.16-.56-2.41-.69-3.75-.12-1.33-.31-2.62-.56-3.87-.58-2.83-1.23-5.66-1.94-8.49-.71-2.83-1.6-5.58-2.68-8.24.33-.5.5-.96.5-1.37v-.37c-.75-.83-1.29-1.85-1.62-3.06-.33-1.21-.65-2.41-.94-3.62-.29-1.21-.67-2.33-1.12-3.37-.46-1.04-1.19-1.89-2.18-2.56-.25.5-.37,1.08-.37,1.75,0,.58.06,1.12.19,1.62.12.5.19,1.04.19,1.62-.83.42-1.44,1.06-1.81,1.94s-.98,1.56-1.81,2.06c-.67,2.67-1.62,5.18-2.87,7.55-1.25,2.37-2.56,4.73-3.93,7.05-1.37,2.33-2.68,4.68-3.93,7.05s-2.25,4.85-3,7.43c-1.08.75-1.81,1.71-2.18,2.87-.37,1.17-.56,2.33-.56,3.5.75.42,1.6.65,2.56.69.96.04,1.89.06,2.81.06s1.79.08,2.62.25c.83.17,1.58.58,2.25,1.25,1.08-.33,2.27-.56,3.56-.69,1.29-.12,2.35-.48,3.18-1.06,1.66.58,3.45.87,5.37.87,1,0,1.98-.08,2.93-.25.96-.17,1.89-.37,2.81-.62.75.17,1.33.44,1.75.81.42.37,1.04.52,1.87.44.42-.33.66-.69.75-1.06.08-.37.29-.73.62-1.06Z"/>
    <path d="M1307.62,394.55c0,1.42-.36,2.64-1.06,3.68-.71,1.04-.98,2.31-.81,3.81-1.17.67-2.12,1.54-2.87,2.62-.75,1.08-1.46,2.21-2.12,3.37-5.49,3.58-11.38,6.47-17.67,8.68-6.29,2.2-12.76,3.31-19.42,3.31-.42,0-.79-.19-1.12-.56-.33-.37-.67-.77-1-1.19-.33-.42-.69-.81-1.06-1.19s-.81-.56-1.31-.56c-.58,0-1.04.12-1.37.37,0-.17.02-.31.06-.44.04-.12.06-.27.06-.44,0-1-.13-2.02-.37-3.06-.25-1.04-.37-2.06-.37-3.06,0-1.16.21-2.12.62-2.87h1.5c.83,0,1.64-.06,2.44-.19.79-.12,1.64-.19,2.56-.19s1.75.25,2.5.75c4.58-.17,8.93-1.02,13.05-2.56,4.12-1.54,8.3-3.06,12.55-4.56.66-.91,1.06-1.94,1.19-3.06.12-1.12.44-2.19.94-3.18-2.17-1.83-4.35-3.27-6.56-4.31-2.21-1.04-4.77-1.39-7.68-1.06-1.75-1.08-3.6-1.71-5.56-1.87-1.96-.17-3.93-.42-5.93-.75-.5-.08-1.02-.19-1.56-.31-.54-.12-1.1-.19-1.69-.19-.42,0-.81.11-1.19.31-.37.21-.48.52-.31.94-.42-.67-.98-1.06-1.69-1.19-.71-.12-1.31-.44-1.81-.94-2.67-.17-4.99-.64-6.99-1.44-2-.79-4.2-1.69-6.62-2.68-.67-.25-1.31-.44-1.94-.56-.62-.12-1.23-.35-1.81-.69-1.5-.75-2.71-1.75-3.62-3-.92-1.25-1.64-2.64-2.18-4.18-.54-1.54-.94-3.14-1.19-4.81-.25-1.66-.5-3.2-.75-4.62.75-1.33,1.44-2.7,2.06-4.12.62-1.41,1.15-2.91,1.56-4.5.5-.25,1-.46,1.5-.62.5-.17,1.04-.37,1.62-.62-.08-.17-.13-.37-.13-.62,0-.42.14-.83.44-1.25.29-.42.35-.83.19-1.25,1.83-1.66,3.6-3.39,5.31-5.18,1.71-1.79,3.18-3.77,4.43-5.93,1.25-.42,2.25-1.04,3-1.87.75-.83,1.5-1.69,2.25-2.56s1.58-1.66,2.5-2.37c.92-.71,2.08-1.14,3.5-1.31.33-.58.79-1.06,1.37-1.44.58-.37,1.16-.73,1.75-1.06.58-.33,1.12-.71,1.62-1.12.5-.42.87-1,1.12-1.75,1.33,0,2.56-.25,3.68-.75,1.12-.5,2.23-1.04,3.31-1.62,1.08-.58,2.18-1.12,3.31-1.62,1.12-.5,2.35-.75,3.68-.75.33,0,.67.02,1,.06.33.04.71.11,1.12.19.58.58.98,1.27,1.19,2.06.21.79.35,1.64.44,2.56.08.92.14,1.83.19,2.75.04.92.19,1.75.44,2.5-.75,1.42-1.56,2.83-2.44,4.25-.87,1.42-2.02,2.5-3.43,3.25h-.25c-.58.08-1.12-.04-1.62-.37-.5-.33-1.08-.5-1.75-.5-.42,0-.75.12-1,.37l-.62.62c-.17.17-.4.33-.69.5-.29.17-.69.17-1.19,0-1.17.42-1.62,1.12-1.37,2.12-1.58.17-2.91.65-4,1.44-1.08.79-2.08,1.67-3,2.62-.92.96-1.83,1.83-2.75,2.62-.92.79-2,1.23-3.25,1.31-1.42,2.5-3.14,4.7-5.18,6.62-2.04,1.92-3.73,4.08-5.06,6.49.25.67.42,1.37.5,2.12.08.75.21,1.54.37,2.37.75,1,1.64,1.87,2.68,2.62,1.04.75,2.06,1.5,3.06,2.25h.37c1.66,0,3.2.31,4.62.94,1.41.62,2.91.94,4.49.94.83,0,1.54-.17,2.12-.5,2.16.5,4.31.92,6.43,1.25,2.12.33,4.26.58,6.43.75,1.08.17,2.18.25,3.31.25s2.18.12,3.18.37c.92.25,1.83.56,2.75.94.92.37,1.83.77,2.75,1.19,1.91.83,3.72,1.75,5.43,2.75,1.71,1,3.23,2.18,4.56,3.56,1.33,1.37,2.37,2.96,3.12,4.74.75,1.79,1.12,3.85,1.12,6.18Z"/>
    <path d="M1361.81,278.67c-.33.67-.69,1.21-1.06,1.62-.37.42-.71.85-1,1.31-.29.46-.5.98-.62,1.56-.12.58-.15,1.33-.06,2.25-.58,1-1.27,1.92-2.06,2.75-.79.83-1.58,1.64-2.37,2.43-.79.79-1.54,1.64-2.25,2.56-.71.92-1.27,1.92-1.69,3-1.92.58-3.31,1.6-4.18,3.06-.87,1.46-1.73,2.93-2.56,4.43-2.42.83-4.23,2.42-5.43,4.74-1.21,2.33-1.81,4.66-1.81,6.99-1.08,1.17-2.42,1.87-4,2.12-1.58.25-3.08.37-4.49.37-1,0-1.98-.02-2.93-.06-.96-.04-1.89-.1-2.81-.19-.5-.75-.85-1.54-1.06-2.37-.21-.83-.37-1.69-.5-2.56-.13-.87-.25-1.73-.37-2.56-.13-.83-.4-1.62-.81-2.37,4.75-4.5,9.3-9.11,13.67-13.86,4.37-4.74,8.64-9.66,12.8-14.73-.08-.25-.12-.62-.12-1.12,0-.58.1-1.1.31-1.56.21-.46.39-.89.56-1.31.17-.42.31-.87.44-1.37.13-.5.14-1.12.06-1.87,1.58-.67,3.16-1,4.75-1,2.41,0,4.45.73,6.12,2.19,1.66,1.46,2.83,3.31,3.5,5.56ZM1347.08,390.92c-.42.75-.85,1.44-1.31,2.06-.46.62-.9,1.27-1.31,1.94-.58.33-1.21.54-1.87.62-.67.08-1.33.15-2,.19-.67.04-1.27.12-1.81.25-.54.12-.94.35-1.19.69-.67-.17-1.19-.44-1.56-.81s-.98-.56-1.81-.56c-.42,0-.75.04-1,.12-1.42-1.16-2.75-2.45-4-3.87-1.25-1.41-2.46-2.79-3.62-4.12-.25-1.66-.52-3.22-.81-4.68-.29-1.46-.65-2.98-1.06-4.56-.17-.67-.4-1.37-.69-2.12-.29-.75-.48-1.46-.56-2.12-.17-.75-.25-1.5-.25-2.25v-2.37c0-2.41.08-4.81.25-7.18.17-2.37.25-4.76.25-7.18,0-2.16-.17-4.43-.5-6.8-.33-2.37-1-4.56-2-6.56l-.13-.5c0-.67.08-1.25.25-1.75.17-.5.25-1.08.25-1.75,0-.83-.29-1.41-.87-1.75.17-.67.52-1.14,1.06-1.44.54-.29.81-.85.81-1.69,0-.42-.04-.75-.12-1,.66-.33,1.33-.62,2-.87.67-.25,1.33-.37,2-.37,1,0,1.96.23,2.87.69.91.46,1.79.94,2.62,1.44,1.91,3.75,3.04,7.85,3.37,12.3.33,4.45.5,8.95.5,13.49s.21,8.97.62,13.3c.42,4.33,1.62,8.2,3.62,11.61h.25c.42.08.71-.06.87-.44.17-.37.46-.56.87-.56.17,0,.27.02.31.06.04.04.14.06.31.06.58,1.58,1.35,3.06,2.31,4.43.96,1.37,1.98,2.73,3.06,4.06Z"/>
    <path d="M1426.99,378.19c0,.92-.33,1.6-1,2.06-.67.46-1,1.06-1,1.81,0,.33.17.75.5,1.25-1.17,0-1.96.37-2.37,1.12-.42.75-.83,1.58-1.25,2.5h-1.62c-.42,0-.75.08-1,.25-.25.17-.48.4-.69.69-.21.29-.48.73-.81,1.31-1.58.33-3.1.85-4.56,1.56-1.46.71-2.87,1.46-4.25,2.25-1.37.79-2.77,1.58-4.18,2.37-1.42.79-2.87,1.44-4.37,1.94-.75,1.25-1.83,2.25-3.25,3h-.37c-.42.08-.77.02-1.06-.19-.29-.21-.65-.31-1.06-.31-.25,0-.42.04-.5.12-2.5,1.67-5.29,2.5-8.37,2.5-.83,0-1.62-.06-2.37-.19s-1.54-.19-2.37-.19c-.25,0-.42.08-.5.25l-.25.5c-.08.17-.19.33-.31.5-.12.17-.44.25-.94.25-.92,0-1.83-.12-2.75-.37-.92-.25-1.87-.29-2.87-.12-1.92-1.08-3.41-2.12-4.5-3.12-1.08-1-2.08-2.5-3-4.49-.42-.92-.98-1.79-1.69-2.62-.71-.83-1.23-1.75-1.56-2.75-.08-.33-.21-.94-.37-1.81-.17-.87-.33-1.81-.5-2.81-.17-1-.31-1.95-.44-2.87-.12-.91-.19-1.54-.19-1.87,0-1,.06-1.98.19-2.93.13-.96.27-1.94.44-2.93.5-3.16.85-6.35,1.06-9.55.21-3.2.89-6.31,2.06-9.3-.17-.92-.25-1.79-.25-2.62v-2.75c0-1.58-.21-2.91-.62-4,.67-1.08,1-2.29,1-3.62,0-1.5-.62-2.37-1.87-2.62v-.37c0-1.75-.58-3.12-1.75-4.12,0-2.91.73-5.1,2.18-6.56,1.46-1.46,3.39-2.73,5.81-3.81.33-.5.46-.92.37-1.25.58.17,1.12.33,1.62.5.5.17,1,.25,1.5.25.83,0,1.58-.12,2.25-.37.25,1,.89,1.6,1.94,1.81,1.04.21,1.89.48,2.56.81v1.62c0,2.58.62,5.04,1.87,7.37-.33.67-.54,1.37-.62,2.12-.08.75-.13,1.46-.13,2.12,0,1,.04,2,.13,3,.08,1,.12,1.96.12,2.87,0,1-.11,2-.31,3-.21,1-.69,1.87-1.44,2.62-.08,1.08-.15,2.31-.19,3.68-.04,1.37-.13,2.77-.25,4.18-.12,1.42-.35,2.79-.69,4.12-.33,1.33-.83,2.42-1.5,3.25-.08,1.25-.15,2.52-.19,3.81-.04,1.29-.06,2.52-.06,3.68,0,1.83.1,4,.31,6.49.21,2.5.77,4.58,1.69,6.24.42.67,1.23,1.17,2.44,1.5,1.21.33,2.18.5,2.93.5.92,0,1.85-.14,2.81-.44.96-.29,1.64-.81,2.06-1.56.5.08.83.33,1,.75.17.42.46.75.87,1,4.75-2,9.49-3.91,14.23-5.74,4.74-1.83,9.41-3.95,13.98-6.37.67.33,1.37.5,2.12.5.83,0,1.66-.08,2.5-.25.83-.17,1.66-.25,2.5-.25h.87c.17.5.25.87.25,1.12Z"/>
    <path d="M1453.09,393.17c-.42.67-.92,1.27-1.5,1.81-.58.54-1.12,1.1-1.62,1.69-.58.25-1.23.37-1.94.37s-1.37-.02-2-.06c-.62-.04-1.21-.04-1.75,0-.54.04-.98.23-1.31.56-.67-.17-1.17-.48-1.5-.94-.33-.46-.92-.73-1.75-.81-.33-.08-.67-.08-1,0-1.25-1.41-2.39-2.91-3.43-4.5-1.04-1.58-2.02-3.08-2.93-4.5-.08-3.08-.33-6.2-.75-9.36-.08-.75-.21-1.5-.37-2.25-.17-.75-.29-1.46-.37-2.12,0-.83.06-1.64.19-2.43.12-.79.23-1.52.31-2.19.33-2.41.71-4.79,1.12-7.12.42-2.33.79-4.7,1.12-7.12.33-2.16.5-4.43.5-6.8s-.37-4.6-1.12-6.68l-.13-.62c.17-.67.35-1.23.56-1.69.21-.46.35-.98.44-1.56.17-.92-.04-1.58-.62-2,.25-.67.67-1.1,1.25-1.31.58-.21.92-.69,1-1.44.08-.33.08-.67,0-1,.67-.25,1.35-.48,2.06-.69.71-.21,1.39-.23,2.06-.06,1.08.17,2.04.52,2.87,1.06.83.54,1.62,1.15,2.37,1.81,1.33,4,1.87,8.22,1.62,12.67-.25,4.45-.67,8.93-1.25,13.42-.58,4.5-.96,8.89-1.12,13.17-.17,4.29.5,8.26,2,11.92l.25.12c.42.08.75-.06,1-.44.25-.37.58-.52,1-.44.33.17.54.25.62.25.33,1.67.87,3.25,1.62,4.74.75,1.5,1.58,3,2.5,4.49Z"/>
    <path d="M1557.85,401.16c-.25,1.17-.77,2.1-1.56,2.81-.79.71-1.73,1.27-2.81,1.69-1.08.42-2.18.69-3.31.81s-2.14.19-3.06.19c-.42,0-.81-.02-1.19-.06-.37-.04-.77-.06-1.19-.06s-.62.21-.62.62-.21.71-.62.87c-.42-.17-.83-.29-1.25-.37-.42-.08-.83-.12-1.25-.12-.58,0-1.14.04-1.69.12-.54.08-1.06.12-1.56.12-.67,0-1.15-.08-1.44-.25-.29-.17-.54-.35-.75-.56-.21-.21-.42-.44-.62-.69-.21-.25-.52-.46-.94-.62-.58-.25-1.06-.29-1.44-.12-.37.17-.94-.08-1.69-.75-1-.83-1.85-1.85-2.56-3.06-.71-1.21-1.39-2.48-2.06-3.81-.67-1.33-1.37-2.66-2.12-4-.75-1.33-1.62-2.5-2.62-3.5h-1c-1.5,0-2.54.62-3.12,1.87-.42-.25-.83-.56-1.25-.94-.42-.37-.87-.69-1.37-.94-1.92.58-3.91,1.08-5.99,1.5-2.08.42-4.16.62-6.24.62h-1.75c-.5,0-1.04-.08-1.62-.25-.83.33-1.58.73-2.25,1.19-.67.46-1.42.69-2.25.69-.5,0-1.08-.17-1.75-.5-.5,0-.73.21-.69.62.04.42-.23.62-.81.62h-1.12c-1.17,0-2.31.04-3.43.12-1.12.08-2.27.12-3.43.12-1.58,0-3.21-.21-4.87-.62-.42.25-.87.37-1.37.37-.33.17-.58.44-.75.81-.17.37-.33.71-.5,1-.17.29-.4.54-.69.75-.29.21-.69.27-1.19.19-.17,1-.58,1.79-1.25,2.37-.67.58-1,1.46-1,2.62-.92.5-1.67,1.12-2.25,1.87-.58.75-1.17,1.54-1.75,2.37-.58.83-1.19,1.62-1.81,2.37-.62.75-1.39,1.33-2.31,1.75-.42.5-.54,1.29-.37,2.37-.92.75-2.04,1.41-3.37,2-1.33.58-2.58.87-3.75.87-2.41,0-4.08-1.29-4.99-3.87,0-.83.06-1.73.19-2.68.13-.96.31-1.87.56-2.75s.62-1.66,1.12-2.37c.5-.71,1.21-1.23,2.12-1.56,0-.75-.25-1.27-.75-1.56-.5-.29-.71-.81-.62-1.56,2.25-1.08,4.2-2.5,5.87-4.25,1.67-1.75,3.18-3.6,4.56-5.56,1.37-1.95,2.77-3.93,4.18-5.93,1.41-2,3-3.79,4.74-5.37v-2.62c2.5-2.66,4.12-5.66,4.87-8.99.92-.17,1.52-.58,1.81-1.25.29-.67.44-1.46.44-2.37.42,0,.69-.19.81-.56s.48-.48,1.06-.31c.75-2,1.58-3.83,2.5-5.49.92-1.66,1.83-3.35,2.75-5.06.92-1.71,1.73-3.47,2.44-5.31.71-1.83,1.23-3.87,1.56-6.12,1.16-.08,1.81-.64,1.94-1.69.13-1.04.27-1.98.44-2.81,1.25-1.16,2.18-2.54,2.81-4.12.62-1.58,1.19-3.22,1.69-4.93.5-1.71,1.06-3.41,1.69-5.12.62-1.71,1.52-3.22,2.68-4.56v-.37c0-.42-.17-.69-.5-.81-.33-.12-.5-.39-.5-.81.08-.08.13-.17.13-.25,1-.42,1.75-1.1,2.25-2.06.5-.96,1.25-1.64,2.25-2.06,1.75,1.42,3.29,2.27,4.62,2.56,1.33.29,3.08.52,5.24.69,1.08,1.17,1.69,2.56,1.81,4.18.13,1.62.39,3.23.81,4.81.66,2.66,1.39,5.27,2.18,7.8.79,2.54,1.39,5.14,1.81,7.8.25,1.58.71,3.08,1.37,4.49.66,1.42,1.12,2.87,1.37,4.37.17,1.17.17,2.48,0,3.93-.17,1.46,0,2.73.5,3.81l.87,2c.42.92.77,1.87,1.06,2.87.29,1,.56,2,.81,3,.66,2.5,1.27,5.18,1.81,8.05.54,2.87,1.39,5.47,2.56,7.8.42.83,1.06,1.42,1.94,1.75.87.33,1.85.56,2.93.69,1.08.12,2.14.17,3.18.12,1.04-.04,1.94-.06,2.68-.06h1.25c.5,0,1,.08,1.5.25.33.67.5,1.25.5,1.75,0,1-.33,1.79-1,2.37-.67.58-1,1.25-1,2,0,.42.17.87.5,1.37-.33-.08-.83-.12-1.5-.12-1.92,0-3.79.33-5.62,1,.66,1.42,1.56,2.6,2.68,3.56,1.12.96,2.31,1.85,3.56,2.68.83-.67,1.71-1,2.62-1,1,0,1.93.23,2.81.69.87.46,1.81.69,2.81.69.75,0,1.29-.12,1.62-.37.67.75,1.21,1.52,1.62,2.31.42.79.96,1.52,1.62,2.19ZM1518.76,381.18c-.17-1.41-.44-2.43-.81-3.06-.37-.62-.69-1.39-.94-2.31-.33-1.16-.56-2.41-.69-3.75-.12-1.33-.31-2.62-.56-3.87-.58-2.83-1.23-5.66-1.94-8.49-.71-2.83-1.6-5.58-2.68-8.24.33-.5.5-.96.5-1.37v-.37c-.75-.83-1.29-1.85-1.62-3.06-.33-1.21-.65-2.41-.94-3.62-.29-1.21-.67-2.33-1.12-3.37-.46-1.04-1.19-1.89-2.18-2.56-.25.5-.37,1.08-.37,1.75,0,.58.06,1.12.19,1.62.12.5.19,1.04.19,1.62-.83.42-1.44,1.06-1.81,1.94s-.98,1.56-1.81,2.06c-.67,2.67-1.62,5.18-2.87,7.55-1.25,2.37-2.56,4.73-3.93,7.05-1.37,2.33-2.68,4.68-3.93,7.05-1.25,2.37-2.25,4.85-3,7.43-1.08.75-1.81,1.71-2.18,2.87-.37,1.17-.56,2.33-.56,3.5.75.42,1.6.65,2.56.69.96.04,1.89.06,2.81.06s1.79.08,2.62.25c.83.17,1.58.58,2.25,1.25,1.08-.33,2.27-.56,3.56-.69,1.29-.12,2.35-.48,3.18-1.06,1.66.58,3.45.87,5.37.87,1,0,1.98-.08,2.93-.25.96-.17,1.89-.37,2.81-.62.75.17,1.33.44,1.75.81.42.37,1.04.52,1.87.44.42-.33.66-.69.75-1.06.08-.37.29-.73.62-1.06Z"/>
  </g>
  <g>
    <g>
      <path d="M523.8,209.48c-2.43,1.97-4.63,3.2-7.66,4.14-4.27,1.32-9.99,2.64-14.42,3.66-13.35,3.08-27.07,4.59-40.54,7.44-.48,5.02-.84,10.13-1.72,15.11-.9,5.08-2.39,10.2-3.42,15.17-.27,1.3-1,2.45-.96,3.81,3.03-1.17,5.93-3.26,8.69-4.62,1.36-.67,3.05-.66,4.55-1.48,1.38-.76,2.93-3.02,3.98-3.6,5.99-3.34,14.48-6.21,20.95-9.15,8.14-3.69,18.78-7.48,26.27-11.41,1-.52,2.88-2.73,3.27-2.86,1.49-.53,4.02-.34,5.67-.76,3.3-.83,5.32-3.27,7.91-4.15s5.99-.63,8.76-1.29c2.05-.49,4.44-1.93,6.51-2.53,5.4-1.57,16.89-4.93,22.26-4.91,2.23,0,14.54,2.55,16.81,3.33,1.02.35,3.21,2.31,4.52,3.02,1.19.65,3.26.93,4.02,1.51.95.71.8,2.35,1.75,3.27.89.87,3.87,1.7,5.54,3,3.76,2.93,5.69,6.48,5.31,11.31-.63,7.85-3.94,14.63-7.73,21.4-3.4,6.06-22.78,19.67-29.3,23.95-1.58,1.04-3.75,1.63-5.32,2.61-4.32,2.72-8.21,6.98-13.5,8.76-16.71,5.62-33.48,12.62-50.99,16.24-16.63,3.44-32.61,6.87-49.65,6.62-1-.01-2.41.96-3.32.3-1.65-1.17.83-3.77,1.23-5.28.16-.58-.22-1.32.02-2.04.91-2.76,4.03-.9,6-1.59.61-.21.65-1.03.97-1.27.95-.7,12.44-.48,14.66-.66,18.96-1.57,40.21-9.53,58.26-15.59,4.75-1.6,10.8-2.95,15.29-4.81,4.94-2.04,9.91-7.04,14.79-9.83,3.23-1.85,9.59-4.01,12.07-6.01,1.68-1.36,3.73-4.27,5.58-5.97,3.5-3.21,11.84-9.52,13.99-13.17.44-.75,3.4-8.68,3.4-9.19-.02-1.71-2.48-2.94-2.94-5.13-.58-2.8,1.41-6.5-.93-8.12-.49-.34-4.84-1.94-5.5-2.04-1.87-.28-3.27.48-4.51.41-.74-.04-2.27-1.11-3.62-1.32-15.01-2.29-33.98,2.7-48.26,7.25-20.96,6.69-42.85,15.14-61.55,26.87-1.55.97-2.79,3.09-4.86,2.93.78-3.04-2.91-.11-3.85.67-4.05,3.35-6.02,4.57-10.9,6.93-.54.26-.92,1.14-1.35,1.2-2.34.33-4.36-1.73-3.63-3.25l-.9-.25c-1.02-.56-.57-5.72-.47-7.05.44-6.12,2.3-12,2.95-17.65.31-2.66-.62-6.07,1.28-8.27.53-.61,1.7-.93,1.75-1.01.08-.12-.53-1.07-.45-1.67.1-.72.63-1.27.69-1.75.43-3.37-.25-7.04,2.44-8.64.38-2.05-.78-.5-1.12-1.74-.49-1.85,3.65-4.37,5.17-4.82,1.85-.55,3.41-.17,5.05-.47,12.39-2.26,24.43-5.03,36.55-8.16,4.85-1.25,8.02-1.27,13.13-2.94,2.21-.72,7.81-1.61,9.68-.42,1.21.77,1.63,4.44,1.63,5.96ZM599.76,237.2c-.04-.97.19-3.18-.99-3.51.03,1.2-.43,3.01.99,3.51ZM606.3,245.24c2.03-1.2.65-4.21.49-6.03-.88-.12-.47,1.14-.5,1.75-.06,1.42.03,2.86,0,4.28ZM600.77,257.81c-1.49-.08-2.59,1.02-2.51,2.51l2.51-2.51Z"/>
      <path d="M392.63,429.27c1.86,1.68.75,3.83,1.15,5.52.12.51,1.28.57,1.75,1.36,2.28,3.83-1.64,11.82-5.09,13.97-2.97,1.85-7.92,1.05-11.37,2.13-1.14-2.04-3.78-2.34-5.57-3.63-.59-.42-4.94-4.13-5.09-4.44-.42-.86-.16-2.05-.48-3.04-1.15-3.56-2.4-3.78.47-7.53,3.13-4.09,9.78-8.52,15.08-8.05.65.06,8.77,3.37,9.14,3.7ZM383.24,443.18c2.28-.16,1.67-2.05.25-3l-.25,3Z"/>
      <path d="M271.03,365.49c.48.33,1.7,1.81,1.88,2.43.28,1-.35,2.72-.19,2.9.14.15,1.96-.13,2.42,1.38.41,1.37-.35,2.35-.32,3.42.04,1.25.95,3.54.28,4.66-.14.24-1,.36-1.33.89-1.95,3.13.35,2.02-3.9,4.41-.29.16-.39.91-.68,1.08-.58.36-1.21-.2-1.67-.08-3.08.79-5.13,1.45-8.37.08-2.35-1-4.53-4.62-6.33-5.73-1.91-1.18-3.46.59-3.75-2.78l1.03-.78c-.26,0-.76.07-.89-.09-.34-.4.87-7.12,1.13-7.98.49-1.66,2.49-5.18,3.81-6.24,3.95-3.16,13.08-.19,16.88,2.42ZM264.17,372.84l-1.98.54c-.14,1.68,1.04,3.78,2.99,3.48l-1.01-4.02Z"/>
      <path d="M210.73,229.99c-.52,1.04-7.65,5.62-8.62,5.69-2.32.16-7.71-4.15-8.96-6.07-.98-1.51-1.14-3.15-1.81-4.62-.16-.35-1.12-.35-1.25-1.27-.17-1.23.06-8.51.27-9.85.64-3.97,6.7-5.21,10.13-4.16,4,1.23,6.29,3.16,8.33,6.74,1.89,3.32,3.69,10,1.91,13.54ZM204.89,223.14c-1-.92-2.23,2.99-2,3.51,1.93.47,3.1-2.5,2-3.51Z"/>
      <path d="M459.91,390.12c.12.07,2.15,1.55,2.23,1.66,2.64,3.29,1.44,10.19-1.58,12.93-.31.28-5.67,3.9-6,4.05-1.25.55-3.34.26-4.76,1.25-4.77-1.91-8.67-2.55-9.68-8.39-.89-5.15.9-8.91,5.24-11.6,2.97-1.84,11.45-1.59,14.55.11Z"/>
      <path d="M294.68,401.33c-2.85,2.3-11.36-1.64-13.03-4.5-3.01-5.13,1-12.07,6.98-12.39,3.86-.21,9.12,3.69,9.17,7.8.02,1.26-.69,2.01-.81,3.02-.08.71.47,1.58.36,2.42-.05.38-2.36,3.4-2.67,3.65Z"/>
      <path d="M474.79,367.2c-.23-.12-2.57-2.95-2.83-3.44-2.14-4.16-1.45-7.43,2.34-10.12,3.14-2.23,5.8-2.43,9.64-1.85,2.63.4,3.78,1.87,4.17,4.37.65,4.26-1.05,5.85-2.87,9.45-.79.61-1.34-.75-2.05-.58-1.18.28-3,2.52-4.3,2.67-.34.04-3.92-.39-4.1-.49ZM481.7,356.77c-1.55-1.01-3.21,2.81-1.74,3.01l2.25-.5c.15-.17-.4-2.44-.51-2.51Z"/>
      <path d="M267.69,332.15c-1.59.36-2.45-1.11-2.51-2.51,1.57-.23,2.74.91,2.51,2.51Z"/>
      <g>
        <path d="M591.08,367.68c-.18.28-4.45,3.91-5.01,4.28-4.39,2.91-10.99,3.92-16.09,2.79-3.84-.85-7.69-9.1-6.64-12.96.57-2.09,6.96-9.15,8.84-10.26.62-.37,6.34-2.65,6.86-2.69,5.38-.47,5.83,2.66,9.4,5.44,2.21,2.62,4.59,10.43,2.65,13.4ZM575.15,363.3c1.08.11,2.13-1,2-2l-2,2ZM581.09,363.72c.18-.28.31-1.74-.16-1.92-1.42.65-1.44.88-1.25,2.51.3-.19,1.37-.52,1.41-.59Z"/>
        <path d="M594.86,348.61c-.19-.13-1.92-3.82-2.01-4.26-1.3-6.09,7.8-11.17,13.08-10.07,1.82.38,4.37,2.59,4.36,4.58-.02,5.67-6.2,11.3-11.79,10.92-.26-.02-3.48-1.06-3.64-1.17Z"/>
      </g>
      <g>
        <path d="M262.46,83.79c-3.75,9.24-11.57,29.83-19.17,36.33-2.61,2.24-4.87,4.45-7.43,6.92-.24.24-1.06,0-1.37.44-.15.22-1.53,4.32-1.72,4.98-2.12,7.68-3.23,17.89-4.31,26.08-.21,1.61-2.17,5.94-.85,7.2,8.03,1.42,16.03,3.85,24.24,3.64,21.04,2.4,41.44,3.71,62.35,6.48,14.44,1.92,28.89,3.29,43.12,6.58,1.56-2.79,1.96-.33,3.57-.01,1.93.38,4.71-.25,6.77,0,.12-.71-.89-.73-1.39-.85-1.56-.39-3.51-.55-5.13-.65-1.32-.99,2.29-1.31,2.68-1.32,9.26-.13,19.41,3.54,28.72,3.82,4.97.15,9.9-1.28,14.82,0l-3.03-29.4c.27-2.84,3.24,1.5,3.53-.5.09-.61-.8-1.1-.92-1.62-.29-1.19,1.3-1.88-.61-2.42-.04-6.04,1.9-17.43.52-22.99-.26-1.04-.59.85-.5-2.59.07-2.51-.05-5.11-.42-7.58-.69-4.6-.28-4.17-.08-8.46.44-9.48-1.14-15.76-2.89-24.78-.51-2.63-2.32-9.53,1.15-10.17,3.23-.6,5.32,1.22,6.51,4.01,6.44-4.06,5,7.23,5.28,10.81,1.37,17.76,2.38,33.88,2.53,51.77.1,12.15.44,23.93,1,36.13.13,2.92-.14,5.89-.02,8.81.46.46,5.64-1.01,6.81-1.02,9.19-.1,18.31.06,27.6-.99,5.32-.6,11.61-2.6,16.66-2.84,3.59-.17,7.53.58,11.47.31,5.7-.39,9.89-2.31,15.14-2.94,12.54-1.51,25.08.04,37.51-2.69,6.3-1.38,14.57-5.39,20.33-6.29,2.43-.38,4.92.12,7.35-.18,12.8-1.58,23.68-5.22,35.88-7.82,7.8-1.66,16-2.45,23.89-3.64,1.21-4.14,3.09-1.46,4-1.6.45-.07.79-.92,1.59-.95.32-.01.2.78.37.88.54.33,3.96-.38,4.93-.6.33-.08,1.52-.29.73-.77h-3.76c2.12-1.04,5.15-2.26,7.5-2.78,1.45-.32,2.83-.06,4.17-.35,31.28-6.67,60.5-15.93,91.12-24.43,14.57-4.04,30.17-9.1,44.24-14.54.75-.29,1.4-1.18,2.16-1.4.63-.19,6.63-.32,7.29-.2,3.25.59-.21,2.66-.26,2.86-.32,1.3.05,3.59.37,4.95l-.33.46c-1.19.64-2.72.59-3.9,1.15-5.65,2.71-11.07,5.6-16.95,6.66-.87.16-7.97,2.51-8.35,2.75-.93.57-.11,2.29-3.47,1.39-1.49.7-1.11,1.02-1.25,1.61-.39,1.57-5.4.95-7.04,1.28-1.11.22-1.48,1.27-2.08,1.38-4.5.77-7.5.87-12.26,2.88-2.09.88-2.82,2.41-6.05,2l-1.48.77c-1.32.49-2.79.34-4.12.65s-7.42,2.49-8.41,3.15c-3.11,2.07-5.52,2.29-9.2,3.86-5.03,2.13-10.55,1.89-16.33,3.26-14.38,3.41-25.82,10.03-40.62,12.17-16.06,2.32-29.79,5.85-45.49,10.23-19.32,5.38-37.9,6.49-57.48,9.89-2.58.45-6.2,1.08-8.91.98-.51-.02-1.17.03-1.36.22,0,.59-.55.66-.93,1.11-.77.92-10.47,2.59-12.52,3.07-25.23,5.94-53.75,8.23-79.74,7.72-4.02-.08-9.07-1.04-13.04-1.07-.88,0-5.25.56-5.56,1.01-.32.73-.28,1.53-.25,2.3.36,10.48,2.18,21.57,2.57,32.12,1.3,35.33-2.47,71.41-1.05,106.55.5,12.36,3.67,24.74,3.56,37.18-.01,1.51-1.01,2.95-.06,4.42.51.78,5.93,1.29,7.3,1.36,7.99.44,15.94-.55,23.88-1.03l-1.01-2.25c2.95-2.36,6.7-.63,10.3-.77,7.93-.32,12.42-2.64,19.44-4.67,10.84-3.13,26.45-5.9,36.24-10.99.81-.42,7.4-5.04,7.64-5.44.69-1.14-.66-2.25.18-3.29.89-1.11,1.67-.23,2.71-.34,1.89-.2,2.85-3.76,3.87-5.16,2.91-4,6.35-8.32,7.79-13.31.58-2,.6-5.05,1.52-7.02.47-1.01,2.21-1.69,2.62-2.9.49-1.44.21-3.34,1.02-5.01s5.32-5.31,6.65-7.04c1.53-1.99,1.26-3.82,4.03-5.88,2.85-2.12,4.01-3.46,6.53-5.53,2.36-1.94,6.62-3.1,8.47-5.1.78-.84,1.04-2.2,1.77-2.75.89-.68,2.68-.7,4.05-1.48.91-.51,4.44-3.42,5.3-4.25,1.36-1.31,3.87-6.69,5-2.78,1.59.39.85-1.87,2.5-1.5-.23,1.37.32,3.49.03,4.69-.17.68-1.45.43-1.91.96-1.58,1.85-2.56,5.36-3.24,6.3-.31.43-1.44.32-1.81.68-.25.25-2.32,5.34-2.87,6.45-4.19,8.51-10.09,15.48-15.62,23.31-.87,1.23-1.47,3.46-2.37,4.68-2.31,3.14-8.37,8.49-11.41,11.44-2.79,2.71-5.79,4.79-8.3,7.27-1.43,1.42-2.05,3.28-3.74,4.54,6.12-1.56,11.94-5.11,17.25-8.62,22.39-14.79,44.34-27.17,64.89-45.13,2.69-2.35,5.62-6.22,8.56-8.53,1.56-1.23,3.73-1.87,5.08-3.21,1.13-1.13,2.01-3.97,2.31-4.22.51-.43,2.38-.49,3.37-1.4,1.14-1.04,2.05-3.88,3.27-5.27,1.6-1.83,4.39-3.17,6.08-5,.26-.59-1.18-1.48-1.23-2.74-.18-4.85,3.11-18.74,5.08-23.52,1.31-3.19,3.89-5.9,3.4-9.41.59-.51.4,2,1.24.49.69-1.22.98-2.86,1.85-4.18.75-1.14,1.91-1.83,2.65-2.88,4.88-6.98,8.68-10.37,14.2-16.2,3.26-3.44,6.1-9.47,12-6.93,1.1,1.03.73,2.29.48,3.59-1.2,6.1-5.15,12.34-7.67,17.95-3.1,6.91-6.39,16.01-10.26,22.39-1.03,1.69-3.45,3.68-4.66,5.39-4.49,6.35-8.97,12.7-13.87,18.68-1.38,1.69-4.32,4.96-6.52,4.39l-.03,2.99-1.47.52c2.15.69,1.93-.89,2.49-1.24,1.67-1.06,3.23.44,2.31,2.29-.44.59-2.26.45-3.18.84-1.02.44-1.51,1.67-2.52,2.03-.61.22-1.52-.07-2.02.22-.32.18-.64,1.55-1.1,2.02-2.85,2.93-6.14,5.9-8.9,8.58-4.34,4.21-8.84,8.23-13.22,12.39,4.03.03,6.84-3.35,9.93-4.89,5.29-2.64,11.97-4.68,17.14-7.47,7.55-4.07,14.48-9.3,23.15-11.51,6.32-1.61,11.25-1.37,17.32-1.76,2.38-.15,4.58-1.92,8.08-1.5,1.08.13,8.59,3.26,9.64,3.93,1.11.71,2.79,2.22,1.03,3.27-2.46,1.47-6.07,2.78-8.92,2.37l.5,2c-1.73.48-3.77,1.13-5.36,1.92-1.75.87-4.01,2.8-5.55,3.49-2.48,1.11-6.15,1.06-8.69,1.86-1.67.53-2.62,2-4,2.53-1.55.59-4.01.41-5.43,1.11-.89.44-1.06,1.63-1.44,1.68-1.65.23-2.81-1.9-4.49,1.44l-2.38-.86c-6.43.9-14.42,3.48-20.7,3.93-2.11.15-5.17-.41-7.46-.09l-.83-1.94c-2.06-.26-3.35,1.59-4.87,2.39-6.28,3.27-15.98,7.56-21.24,11.92-.99.82-3.38,4.02-3.61,4.16-1.15.67-2.75-.27-3.69-.32-.24-.01-.22.79-.59.9-8.41,2.59-9.7,6.55-16.6,9.94-5.45,2.67-9.68,4.58-14.8,8.17-7.68,5.38-14.6,7.76-23.49,11.31-2.94,1.17-4.13.82-6.98,3.07-4.36,3.45-8.61,6.95-14.51,9.11-4.23,1.54-9.6,2.02-13.66,3.43-2.35.82-4.86,3.25-8.02,4.03-3.66.9-9.8.67-13.1,2.98-.81.56-.29.92.37,1.15,2.5.87,5.3.34,7.81.73,6.34,1,13.14,2.95,19.59,4.02,1.97.33,4.17,2.06,6.29,2.75,6.11,2,10.77,3.42,16.62,6.49,3.92,2.06,11.87,6.06,15.09,8.52,2.35,1.79,2.78,2.09,5.32,3.72,1.05.67,2.67,3.3,2.86,3.41.68.38,2.23-.07,3.56.61,1.62.83,3.8,5.59,6.88,5.53l-2.89,1.9c-1.95.55-2.73-.9-2.89-.89-.38,0-.8,1.47-1.26,1.75-.53.32-4.37.79-5.26.8-6.39.04-12.12-3.62-18.12-5.54-2.98-.95-6.53-1.27-9.66-2.4-8.17-2.96-14.45-7.36-21.36-12.05-3.42-2.32-6.42-3.8-9.64-6.18-2.36-1.74-4.88-2.65-6.77-4.77.75-1.08,1.69-1.39,3.01-1.26.16-.11-.26-.6-.5-.75-3.72-2.4-11.15-2.18-15.32-2.76-2.63-.37-8.59-2.13-10.55-2.04-2.37.11-6.4,2.25-9.56,2.54-4.07.37-8.64-.42-12.56-.22-4.76.25-9.45,1.59-14.58,1.47-3.04-.07-6.92-1.83-10.22-.17.15,5.36.09,10.93.41,16.28.25,4.06.57,9.03,1.03,13.03.28,2.41.91,5.7,1.72,7.83,1.05.95,12.03,3.15,14.15,3.43,1.97.26,10.76,1.08,12.34.79.95-.17.83-1.13,1.27-1.23,3.37-.79,5.72,3.14,9.84,2,.63-.17.69-2.18,3.61-2.05,2.47.11,2.93,2.4,6.49,2.01,1.9-.21,5.97-2.49,7.09-2.45.36.01,4.74,1.7,3.76,2.48l-3.78.73c-.55,1.76.46,1.47,2.06,1.61,1.9.16,4.67-.71,5.24,1.43-.43,1.84-10.68,2.2-12.59,1.01-.39-.25.09-1.22-2.96-1.25-1.61-.01-2.55.19-3.85.45-4.6.92-9.14,1.08-13.55,1.52-1.11.11-2.37.13-3.49.06-2.64-.16-4.77-.24-7.61-.33-1.34-.04-2.53.98-3.75-.42-.56-.64.4-.85-1.05-1.44-1.7-.12.93,1.29-1.15,1.18-4.41-.24-8.22-4.41-12.35-3.8-.67.46-.32,8.88-.49,10.55-.55,5.28.12,9.17.02,14.59-.11,5.48-2.36,8.74-2,14.57.1,1.65,1.86,8.14.67,8.84l-3.4.91-.79-2.47c-2.62.82-4.94,1.55-6.54-1.24l-.5-47.99c-1.49.58-2.92-.66-3.76-.76-5.12-.61-3.45-.42-7.96-2.34-5.5-2.35-5.75-1.36-11.06-1.61-7.55-.35-15.72-2.94-23.71-2.35-3.2.24-5.42,1.64-8.06,1.99-2.81.38-9.3-.91-11.25.8-.63.56-.66,1.49-1.2,2.07-1.98,2.11-7.79,7.79-9.99,9.34-1.8,1.27-19.39,10-20.94,10.19-.86.11-1.31-.62-1.77-.59-.35.02-1.58,1.12-2.49,1.37-8.99,2.48-16.75,4.4-26.01,5.09-2.76.2-6.76,2.53-8.69,2.91-3.61.71-7.97.05-11.58.97-4.67-1.64,3.29-5.4,5.05-7,2.91-2.65,6.57-7.55,9.32-9.76,2.96-2.38,10.26-4.79,13.98-6.61,6.31-3.09,10-5.23,17.03-7.59,4.6-1.54,9.28-3.26,13.83-4.75,5.49-1.8,13.96-.75,19.62-.94,1.94-.07,4.55-1.29,6.61-1.37,4.86-.2,10.74.88,15.57.4,2.43-.24,4.8-1.51,7.29-1.51-1.73-2.56-5.87-1.91-7.93-2.87-.8-.37-.91-1.33-1.5-1.63-4.32-2.27-13.25-2.84-16.45-5.53-1.21-1.01-1.6-2.56-3.08-3.45-2.1-1.27-4.87-.97-6.57-1.73-1.23-.55-4.31-4.86-6.19-5.61-2.7-1.07-4.59-.44-7.69-2.86-1.62-1.27-2.09-2.95-3.05-3.99-2.55-2.77-8-5.08-11.61-8-4.79-3.88-9.81-8.8-14.54-13.07-2.45-2.21-8.72-8.02-10.5-10.58-4.73-6.79-10.69-12.79-15.03-19.59-.34-.54-.52-.73-.36-1.46,2.7-.57,2.56,2.02,4.02,3.76,1.22,1.46,4.13,3.48,5.22,4.83.73.91,2.08,3.95,2.95,4.84.26.26,1.73.47,2.64,1.14,2.15,1.59,2.67,3.86,4.53,5.52,4.8,4.29,12.38,9.52,17.71,13.08,1.63,1.09,3.65,2.8,5.18,3.72,1.29.77,5.62,2.13,6.37,2.93.54.58.44,1.9,1.37,2.91,1.3,1.42,5.94,3.74,8.07,5.49,4.89,4.02,13.29,10.12,19.46,12.19,2.89.97,6.68.95,9.55,2,2.71.99,5.09,3.61,7.7,4.86,3.55,1.7,8.32,2.69,12.23,4.35,5.77,2.44,12.55,6.22,18.5,8.13,4.05,1.3,5.64,1.21,10.04,3.03,1.51.62,9.42,3.9,10.17,3.14-.19-4.24-.82-8.56-1.03-12.79-.33-6.74.27-15.13-.47-21.63-.09-.76-.32-2.11-1.01-2.51-.34-.2-6.72-1.12-7.8-1.24-15.14-1.67-29.58-4.59-44.23-8.52-2.74-.74-13.37-3.11-14.97-4.52-.49-.44-.1-1.12-.68-1.54-1.56-1.13-8.05-3.74-9.88-3.49-.36.05-.27.89-.65.98-3.02.77-5.13-3.52-7.73-4.27-1.42-.41-1.96.79-3.97-1.04-1.21-1.09.11-.45-.05-.91-1.26-1.33-1.76-1.26-1.99-.32-1.74-.09-2.43-.69-1.95-2.46,1.9-.49,3.87-.9,5.78-.14,1.03.41.91,1.28,1.72,1.82,5.52,3.7,14.54,5.83,21.09,8.57,18.44,7.71,37.64,10.5,57.52,12.82,1.51.18,7.4,2.01,8.07,1.03.31-.45.27-1.22.27-1.78-.05-5.74-1.27-12.3-1.5-18.14-.65-16.74.79-33.52-.03-50.2-.61-12.23-3.21-23.88-3.56-36.13-.14-4.8.99-7.63.55-12.1-.85-8.73-2.16-23.21-.92-31.51.14-.96,1.06-1.86,1.14-3.11.29-4.2-1.64-9.53-1.27-13.09.15-1.5,1.39-2.77,1.39-3.01,0-.47-1.75-1.69-1.38-3.44.08-.36.91-.28,1.01-.67.89-3.64-.72-8.15-1.54-11.67-1.43-.41-2.83.4-4.17.41-19.41.02-39-5.56-58.33-3.57-13.03-1.78-26.07-2-39.06-4.55-3.17-.62-7.01-2.46-10.23-2.83-9.24-1.08-18.42-.89-27.57-1.57-11.18-.83-23.12-4-34.68-4.51-1.38-.06-4.71-.28-5.77.24-2.11,1.03-.6,9.28-.6,11.56,0,15.9,1.77,31.49,3.57,47.28.36,3.19.04,6.63.6,9.95.66,3.89,2.77,7.8,2.97,11.85l.61-4.15c1.86-2.02-.14-3.38-.09-4.64.02-.58,1.58-4.07,1.88-5.14,2.07-7.59,4.49-15.76,7.4-23.24.75-1.94,3.8-6.73,3.28-8.72-.14-.53-.5,0,0-1.32,1.92.15,2.17-2.64,3.08-4.19,2.05-3.52,2.94-7.47,5.11-10.99,1.03-1.67,2.84-3.06,3.79-5.23.48-1.09.87-4.59,1.07-4.72.16-.11.96.43,1.5.22.4-.15.79-.89,1.36-1.11,5.29-2,4.81.63,5.3,4.52.35,2.81.13,1.98,0,4.21-.06,1.06.56,1.76.16,3.25-.32,1.18-1.59.95-1.82,2.2-.24,1.33.17,2.99-.05,4.47-1.11,7.38-8.12,22.56-13.21,27.97-4.02,4.27-7.07,3.99-9.89,10.12-2.4,5.22-5.44,16.37-5.96,22.29-.31,3.5,1.6,10.81,1.07,13.08-.17.71.29,1.42-.83,1.2-1.68-.67-1.74-3.24-2.38-3.91-.49-.51-1.63-.16-2.07-1.22-.96-2.37-.59-7.31-1.8-10.23-1.63-3.93-4.23-4.09-5-10.07-.73-5.66-2.27-13.18-2.57-18.54-.7-12.54-1.56-25.53-1.56-38.17,0-6.3,1.29-12.9-.45-19.1-6.73-1.92-12.68-4.83-19.58-6.55-8.82-2.19-19.77-3.83-28.27-6.4-3.47-1.05-3.86-1.21-7.62-1.92-7.09-1.35-12.24-4.07-18.67-5.95-8.9-2.6-20.23-3.68-29.13-6.54-8.36-2.68-16.59-7.21-24.75-10.41-13.82-5.43-29-9.13-40.78-18.49l2-1.27c.67-1-2.99-2.49-1.79-4.04.49-.63,3.57-1.08,4.42-.87.39.09,2.93,1.61,3.57,1.99,3.31,1.96,13.4,7.42,16.9,8.21,3.93.89,4.74-.24,8.93,2.1,8.91,4.98,13.92,4.45,22.65,7.52,3.81,1.34,5.25,2.67,9.94,3.62,4.84.98,5.53,1.89,9.75,3.32,22.92,7.77,48.3,12.3,71.72,18.16,5.66,1.42,11.2,4.03,17.19,3.71.46-2.91-1.12-5.61-1.46-8.34-.4-3.21-.05-7.19-.61-10.45-.44-2.59-1.97-4.82-2.35-6.69-.35-1.76.46-4.37-1.64-5.37-.84-.4-1.71-.21-2.48-.56-1.4-.63-7.4-5.49-8.15-6.92-.79-1.5-.4-2.84-.79-3.73-.44-1.03-1.57-1.49-2-2.54-.76-1.87-.74-7.58-3.02-8.56-.42-.18-1.26.05-1.54-.19-.21-.17-.25-1.45-.59-2.08-.16-.3-.93-.29-1.01-.69-.26-1.25.48-2.42.35-3.34-.8-5.62-3.83-10.3-5.64-15.89-.3-.93-1.53-.76-1.22-3.24.53-4.2,4.26-1.42,6.28.19,7.61,6.08,16.12,20.63,19.98,29.75,3.73,8.8,6.55,18.81,8.66,28.51.81,3.74.33,8.16,2.49,11.59,1.39-5.03,3.28-9.02,3.81-14.32.08-.81-.52-1.75-.41-2.44.14-.87,2.35-4.52,2.73-5.75.95-3.02,1.21-5.82,2.45-9.1.76-2,.45-1.44.84-3.18.83-3.68,1.07-2.84,2.82-5.22s3.61-11.38,3.06-14.67l1.09-.71c1.08-2.91,2.5-5.07,3.72-7.9,3.19-7.42,7.17-14.34,10.99-21.66,1.1-2.12,3.26-8.94,5.21-9.88.59-.28,1.52-.4,2.19-.36,4.5.95,1.04,12.22,1.94,15.56-.89,3.36.74,5.06-.71,8.61ZM65.6,123.3l-8.41-3.65c-.09.82.31,1.49.87,2.03,1.36,1.29,9.66,5.44,11.55,5.9.48.12,1.78.49,1.64-.39-1.24-.54-3.54-.98-4.52-1.76s-.76-1.7-1.13-2.13ZM82.31,132.2c-1.65-3.1-5.17-3.2-8.04-4.51,1.93,2.64,4.8,4.26,8.04,4.51ZM93.36,134.21c-.3-1.13-1.57-1.07-2.51-.99-.62.29,1.81,1.25,2.51.99ZM104.41,137.24c-.17-.21-4.81-2.19-5.02-2.02-.91.75.66,1.09.98,1.26,1.23.66,2.69.85,3.8,1.75.43.07.29-.93.24-.99ZM111.45,140.74c-1.14-1.66-4.14-2-6.03-2.5.24.69,2,1.34,2.67,1.59,1.05.39,2.23.79,3.36.91ZM123.5,149.29c1.29-1.28-5.27-3.07-6.02-3.01,1.28,1.8,4.17,1.96,6.02,3.01ZM665.07,154.82c-3.94.89-8.66,1.66-12.46,2.86-.92.29-2.25.63-2.61,1.65,4.14-.39,9.64-1.74,13.45-3.37.62-.27,1.48-.27,1.62-1.14ZM188.81,163.36c-5.31-1.24-10.5-3.57-16.07-3.02-.12.71.89.73,1.39.86,3.37.82,9.76,2.57,12.91,2.67.56.02,1.91.32,1.77-.52ZM197.36,163.85c-.82-1.69-2.94-1.58-4.52-1.5-.04.61,1.66.95,2.17,1.09.77.2,1.45.61,2.35.41ZM600.77,162.35c-.97.02-3.18-.19-3.51.99.97-.02,3.18.19,3.51-.99ZM569.12,169.89c-2.16-.96-4.51,1.38-5.87,1.4-.67,0-1.36-.85-2.42-.95-1.9-.17-9.05,1.36-10.92,2.19-.58.26-1.24.71-1.39,1.37,5.18-.85,10.52-1.18,15.68-2.14,1.54-.29,4.08-.44,4.91-1.86ZM576.65,170.39c-1.04.06-3.37-.1-3.01,1.5.93-.23,3.4.04,3.01-1.5ZM235.04,174.41c-3.04-.24-6.01-2.2-9.04-1,1.2,2.41,4.67,1.65,6.78,1.6,1-.02,2.59,1.26,2.27-.6ZM295.32,179.43c-.17-2.64-2.5-1.32-3.7-1.53-1.1-.2-2.07-.83-3.12-.94-2.48-.27-5.84-.37-8.25-.03.26.77,2.53.91,3.27.99,3.9.44,8.16-.08,11.8,1.51ZM456.08,187.98l-8.79-.51c-1.28,2.77,5.3,2.34,7.28,3.02l.03-1.99,1.48-.52ZM349.08,189.97c-.86-1.75-3.47-.78-5.02-.99l5.02.99ZM396.8,188.98c-.82-.39-3.7.67-3.01.99.75.33,3.72-.66,3.01-.99ZM477.18,190.99c-4.12-1.4-8.94-1.59-13.18-.47-.42.11-.37.87-.73.95-.81.19-2.61-.49-2.66.51h7.27s9.3-.99,9.3-.99ZM480.2,191.48c-.46-1.22-1.23-1.34-2.01-.24l2.01.24ZM681.66,212.59c-.2.15-2.87,4.55-1.26,4.51l2.72-3.31c.2-.77-1.02-1.52-1.45-1.2ZM677.63,234.19l.5-2.51c-1.43.53-2.45,2.86-.5,2.51ZM409.36,233.69c-.13-.17-1.04-.5-.86.64.21,1.32-.32,2.51.61,3.38l.25-4.01ZM674.95,238.57c.21-.65.22-1.2.16-1.86-.98.31-1.28,1.41-1.49,2.28-.41,1.69,1.3-.35,1.33-.42ZM671.6,245.74c.15-.16.63-2.24.5-2.51-.67-.28-1.19,2.09-1,2.51.16-.03.43.07.49,0ZM418.9,259.81v-3.51h-.49v3.51h.49ZM410.36,273.37c-.03-1.42.06-2.85,0-4.27-.03-.61.38-1.87-.5-1.75.03,1.42-.06,2.85,0,4.27.03.61-.38,1.87.5,1.75ZM417.9,273.12c-.24,2.48.18,5.27,0,7.79l1.03-7.76-.28-2.79c-.14,0-.73,2.52-.75,2.77ZM639.46,306.53l-.25-2.51c-1.89,1.62-5.33.65-6.79,3.01l7.04-.5ZM606.3,319.6l-3.51,2c1.43.1,2.9-.7,3.51-2ZM543.5,340.69c1-.27,1.13-1.07.99-2.01-1,.27-1.13,1.07-.99,2.01ZM318.43,378.87l-4.54-4.75-2.49-.77c1.37,2.46,4.35,4.77,7.03,5.52ZM512.35,390.43c.22-1.17-.54-1.12-1.28-1.48-.42-.2-3.79-1.55-3.73-.27.03.73,4.14,1.57,5.01,1.76ZM557.39,409.18c-.72-.66-1.81-1.27-2.84-1.17-.13,1.57,1.87,1.71,2.77,2.5,1.36.32.25-1.16.07-1.33ZM329.48,422.59l-5.52,2c1.78.12,4.35-.5,5.52-2ZM323.45,424.6c-1.1-.03-2.62-.28-3.01.99.74.33,3.72-.66,3.01-.99ZM296.32,433.64c-.68-.59-3.62,1.75-4.02,2.5.58.11,5-1.65,4.02-2.5ZM324.46,434.64c-.6-.27-3.48,1.14-3.01,1.5,1.11.06,2.58-.37,3.01-1.5ZM283.26,440.17c-1.91-.13-2.08.38-1.5,2.01.2.21,1.91-1.36,1.5-2.01ZM417.4,469.81c-.16-1.42.67-3.77-.99-4.52.16,1.42-.67,3.77.99,4.52ZM419.41,470.81c-1.24-.13-2.64-.04-2.51,1.5,1.24.13,2.64.04,2.51-1.5Z"/>
        <path d="M354.77,254.97c-.89.73-2.47,4.46-3.22,5.2-3.63,3.57-2.98,2.54-6.06,7.06-3.83,5.6-9.34,8.49-14.21,12.52-.85.7-1.51,2.32-2.3,2.68-1.22.55-4.6-.89-5.91,1.72,10.09.43,20.25.62,30.27,2.05,2.9.42,6.97.93,9.7,1.66,2.65.7,6.15,3.22,8.23,3.64,3.26.66,6.11-.46,9.38,1.92.85.62.91,1.49,1.95,2.06,4.89,2.71,6.57,1.11,12.01,5.8,1.02.88,2.64.45,2.23,2.77-.5,2.83-2.35,2.26-4.37,3.07-1.41.57-.91,1.52-3.49,1.34-4.75-.33-10.99-4.24-15.58-5.21-2.49-.52-5.04,0-7.54-.35s-4.16-1.67-6.18-2.22c-11.68-3.17-22.51-4.57-34.44-6.05-2.96-.37-6.52-.21-9.56-.55l5.42-1.48c-2.07-.37-4.6-.82-6.69-.54-.92.12-.64.93-1.04,1.02-6.04,1.38-6.39,2.45-11.55,5.18-5.87,3.1-7.88,4.77-13.1,8.17-3.62,2.36-9.36,3.73-13.42,5.86-5.62,2.94-9.57,7.55-15.71,9.02-8.64,2.06-16.72,5.49-25.37,7.73-8.11,2.11-16.18,3.92-24.83,2.84-1.32-.16-2.25-1.02-3.42-1.03-1.08,0-2.02.62-3.41.5-5.57-.48-8.71-4.95-6.99-10.45.39-1.26,1.79-1.94,2.44-3.01.86-1.41,1.52-3.43,2.48-4.73,1.59-2.15,8.19-4.5,10.41-6.14,1.1-.82,2.86-3.53,4.3-4.35,1.17-.67,1.33-.29,3.22-1.62,4-2.83,13.36-5.88,18.33-7.24,1.84-.5,4.05.14,5.72-1.19.52-.42.69-1.32,1.25-1.73,2.57-1.88,17.41-4.54,20.9-4.23,1,.09,1.59.96,2.85.87,5.8-.38,11.87-3.91,16.41-4.37,3.55-.37,7.35,1.06,10.86,1.03,4.97-.04,10.63-.99,15.67-1.14,3.08-1.77,5.62-4.32,8.57-6.27s6.53-3.35,9.21-5.13c8.99-5.96,20.62-19,25.36-28.62.84-1.7,2.32-1.94,2.09-4.61-3.53.69-2.29-3.22-3.6-4.84-.5-.62-2.43-1.25-3.27-1.94-1.51-1.24-2.69-4.08-4.5-4.89-.68-.31-2.87-.61-3.75-.69-4.91-.48-12.87.89-17.56,2.55-1.76.62-3.33,2.24-5.03,2.88-12.47,4.7-19.03,8.19-29.37,17.62-2.68,2.45-5.68,4.63-7.37,7.36-.59.96-4.12,3.01-4.79,4.75-3.03.56-2.92-1.06-2.14-3.4-1.99-.38-3.32,2.18-4.99.26-.61-.71,1.09-1.15-2.2-1.71-.56-.76.2-2.98.75-3.66s1.45-.59,1.97-1.12c1.73-1.76,3.46-4.23,4.99-5.91,1.05-1.15,2.74-1.04,3.69-1.74,3.37-2.5,6.86-6.86,10.05-9.73,7.67-6.9,10.12-6.38,19.11-9.58,5.68-2.02,11.58-7.37,17.28-8.43,2.66-.49,10.97-.9,13.64-.55s5.55,1.19,8.35,1.62c5.73.9,4.1,1.07,8.05,3.72.99.66,5.14,2.19,5.37,2.54.37.58.14,1.68.5,2.48.77,1.74,3.59,3.28,4.15,6.76.51,3.22-1.35,14.54-2.83,17.47-.52,1.02-2.24,3.2-3.26,3.67-1.38.63-3.11.29-4.1,1.1ZM280.6,255.27l-.18-1.93c-.76,1.63-3.27.83-2.71,2.98l2.89-1.05ZM291.02,294.6c-1.81.14-3.75.31-5.54.63-14.01,2.51-27.35,7.42-41.1,10.28-.47.1-1.83.37-1.69-.46l.49-.75c4.08-1.67,8.8-2.93,13.18-4.11,1.8-.48,4.69-.05,6.05-2.1-5.57.27-11.27,2.72-16.65,4.34-1.09.33-3.08-.05-3.77,1.12-.14.24.21.87.13.93-.52.44-7.17,2.18-8.99,3.11-2.79,1.42-4.94,3.66-7.86,5-3.82,1.74-7.61,2.15-11.53,4.29-3.43,1.87-3.47,2.16-5.35,5.05-.34.52-1.36.25-1.21,1.01,3.69-.41,7.94-.42,11.54-1.03,3.9-.66,8.2-2.35,12.45-2.75,1.01-.1,1.9.55,3.25.21,2.01-.52,5.19-3.18,6.99-3.91,5.94-2.42,13.89-4.53,20.01-6.68,8.52-2.99,14.08-5.35,21.87-9.77,2.57-1.46,5.98-1.95,7.73-4.38ZM273.26,295.09h-1.47v.99h1.47v-.99ZM238.25,297.07s.18-1.05-.24-.98l-5.18,2.47c.82-.06,5.18-1.24,5.42-1.49ZM226.91,300.56h-1.97s0,.99,0,.99c.27.27,2.56-.72,1.97-.99ZM223.46,303.53c-.7-3.76-5.82,1.31-6.9,2.98l6.9-2.98Z"/>
      </g>
    </g>
    <g>
      <path d="M587.74,439.06c-1.03,0-2.4-.41-3.1-2.38-.01-.57.02-1.1.09-1.65.07-.56.18-1.1.33-1.61.15-.52.38-1.01.68-1.43.24-.34.57-.62.96-.82l.23-.12-.15-.3-.18-.16c-.26-.15-.56-.48-.49-1.15,0-.09.06-.17.15-.21,1.25-.6,2.35-1.4,3.27-2.37.94-.98,1.8-2.04,2.58-3.14l2.39-3.39c.77-1.08,1.63-2.07,2.57-2.95l.08-.08v-1.38c0-.07.03-.13.07-.18,1.39-1.48,2.3-3.16,2.71-5.01.02-.1.1-.18.21-.2.43-.08.71-.26.84-.56.15-.35.23-.77.23-1.25,0-.14.12-.26.26-.26h.2l.05-.2c.05-.19.24-.33.49-.34h.17s.06-.17.06-.17c.39-1,.83-1.94,1.3-2.79.52-.95,1.04-1.91,1.57-2.88.51-.96.98-1.96,1.38-3,.39-1.02.69-2.18.88-3.43.02-.12.12-.21.24-.22.54-.04.81-.26.86-.73.07-.6.16-1.14.25-1.62l.08-.14c.68-.64,1.2-1.39,1.54-2.26.35-.89.67-1.83.95-2.79.29-.98.61-1.96.97-2.94.34-.94.83-1.79,1.45-2.53l.06-.07v-.28l-.18-.08c-.24-.08-.39-.34-.39-.68l.02-.03.06-.19c.02-.07.08-.13.15-.16.51-.21.89-.56,1.15-1.05.31-.6.79-1.04,1.42-1.3.04,0,.08,0,.11,0,.08,0,.12.02.16.05.96.78,1.81,1.25,2.52,1.41.74.16,1.74.29,2.96.39.07,0,.13.03.17.08.66.71,1.03,1.56,1.1,2.55.07.91.22,1.82.45,2.7.38,1.51.8,3.01,1.24,4.44.45,1.45.8,2.97,1.04,4.49.14.88.4,1.71.76,2.49.39.83.66,1.69.81,2.56.1.69.1,1.47,0,2.32-.09.78,0,1.46.26,2.03l.5,1.14c.24.53.45,1.09.62,1.67.17.57.32,1.15.47,1.72.38,1.42.73,2.97,1.04,4.61.3,1.61.79,3.08,1.44,4.38.21.42.52.7.96.87.47.18,1.02.31,1.61.38.45.05.89.08,1.33.08.15,0,.3,0,.44-.01.6-.02,1.11-.04,1.54-.04h.71c.31,0,.63.05.94.16.07.02.12.07.15.13.21.42.31.79.31,1.11,0,.65-.22,1.17-.66,1.55-.32.28-.48.59-.48.94,0,.18.08.4.24.64.06.09.06.21,0,.3-.05.07-.13.11-.22.11-.18-.04-.41-.07-.85-.07-.85,0-1.7.12-2.52.36l-.33.09.18.29c.32.53.71,1,1.17,1.39.54.46,1.11.9,1.7,1.31l.14.1.15-.09c.43-.28.89-.41,1.36-.41.61,0,1.19.14,1.72.42.46.24.95.36,1.48.36.46,0,.67-.09.77-.16.05-.04.1-.05.16-.05.07,0,.15.03.2.09.39.44.71.9.96,1.37.22.42.52.82.88,1.18.06.06.09.15.07.24-.15.72-.48,1.31-.97,1.75-.47.42-1.04.76-1.68,1.01-.63.24-1.29.4-1.95.48-.65.07-1.24.11-1.77.11-.25,0-.48-.01-.71-.04-.16-.02-.32-.03-.48-.03h-.23s-.04.22-.04.22c-.04.28-.22.49-.51.61h-.2c-.22-.09-.45-.15-.67-.2-.22-.04-.44-.07-.66-.07-.32,0-.63.02-.92.07-.32.05-.63.07-.93.07-.44,0-.74-.06-.95-.18-.19-.11-.35-.23-.48-.36-.12-.12-.25-.26-.37-.41-.08-.1-.23-.2-.43-.28-.17-.07-.31-.11-.44-.11-.15.04-.37.08-.43.09-.28,0-.59-.17-.99-.52-.59-.49-1.1-1.1-1.51-1.81-.41-.69-.8-1.42-1.18-2.19-.38-.75-.78-1.51-1.2-2.27-.38-.67-.81-1.26-1.3-1.78l-.08-.08h-.46c-.76,0-1.25.29-1.54.92-.03.07-.09.12-.16.14l-.21-.03c-.25-.15-.5-.34-.75-.56-.17-.15-.35-.28-.53-.39l-.1-.06-.11.03c-1.04.31-2.13.58-3.24.8-1.2.24-2.41.36-3.61.36h-1c-.26,0-.54-.04-.83-.11l-.09-.02-.08.04c-.39.17-.75.36-1.07.58-.42.29-.9.44-1.43.44-.25,0-.5-.05-.79-.17l-.28-.11-.08.29c-.02.08-.06.15-.12.21-.12.14-.32.2-.59.2h-.64c-.66,0-1.31.03-1.94.07-.65.05-1.31.07-1.98.07-.86,0-1.75-.11-2.65-.32l-.09-.02-.08.04c-.19.09-.39.14-.6.15h-.09s-.07.07-.07.07c-.07.06-.13.15-.17.25-.1.22-.2.42-.3.59-.12.2-.27.37-.47.51-.13.09-.28.15-.45.17l-.17.02-.05.16c-.14.44-.37.81-.7,1.09-.32.28-.48.71-.48,1.3,0,.1-.05.18-.14.23-.49.26-.89.6-1.2,1-.33.42-.66.87-.99,1.34-.34.48-.69.94-1.05,1.37-.35.42-.78.76-1.28,1.01l-.08.04-.04.08c-.12.23-.14.57-.07,1.02.01.09-.02.18-.09.24-.54.44-1.21.84-1.98,1.18-.79.35-1.54.52-2.24.52ZM616.07,394.63c0,.31.03.6.1.86.08.3.12.64.12.99,0,.1-.06.19-.14.23-.42.21-.72.53-.91.97-.21.48-.53.88-.97,1.19l-.08.05-.02.09c-.38,1.47-.92,2.87-1.61,4.17-.71,1.35-1.47,2.71-2.25,4.04-.78,1.32-1.53,2.67-2.24,4.01-.7,1.33-1.27,2.74-1.69,4.19-.02.06-.05.11-.1.14-.57.4-.95.89-1.15,1.5-.17.52-.27,1.05-.3,1.57v.19s.16.07.16.07c.31.13.65.2,1.03.21.54.03,1.07.04,1.59.04s1.05.05,1.55.15c.43.09.84.29,1.2.59l.11.09.13-.04c.56-.15,1.16-.26,1.8-.32.69-.07,1.26-.25,1.69-.56l.24-.03c.92.32,1.92.48,2.98.48.55,0,1.1-.05,1.63-.14.54-.09,1.06-.21,1.58-.35.6.1.97.28,1.24.52.14.13.35.2.64.2h.11l.11-.08c.11-.11.17-.22.2-.33.04-.19.13-.38.27-.56l.07-.09-.02-.11c-.09-.65-.22-1.12-.4-1.4-.23-.38-.42-.84-.56-1.38-.19-.67-.33-1.4-.4-2.18-.07-.74-.17-1.48-.31-2.18-.33-1.61-.7-3.22-1.1-4.83-.4-1.59-.91-3.16-1.52-4.67-.03-.08-.02-.17.02-.24.16-.24.24-.45.24-.64v-.09l-.06-.09c-.39-.48-.68-1.05-.86-1.7-.19-.69-.37-1.38-.54-2.07-.16-.67-.37-1.31-.63-1.88-.13-.29-.29-.55-.5-.78l-.46-.52v.73Z"/>
      <path d="M647.3,445.55c-.65,0-1.15-.2-1.48-.59-.23-.27-.59-.41-1.08-.41-.09,0-.18-.05-.22-.13-.92-1.5-1.55-3.19-1.89-5.04-.33-1.84-.5-3.61-.5-5.28,0-2.05.18-4.12.54-6.17.36-2.04.79-4.09,1.29-6.07.5-2.01,1.05-4.01,1.64-5.96.59-1.95,1.15-3.94,1.67-5.94l.03-.12-.03-.21c-.16-.23-.29-.43-.29-.75,0-.05.02-.12.06-.19.17-.53.32-.98.49-1.41.16-.4.28-.87.38-1.38.28-1.32.48-2.69.6-4.07.12-1.39.19-2.78.21-4.15.02-1.38.07-2.77.14-4.18.07-1.41.23-2.82.47-4.2.45-.51.79-.91,1.12-1.33.35-.45.8-.85,1.35-1.2l.17-.04c.95.05,1.92.19,2.89.43.97.24,1.91.64,2.78,1.17.06.03.1.09.12.15.57,2.05.97,4.13,1.18,6.17.21,2.03.58,4.08,1.1,6.09v.23s.24.11.24.11c.33.02.54.13.71.35.07.09.07.21,0,.31-.07.11-.12.23-.14.38-.02.18-.03.36-.03.54v1.21l.09.32c.07.23.16.51.26.81.11.34.34.53.73.61.11.02.19.11.21.22.23,1.5.59,2.89,1.06,4.15.47,1.26,1.01,2.5,1.63,3.67.61,1.17,1.27,2.35,1.99,3.51.7,1.14,1.42,2.33,2.16,3.59,1.24.98,2.26,2.02,3.1,3.17.85,1.15,1.72,2.28,2.59,3.34.86,1.04,1.85,1.98,2.94,2.77,1.02.74,2.37,1.22,4.01,1.42l.15.02.09-.12c.1-.13.17-.28.23-.46l.36-1.01c.15-.36.32-.67.49-.94.15-.23.35-.42.6-.57l.12-.07v-.14c.1-1.23.2-2.49.31-3.77.11-1.31.39-2.58.83-3.78l.04-.1-.04-.1c-.19-.42-.29-.92-.29-1.49,0-.49.04-.96.11-1.4.07-.41.1-.83.1-1.24,0-.85-.18-1.54-.53-2.06-.04-.49-.02-.85.03-1.21.04-.31.15-.63.33-.92l.06-.11-.04-.12c-.34-.89-.61-1.82-.81-2.79-.22-1.06-.33-2.15-.33-3.26,0-.59.06-1.2.19-1.83-.27-.85-.45-1.66-.54-2.56l-.28-2.92c-.1-.99-.24-1.91-.42-2.75-.18-.81-.51-1.44-1-1.94-.09-.09-.1-.23-.03-.33.26-.39.38-.83.38-1.35,0-.92-.14-1.8-.41-2.62-.29-.88-.44-1.82-.44-2.79,0-.7.15-1.4.45-2.1.04-.1.14-.16.24-.16,1.06.05,2.11.16,3.14.32,1,.16,2,.25,2.99.25.08,0,.16.04.21.11.26.35.57.64.93.86.37.23.77.46,1.19.67.43.22.85.45,1.26.69.44.26.8.63,1.06,1.1.03.05.04.11.03.17-.1.59-.24,1.1-.41,1.52-.15.36-.18.85-.09,1.47.01.07,0,.14-.05.2-.04.06-.11.09-.18.1-.41.04-.73.17-.94.39-.24.24-.44.52-.59.82-.17.33-.33.67-.5,1.03-.14.3-.3.58-.49.82l-.07.09.03.12c.35,1.64.55,3.33.59,5.01.05,1.73.17,3.47.35,5.18.24,2.17.61,4.33,1.1,6.42.5,2.12.75,4.31.75,6.51,0,.67-.01,1.29-.03,1.86-.03.57-.04,1.16-.04,1.77,0,.38.01.76.04,1.16.02.41.04.81.04,1.19,0,1.4-.18,2.81-.54,4.2-.35,1.38-.63,2.76-.81,4.1,0,.06-.04.12-.08.16-.55.51-1.03,1.07-1.42,1.66-.4.61-.82,1.19-1.26,1.73-.44.54-.96,1.02-1.55,1.44-.53.38-1.19.65-1.95.81l-.13.03-.05.12c-.18.4-.46.72-.83.94-.37.22-.68.52-.95.92-.05.07-.13.12-.22.12-1.33,0-2.41-.17-3.3-.52-.86-.34-1.68-.73-2.42-1.16-.74-.43-1.49-.88-2.25-1.36-.74-.46-1.6-.83-2.57-1.11-1.43-1.15-2.67-2.37-3.76-3.68-1.08-1.29-2.31-2.46-3.66-3.49-.41-1.04-.84-1.8-1.36-2.39-.55-.62-1.1-1.35-1.63-2.17-.24-.34-.43-.67-.56-.97-.12-.28-.27-.61-.46-.98-.13-.33-.3-.55-.55-.66-.33-.15-.62-.33-.87-.53-.04-.03-.08-.08-.09-.14-.37-1.44-.92-2.79-1.61-4-.56-.98-1.22-1.94-1.94-2.87l-.28-.36-.17.42c-.11.28-.21.57-.3.86-.17.59-.32,1.18-.46,1.77-.14.6-.33,1.21-.54,1.81-.2.56-.46,1.07-.76,1.53v.18l.12.22c.26.1.4.33.4.66,0,.05-.04.22-.06.26l-.03.16c-.28.23-.43.43-.53.68-.1.25-.28.43-.52.54l-.17.08v.18c.02.1.03.21.03.31v.64c0,1.39-.16,2.8-.47,4.19-.3,1.35-.46,2.75-.46,4.15v.93c0,.32.02.61.07.88.09.26.23.52.39.75.22.33.33.64.33.93,0,.24-.06.47-.18.68l-.11.21s.64.44.88.6c.44.29.85.63,1.22,1,.37.37.68.77.93,1.19.26.44.39.93.39,1.45,0,.9-.3,1.55-.9,1.93-.54.35-1.21.62-1.96.82-.74.19-1.5.37-2.29.54-.74.15-1.36.44-1.85.84-.05.04-.11.06-.17.06h-.21Z"/>
      <path d="M709.92,433.36c-.87,0-1.73-.06-2.57-.18-.83-.12-1.68-.25-2.53-.39-.07-.01-.13-.05-.17-.11-.45-.62-1.08-1.11-1.88-1.44-.86-.36-1.63-.71-2.3-1.04-1.48-1.99-2.5-3.87-3.12-5.67-.62-1.78-1.26-3.81-1.93-6.03.09-.8.26-1.48.5-2.13.22-.6.31-1.27.27-1.99.87-2.58,2.02-4.87,3.43-6.9,1.37-1.97,2.95-3.88,4.7-5.7l.06-.07v-.09c.03-.25.1-.47.22-.65.06-.11.09-.29,0-.65-.03-.11.02-.24.13-.29l.06.04h.32c.31,0,.41-.06.47-.11.11-.25.12-.45.08-.65-.02-.1.03-.21.12-.26,1.68-1.07,3.24-2.33,4.62-3.74,1.36-1.39,2.95-2.57,4.7-3.52l.08-.04.04-.09c.16-.39.4-.73.72-1,.31-.27.54-.56.72-.92.03-.07.09-.12.16-.14,1.48-.42,2.85-1.05,4.05-1.89,1.24-.86,2.57-1.63,3.95-2.3.76-.43,1.52-.74,2.22-.91l2.25-.53c.28-.09.55-.17.79-.22.25-.05.53-.08.84-.08.88,0,1.75.16,2.59.48.77.3,1.58.45,2.4.45.22,0,.41-.01.57-.03.16-.02.33-.06.51-.1.01,0,.03,0,.04,0,.12,0,.18.03.23.09.77.96,1.77,1.7,2.96,2.2.06.03.12.08.14.14.28.69.61,1.29,1,1.79.4.52.81,1.03,1.24,1.52.43.5.84,1.07,1.2,1.67.37.62.61,1.36.71,2.21,0,.06,0,.12-.04.18-.26.39-.41.82-.46,1.3-.05.51-.07.98-.07,1.4,0,.57.01,1.12.04,1.66.02.55.04,1.09.04,1.61v1.07c-.1.39-.25.75-.46,1.13-.18.31-.31.63-.4.94-.65,1.73-.99,3.48-.99,5.2,0,.07-.01.22-.02.25-.24.56-.46,1.09-.68,1.56-.21.47-.41.93-.6,1.38-.18.43-.32.89-.41,1.37-.09.47-.11,1.04-.07,1.68-.69,1.79-1.59,3.34-2.69,4.71-1.07,1.33-2.15,2.73-3.2,4.16-1.09.46-1.99.95-2.8,1.55-.81.6-1.61,1.29-2.36,2.04-1.55.53-3.01,1.08-4.43,1.69-1.39.6-2.66,1.43-3.77,2.45-.04.04-.09.06-.15.07-.89.09-1.79.24-2.68.42-.88.19-1.75.47-2.58.84l-.96.02c-.34,0-.63-.06-.85-.17l-.12-.06-.12.06c-.55.27-1.13.46-1.72.56-.67.12-1.36.18-2.04.18ZM712.19,424.78c.89,0,1.76.12,2.6.34,2.33-.42,4.48-1.11,6.53-2.05,2.09-.96,4.1-2.14,5.98-3.5.28-.23.61-.49,1-.75.36-.24.65-.5.87-.77.23-.24.42-.48.58-.75.17-.3.36-.57.55-.81.37-.61.81-1.24,1.28-1.85.45-.59.93-1.14,1.41-1.63.3-1.12.61-2.11.97-3.04.38-.97.76-1.94,1.14-2.89.37-.93.69-1.9.95-2.89.25-.98.38-2.01.38-3.07,0-.23-.01-.48-.04-.76-.02-.27-.06-.53-.1-.76-.01-.07,0-.15.04-.2.35-.48.52-.99.52-1.56,0-.09-.03-.43-.03-.43l-.16-.06c-.38-.13-.75-.3-1.1-.49-.39-.21-.82-.32-1.3-.32-.3,0-.59.06-.89.19h-.23c-.07-.05-.12-.12-.13-.2-.04-.25-.13-.43-.28-.53-.2-.14-.43-.26-.68-.37-.25-.11-.5-.2-.74-.27-.31-.08-.57-.24-.79-.46-.2-.47-.35-.86-.52-1.26-.09-.22-.23-.4-.41-.55l-.17-.13-.16.14c-.38.33-.82.61-1.29.82-.57.26-1.16.51-1.76.75-.58.23-1.14.51-1.67.84-.52.31-.96.7-1.32,1.15-.05.06-.13.1-.21.1h-1.13l-.08.12c-.3.44-.69.79-1.17,1.03-.49.24-.91.59-1.27,1.03-.82.44-1.51.9-2.14,1.43-.64.54-1.26,1.11-1.88,1.7-.62.59-1.22,1.19-1.81,1.81-.57.59-1.18,1.15-1.82,1.66-.68,1.38-1.36,2.53-2.08,3.48-.72.96-1.42,1.95-2.05,2.94-.63.98-1.17,2.06-1.61,3.2-.44,1.13-.66,2.55-.66,4.21v.71c0,.17.01.34.04.51.65.78,1.14,1.48,1.53,2.22.37.71.99,1.2,1.88,1.51.81.33,1.68.49,2.58.49,0,0,.65-.02.81-.02Z"/>
      <path d="M761.78,441.2c-.22,0-.54-.07-.84-.41-.19-.22-.39-.45-.58-.69-.18-.23-.38-.45-.59-.66-.16-.16-.35-.24-.56-.24-.27,0-.48.05-.63.16-.05.03-.1.05-.16.05-.21-.07-.26-.16-.26-.26,0-.13.02-.23.05-.33.02-.69-.04-1.25-.18-1.85-.15-.61-.22-1.22-.22-1.81,0-.71.13-1.3.39-1.77.05-.08.13-.13.23-.13h.86c.46,0,.91-.03,1.35-.1.46-.07.96-.11,1.5-.11s1,.13,1.43.38c2.66-.07,5.08-.55,7.35-1.4,2.3-.86,4.63-1.71,7-2.54l.08-.03.05-.07c.3-.45.47-.94.53-1.48.06-.53.19-1.05.39-1.54l.08-.18-.15-.12c-1.11-.9-2.25-1.63-3.37-2.16-.91-.43-1.96-.65-3.1-.65-.37,0-.75.02-1.14.07l-.17-.04c-.96-.59-1.98-.94-3.06-1.03-1.12-.09-2.26-.24-3.41-.43-.29-.05-.59-.11-.91-.18-.29-.07-.6-.1-.9-.1-.19,0-.37.05-.55.15l-.2.11.09.21c.05.13.02.21-.1.27-.02,0-.03,0-.04,0-.13,0-.21-.07-.27-.16-.2-.32-.45-.5-.78-.56-.39-.07-.74-.23-1.04-.48l-.07-.06h-.09c-1.47-.11-2.77-.39-3.89-.83-1.14-.45-2.4-.96-3.78-1.53-.36-.13-.71-.24-1.05-.3-.38-.08-.76-.22-1.11-.42-.89-.44-1.61-1.04-2.15-1.78-.54-.73-.97-1.56-1.28-2.45-.31-.89-.55-1.83-.69-2.79-.14-.95-.28-1.82-.43-2.63-.01-.06,0-.12.03-.17.42-.75.81-1.53,1.16-2.33.35-.79.64-1.64.88-2.53.02-.07.07-.13.14-.17.3-.15.59-.27.89-.37.16-.05.33-.12.51-.19l.17-.07v-.18c0-.33.1-.62.3-.9.15-.21.12-.37.08-.46-.04-.1-.01-.22.07-.29,1.04-.94,2.05-1.93,3.01-2.94.96-1,1.8-2.13,2.49-3.33.03-.06.08-.1.14-.12.67-.22,1.2-.56,1.6-1,.43-.47.85-.96,1.28-1.46.44-.51.93-.98,1.46-1.39.51-.39,1.14-.65,1.88-.77l.11-.02.06-.09c.19-.28.44-.51.74-.7.34-.22.67-.42,1.01-.61.32-.18.62-.39.89-.62.24-.2.43-.5.56-.88.04-.11.14-.18.25-.18.72,0,1.39-.14,1.99-.41.63-.28,1.26-.59,1.87-.92.62-.33,1.26-.65,1.91-.94.67-.3,1.42-.45,2.21-.45.2,0,.4.01.6.04.2.03.42.06.66.11.5.44.75.87.88,1.37.12.47.21.97.26,1.5.05.53.08,1.05.11,1.58.02.49.1.95.24,1.35.02.07.02.14-.02.21-.43.81-.9,1.62-1.4,2.44-.52.84-1.21,1.5-2.06,1.95l-.24.04h-.22c-.31,0-.6-.08-.88-.26-.24-.16-.52-.24-.85-.24-.22,0-.33.08-.38.14l-.36.36c-.11.11-.26.22-.45.33-.12.07-.26.11-.42.11-.09,0-.19-.01-.29-.04l-.09-.02-.08.04c-.59.27-.49.66-.45.83.02.07,0,.15-.04.21-.04.06-.11.1-.19.11-.85.09-1.58.35-2.15.77-.6.44-1.17.93-1.68,1.47-.53.55-1.06,1.06-1.59,1.51-.5.43-1.08.69-1.74.78l-.13.02-.06.11c-.79,1.35-1.76,2.56-2.87,3.61-1.08,1.01-1.99,2.17-2.72,3.43l-.06.1.04.11c.11.33.18.68.22,1.05.04.38.1.79.19,1.21.45.62.92,1.07,1.45,1.46.55.39,1.08.79,1.61,1.18l.07.05h.09c1.02,0,1.94.19,2.78.56.77.34,1.6.51,2.46.51.43,0,.79-.08,1.08-.25l.19-.03c1.23.29,2.46.52,3.65.71,1.2.19,2.42.33,3.65.42.62.09,1.23.14,1.87.14s1.29.07,1.88.22c.54.15,1.07.33,1.6.55.53.21,1.05.44,1.58.68,1.1.48,2.15,1.01,3.12,1.58.99.58,1.88,1.28,2.66,2.07.78.8,1.4,1.74,1.84,2.79.44,1.05.66,2.27.66,3.63,0,.85-.22,1.61-.65,2.25-.37.55-.51,1.2-.42,1.99.01.1-.04.21-.13.26-.63.36-1.15.84-1.55,1.42-.42.61-.82,1.25-1.2,1.9-3.23,2.13-6.64,3.81-10.22,5.07-3.6,1.26-7.36,1.9-11.17,1.9Z"/>
    </g>
  </g>
</svg>