<?xml version="1.0" encoding="UTF-8"?><svg id="Layer_2" xmlns="http://www.w3.org/2000/svg" viewBox="0 0 1023.86 680.64"><defs><style>.cls-1{fill:#06343f;}.cls-1,.cls-2{stroke-width:0px;}.cls-2{fill:#d4b605;}</style></defs><g id="Camada_1"><path class="cls-2" d="m752.04,309.6c1.82,2.74,4.35,3.93,7.38,3.97,3.33.04,6.67-.11,10.01-.26,7.24-.32,14.47-.69,21.7-1.06,3.43-.18,6.86-.37,10.29-.67,1.58-.14,3.14-.57,4.72-.84,1.92-.33,3.84-.72,5.77-.93,5.35-.6,10.7-1.08,16.05-1.68,4.77-.54,9.54-1.17,14.3-1.76.23-.03.45-.12.68-.12,3.58.13,21.27-2.38,25.37-3.64.16-.53.52-1.17.53-1.81,0-4.46-.13-8.93-.09-13.39.07-7.35-.87-14.68.12-22.06.48-3.58.16-7.39-.47-10.98-1.04-5.94-.96-11.86-.94-17.84.02-6.99-.36-13.98-.55-20.97-.16-6.18-.28-12.37-1.43-18.48-.16-.84-.11-2.18.41-2.63,2.48-2.12,1.76-4.77,1.52-7.35-.15-1.61-.23-3.11.73-4.62.56-.87.26-2.26.71-3.25.32-.71,1.24-1.15,1.89-1.71.46.57,1.21,1.08,1.33,1.71.93,4.95,1.94,9.9,2.53,14.9.47,3.98.01,8.06,1.48,11.92.2.52.23,1.14.22,1.71-.23,7.17,1.17,14.16,2.13,21.22.55,4.02.26,8.18.13,12.27-.24,7.58-.1,15.12.66,22.68.44,4.31-.18,8.72-.22,13.09-.03,3.55.15,7.11.1,10.66-.04,3.1-.27,6.2-.43,9.3-.07,1.23-.18,2.46-.3,4.09,3.84-.35,7.37-.54,10.86-1.02,6.14-.84,12.25-1.89,18.38-2.79,7.68-1.14,15.38-2.17,23.06-3.35,2.93-.45,5.83-1.09,8.72-1.77,2.38-.56,2.88-1.65,2.97-5.82-2.13-.98-4.24-2.13-6.48-2.91-1.29-.45-2.63-.1-3.77,1.03-1.03,1.03-2.33,1.85-3.62,2.55-2.6,1.4-4.99.49-7.01-1.22-2.01-1.7-1.44-4.14-.67-6.1.69-1.74,2.17-3.21,3.43-4.68.39-.46,1.19-.71,1.83-.77,4.5-.43,7.72,1.92,8.82,6.31,2.17.62,4.34,1.21,6.48,1.85,1.36.41,2.18.09,2.54-1.4.73-3.02,1.55-6.01,2.33-9.01.09-.33.24-.7.17-1.01-1.01-4.67.7-9.27.32-13.92-.28-3.43-.58-6.85-.93-10.27-.05-.52-.35-1.09-.7-1.51-5.71-6.89-8-15.03-8.74-23.74-.06-.69.05-1.45-.22-2.05-2.6-5.78-.85-11.74-.9-17.64-.04-4.74-.15-9.57-1.97-14.19.9-1.09,1.75-1,2.2.37.46,1.41.67,2.91,1.01,4.37.65,2.8,1.78,5.31,3.42,7.78,1.59,2.4,2.03,5.53,3.17,8.26,1.88,4.53,1.89,9.39,2.66,14.12.78,4.76,1.52,9.53,2.23,14.31.15,1.01.5,2.26.08,3.04-1.77,3.35-.05,6.09,1,8.78,1.82-1.2,3.62-2.32,5.34-3.54.64-.45,1.11-1.14,1.65-1.72,2.55-2.79,5.09-5.6,7.66-8.37,2.46-2.66,5.72-4.15,8.94-5.49,5.4-2.24,10.98-4.07,16.46-6.14,1.16-.44,2.26-1.09,3.29-1.79,1.2-.82,2.08-.78,2.86.65-1.08,1.63-2.39,2.95-4.25,3.76-.93.4-1.76,1.1-2.55,1.77-3.5,2.96-6.9,6.04-10.49,8.89-1.6,1.27-3.57,2.08-5.36,3.11-3.86,2.23-8.07,3.89-11.26,7.19-.52.54-1.43,1.2-2.02,1.08-3.3-.68-4.95,1.81-7.07,3.42-.88.67-1.67,1.51-2.64,1.99-.99.48-1.67,1.2-1.3,2.11,1.44,3.5-.6,6.76-.48,10.15.03.79-.33,1.69-.06,2.36,1.25,3.19.33,6.35.1,9.53-.22,3.05-.28,6.11-.44,9.7-.35.58-1.06,1.76-1.79,2.96,1.75,1.35,3.17.98,4.63.61,7.12-1.81,14.25-3.58,21.38-5.36,8.02-2,16.03-4.08,24.08-5.95,3.09-.72,6.33-.79,9.43-1.47,3.09-.69,6.31-1.15,8.82-3.5.54-.51,2.06-.79,2.52-.42,2.08,1.67,4.68,1.38,7.34,2.11-1.74,2.07-3.46,3.5-5.9,4.03-.98.21-2.09.6-2.73,1.29-.42.45.02,1.61-.13,2.42-.24,1.31-.86,2.18-2.4,2.48-4.27.84-8.51,1.88-12.76,2.84-6.38,1.44-12.75,2.94-19.16,4.28-4.39.91-8.84,1.52-13.23,2.39-8.32,1.65-16.62,3.43-24.95,5.05-1.37.27-2.03,1.08-2.47,2.12-.91,2.16-2.22,3.94-3.93,5.57-1,.95-1.47,2.51-2.03,3.86-.93,2.23-2.21,4.11-3.95,5.87-3.71,3.74-7.11,7.79-10.58,11.76-1.13,1.3-2.36,2.3-4.45,2.23,2.93-3.6,5.83-7.23,8.8-10.8,4.49-5.38,8.64-10.99,11.69-17.34.19-.39.28-.81.63-1.83-3.07.4-5.75.62-8.38,1.13-7.74,1.49-15.43,3.29-23.2,4.61-6.67,1.13-13.4,1.98-20.14,2.56-6.48.55-7.43.87-7.18,7.16.23,5.66-.48,11.23-.53,16.84,0,.46.1.98-.07,1.37-1.79,4.08-1.11,8.58-2.21,12.78-.33,1.25-.05,2.66-.05,3.84.55.24.78.45.94.4,4.26-1.34,9.04-1.89,12.64-4.25,5.23-3.42,11.44-5.13,16.02-9.54.17-.16.31-.34.48-.5.8-.73,1.91-.96,2.32.01.28.66-.17,2.22-.77,2.56-4.66,2.71-9.18,5.59-13.56,8.74-.91.65-2.54.29-3.57.37-2.53,1.29-4.81,2.89-7.34,3.58-1.44.39-2.32,1.23-3.45,1.89-.38.23-.62.71-1.01.92-3.63,1.89-3.97,5.37-3.96,8.79.04,9.14-1.75,18.01-3.48,26.92-1.71,8.8-2.93,17.68-4.53,26.5-1.11,6.1-2.44,12.16-3.77,18.22-.57,2.6-.89,2.72-4.39,2.69,0-.98-.19-2.01.03-2.94,1.25-5.13,1.79-10.27.78-15.52-.17-.86.07-1.83.24-2.73.65-3.37,1.43-6.72,2-10.1.23-1.36.75-2.76-.6-4.16-.71-.74-.86-2.4-.68-3.56.98-6.21,2.23-12.38,3.22-18.59,1.68-10.54,3.23-21.1,4.83-31.66.05-.34.07-.69.04-1.03-.69-9.12,1.2-18.09,1.44-27.16.08-3.18-.04-6.37-.08-9.92-1.37.15-2.26.18-3.11.36-11.06,2.3-22.32,2.9-33.53,3.82-6.05.5-12.11.97-18.17,1.4-5.15.37-10.31.86-15.47.94-5.91.1-11.82,0-17.73-.11-3.3-.07-6.6.33-10.11.54,1.17,1.53,4.28,3.56,7.14,4.76,9.45,3.96,19.06,7.52,29,10.01,7.35,1.84,14.86,3.03,22.29,4.52.99.2,1.97.44,3.05.68-1.48,2.25-4.13,3.33-6.84,2.45-4.17-1.34-8.54-1.52-12.75-2.53-5.01-1.2-9.99-2.51-14.93-3.98-4.3-1.29-4.83-1.24-7.45,2.35-.27.37-.51.74-.95,1.38,1.02,1.17,2.01,2.38,3.09,3.52,1.43,1.5,1.67,3.24.54,4.95-2.73,4.15-6.88,5.5-11.54,5.69-.7.03-1.58-.46-2.11-.98-3.7-3.59-3.05-8.98,1.37-11.71.68-.42,1.39-.93,2.15-1.07,3.8-.74,5.67-3.59,7.53-6.42-9.39-4.07-18.64-8.11-27.92-12.09-.91-.39-1.99-.58-2.98-.54-6.87.34-13.74.78-20.61,1.16-4.13.23-8.27.52-12.4.59-7.01.11-14.03-.03-21.03.11-7.22.15-14.49-.14-21.6,1.7-.82.21-1.93.14-2.64-.26-2.1-1.19-4.26-.78-6.42-.58-5.24.49-10.47,1.07-15.72,1.51-1.11.09-2.25-.28-3.39-.37-3.83-.29-7.65-.53-11.48-.82-1.14-.09-2.34-.08-3.4-.43-3.47-1.16-6.92-.78-10.45-.39-3.08.35-6.21.24-9.32.33-2.41.07-4.82.2-7.23.19-2.86,0-5.79.25-8.57-.26-4.72-.87-9.37-.62-14.08-.25-4.23.33-8.49.36-12.73.59-4.34.23-8.67.68-13.02.78-3.05.07-6.22.13-9.14-.58-4.22-1.03-8.43-.58-12.64-.86-.85-.06-1.71-.1-2.97-.17,2.1-1.66,3.85-2.26,6.61-1.97,3.83.4,7.54.17,11.28-.79,1.64-.42,3.43-.31,5.16-.29,7.45.08,14.88.31,22.33-.45,6.62-.67,13.3-.93,19.96-1.05,8.16-.14,16.32.09,24.48.08,3.21,0,6.42-.23,9.63-.33,6.3-.21,12.63.22,18.87-1.09.77-.16,1.6-.04,2.4-.05,5.05-.1,10.11-.45,15.14-.24,11.98.51,23.91-.27,35.85-.89,7.23-.37,14.42-.69,21.66-.47,4.93.15,9.89-.26,14.83-.45.43-.02.86-.23,1.83-.51-.72-.86-1.12-1.63-1.76-2.06-4.09-2.76-8.26-5.4-12.34-8.17-1.12-.76-2.04-1.8-3.07-2.68-3.42-2.92-7.68-4.32-11.84-5.27-3.71-.85-7.76-.29-11.67-.26-3.64.03-7.29.23-10.93.29-1.26.02-2.52-.18-3.78-.23-2.53-.11-4.88-.58-7.25-1.73-1.87-.9-4.23-.91-6.39-1.04-2.08-.13-3.85-.46-4.62-2.85.39-.3.72-.77,1.09-.81,3.19-.32,6.39-.62,9.59-.82,3.56-.23,7.12-.42,10.68-.47,1.46-.02,2.92.4,4.38.59,3.75.49,7.5.95,11.25,1.45,1.35.18,3.19-.03,3.91.76,1.19,1.3,3.17-.91,4.06,1.48.45,1.2,2.42,1.91,3.8,2.67,1.6.88,3.36,1.09,5.51.9-2.48-3.27-4.69-6.31-7.04-9.23-.69-.86-1.75-1.45-2.72-2.05-9.17-5.71-18.02-11.84-25.33-19.9-1.3-1.43-2.19-3.22-3.35-4.78-1.77-2.38-3.61-4.71-5.42-7.06-.67-.88-1.33-1.77-1.97-2.62,2.26-2.08,2.55-2.06,4.19-.86,3.03,2.22,6.14,4.34,9.21,6.51,7.41,5.24,14.68,10.57,19.93,18.25,4.53,6.64,9.58,12.92,14.25,19.47,1.63,2.3,2.79,4.93,3.75,7.79,1.28.45,2.56.9,3.92,1.38-.41-3.04-.94-5.93-1.15-8.84-.23-3.23-1.12-6.26-1.88-9.37-1.47-6.04-1.69-12.28-1.46-18.5.03-.8.04-1.61.09-2.41.19-2.95.14-5.81,1-8.83.95-3.35,1.56-7.23.43-10.88-.61-1.97-.1-3.66.99-5.21,1.12-1.59,2.72-1.38,3.26.48,1.62,5.5,2.89,11.08,3.28,16.82.37,5.5.73,11,1.14,16.49.07.9.35,1.77.58,2.84-.5-.07-.99-.13-1.87-.25-.17,1.07-.4,2.15-.51,3.24-.5,5.03-1.05,10.06-1.43,15.09-.24,3.24-1.2,6.58.78,9.66-1.09,2.92,1.21,3.98,3.03,3.98,1.95,0,4.29-.89,5.78-2.17,3.89-3.36,7.19-7.4,11.13-10.69,3.41-2.85,7.27-5.22,11.13-7.46,2.66-1.54,5.69-2.41,8.48-3.75,1.43-.69,2.62-1.87,4.05-2.59,1.18-.59,2.52-1.02,3.82-1.13.55-.05,1.41.77,1.7,1.4.18.39-.3,1.33-.74,1.73-2.46,2.23-4.92,4.49-7.55,6.52-2.89,2.24-5.83,4.48-8.99,6.3-4.57,2.63-9.36,4.88-14.03,7.32-1.2.63-2.44,1.23-3.49,2.06-1.88,1.48-3.64,3.13-5.7,4.93Z"/><path class="cls-2" d="m966.42,343.48c-3.13,1.56-6.45,2.12-9.95,1.77-1.59-.16-3.18-.34-4.78-.5-2.51-.26-5.01-.53-7.52-.77-2.05-.2-4.12-.27-6.16-.54-3.28-.43-6.56-.86-9.8-1.52-4.13-.84-8.13-2.5-12.47-1.89-.65.09-1.29.29-2.24.51.89,2.86,1.15,5.91,2.64,8.13,4.33,6.44,6.21,13.8,8.65,20.95,1.1,3.23,1.88,6.58,2.62,9.92.18.79-.35,1.75-.59,2.78-.65-.39-.98-.48-1-.62-.46-2.9-2.23-4.8-4.48-6.56-3.59-2.81-4.91-7.1-6.45-11.14-.89-2.34-1.29-4.87-1.99-7.29-.59-2.02-.52-3.81,1.5-5.14-.75-1.58-1.45-2.99-2.11-4.42-.28-.62-.68-1.3-.66-1.94.09-2.48.08-4.8-2.34-6.41-.4-.27-.53-1.71-.19-2.15.45-.58,1.5-1.02,2.26-.98,1.23.08,2.49.46,3.63.97,1.98.88,3.99,1.01,6.03.48,5.27-1.36,10.66-1.21,16.03-1.3.8-.01,1.6-.16,2.4-.18,2.64-.07,5.25-.19,7.73,1.14,1.07.57,2.43.58,3.65.91.69.19,1.35.51,1.91,1.24-4-.21-8-.42-12-.63l-.07.91c3.69.27,7.3,1.46,11.05.84,2.1-.35,4.05-.27,6.1.26,1.99.51,4.09.55,6.1.97.97.2,1.85.81,2.77,1.24-.1.32-.2.64-.3.95Zm-46.52,24.8c.27-.05.55-.1.82-.16-.68-2.15-1.35-4.29-2.18-6.92-2.04,3.36,1.04,4.86,1.36,7.08Zm-3.46-8.58c.36-.13.72-.25,1.07-.38.12-1.29.03-2.5-2.49-3.61.63,1.78,1.02,2.88,1.41,3.99Z"/><path class="cls-2" d="m938.44,273.15c-.54-.63-1.19-1.2-1.61-1.9-1.61-2.63-3.08-5.35-4.76-7.93-.44-.68-1.45-.98-2.48-1.64,0-2.17-.94-4.1-3.18-5.35-.61-.34-.95-1.25-1.32-1.95-2.4-4.43-4.67-8.93-7.22-13.28-1.29-2.2-2.28-4.42-2.82-6.91-1.03-4.7-1.87-9.46-4.37-13.72-.59-1.01-.6-2.38-.85-3.47,1.98-1.43,3.08-.43,4,.87.93,1.31,1.77,2.69,2.61,4.06,2.93,4.78,5.92,9.52,8.74,14.37,1.14,1.96,1.89,4.14,2.83,6.22,1.12,2.5,2.38,4.95,3.33,7.51,1.96,5.26,3.75,10.58,5.64,15.86.79,2.21,1.67,4.4,2.51,6.59-.35.22-.7.43-1.05.65Z"/><path class="cls-2" d="m844.36,341.54c7.11-.46,14.21-1.07,21.96.11-.94.66-1.45,1.31-2.05,1.4-1.8.27-3.64.44-5.46.43-2.96-.01-5.89-.35-8.82.66-1.2.42-2.74.13-4.06-.14-.73-.15-1.33-.93-1.99-1.42.14-.35.27-.7.41-1.04Z"/><path class="cls-2" d="m532.89,322.8c-2.1.33-4.2.75-6.32.97-2.39.25-4.8.3-7.2.47-1.49.11-2.12-.57-2.03-2.45,5.22-.81,10.43-2.65,15.62.01-.03.34-.05.67-.08,1.01Z"/><path class="cls-2" d="m456.16,323.6c-1.18.31-2.35.88-3.53.89-2.73.02-5.47-.25-8.2-.35-.65-.02-1.31.18-1.96.22-1.14.08-2.32.3-3.4.09-.54-.11-.92-1.06-1.37-1.63.65-.27,1.49-.94,1.93-.74,2.5,1.13,5.07,1.24,7.72.94,2.26-.26,4.52-.53,6.79-.71.68-.05,1.38.17,2.07.27-.01.34-.02.68-.03,1.02Z"/><path class="cls-2" d="m478.5,322.88c-2.35.23-4.72.39-7.06.71-1.52.2-2.02-.65-2.48-2.16,2.77-1.55,5.66-.98,8.5-.47.56.1,1,.83,1.5,1.26-.16.22-.31.44-.47.65Z"/><path class="cls-2" d="m855.57,456.14c-3.51-.68-3.93-1.35-2.86-3.77.45-1.02.74-2.13,1.29-3.09.27-.47.95-.88,1.49-.96.26-.04.94.8.9,1.19-.19,2.21-.54,4.4-.83,6.63Z"/><path class="cls-2" d="m510.42,322.53c-3.14,1.96-5.58,2.05-7.6.23.81-1.72,2.37-.93,3.62-1.03,1.32-.11,2.65-.02,3.98-.02,0,.27,0,.55.01.82Z"/><path class="cls-2" d="m846.35,470.56c.59-.75,1.18-1.5,1.83-2.31,1.3.87,1.14,1.82.52,2.51-.4.44-1.27.45-1.93.66l-.42-.85Z"/><path class="cls-1" d="m390.72,284.43c2.46.46,4.48,1.44,6.19,1.05,3.76-.88,6.93,1.5,10.51,1.29.49-.03,1.04.93,1.69,1.55-2.35,2.52-4.94,2.46-7.44,1.46-4.35-1.73-8.85-1.16-13.3-1.22-.86-.01-1.76.91-2.58,1.49-1.31.92-2.51,2.01-3.87,2.83-.44.27-1.49.17-1.82-.18-.3-.31-.19-1.31.09-1.8.49-.86,1.25-1.57,2.22-2.73-1.33-.09-2.3-.2-3.26-.21-1.24-.01-2.17-.64-2.05-1.79.06-.62,1.07-1.48,1.78-1.63,1.56-.33,3.2-.4,4.79-.33,1.33.06,2.15-.48,2.93-1.43,2.27-2.75,4.55-5.49,6.94-8.14.65-.72,1.64-1.5,2.53-1.57,3.22-.26,6.49-.33,9.21,1.9,4.74,3.9,10.45,5.53,16.17,7.26,2.05.62,3.92,1.86,5.85,2.87.8.42,1.53.98,2.45,1.58,2.14-2.7,4.98-3.05,8.04-2.69.46.05.91.24,1.36.22,2.45-.09,3.33-1.22,2.74-3.63-.44-1.77-1.05-3.5-1.54-5.13-2-1.26-3.93,1.97-5.95-.2,1.24-2.8,3.33-4.25,6.3-4.57,7.03-.76,13.93.02,20.78,1.63,3.02.71,5.51,2.2,7.73,4.28,1.47,1.37,1.56,2.84-.12,4.03-1.66,1.18-3.5,2.34-5.44,2.87-3.08.85-6.3,1.21-9.48,1.71-1.9.3-3.82.46-5.98.72.27,1.51.5,2.61.65,3.71.22,1.53-.41,2.7-1.71,3.47-1.46.87-2.74.52-3.37-1.06-.64-1.6-1.03-3.29-1.64-5.3-1.64,0-3.44-.07-5.24.02-1.48.07-2.97.28-4.43.52-.49.08-1.17.36-1.35.74-1.04,2.19-2.5,1.94-4.49,1.32-5.92-1.86-11.55-4.3-16.98-7.31-2.99-1.66-6.19-2.97-9.35-4.28-1.41-.58-2.89-.61-4.09.77-1.64,1.89-3.38,3.68-5.44,5.9Zm54.29-10.42c.62,2.77,1.08,4.76,1.52,6.76.26,1.19,1,1.74,2.2,1.75,4.37.04,8.68-.36,12.86-1.67,1.24-.39,2.37-1.13,3.54-1.7-.03-.34-.05-.68-.08-1.02-6.01-3.39-12.65-3.96-20.04-4.11Z"/><path class="cls-1" d="m475.4,276.68c.88-1.72,2.31-1.68,3.67-1.9,2.03-.34,4.04-.8,6.06-1.19.67-.13,1.34-.33,2.01-.33,3.78-.02,7.56.03,11.34.02,3.33,0,6.66-.06,9.98-.08.34,0,.69.07,1.03.14,1.3.28,3.16.22,2.89,2.15-.23,1.61-1.87,1.24-3.12,1.3-6.43.28-12.86.62-19.29.95-.21.01-.41.19-.66.31-.38,1.55.17,2.26,1.85,2.41,3.2.28,6.39.74,9.58,1.11.68.08,1.49.34,2.05.1,2.99-1.31,5.82.56,8.74.34.34-.03.72.45,1.18.76-.96,1.65-2.45,1.63-3.93,1.73-5.85.42-11.69.88-17.53,1.34-.44.03-.87.17-1.42.29v3.4c5.72,1.63,11.33,1.09,16.93.66,5.72-.44,11.43-.94,17.14-1.43,1.51-.13,2.67.42,3.67,1.65-.95,1.53-2.38,1.98-4.08,2.03-5.16.17-10.33.35-15.49.57-5.26.23-10.51.53-15.77.76-1.03.05-2.08.02-3.1-.14-2.48-.39-3.49-1.53-3.81-4.08-.13-1.01-.3-2.02-.52-3.48-3.38.38-6.61.75-9.95,1.12-.21-.64-.36-1.05-.48-1.45-1.12-3.79-.97-4.05,3.04-4.52,1.93-.22,3.88-.2,5.81-.41,1.06-.12,1.05-.23,1.15-2.32-2.88-.74-6.23.73-8.96-1.81Z"/><path class="cls-1" d="m634.04,291.3c-1.38.57-2.5,1.04-3.23,1.35-4.56-1.72-7.72-5.18-12.21-6.18-1.15-.26-2.32-1.04-3.15-1.91-2.12-2.21-4.6-3.72-7.44-4.82-1.07-.41-2.17-1.27-2.81-2.22-2.31-3.41-5.98-3.7-8.36-.48-1.26,1.71-2.45,3.47-4.04,5.74,3.93.52,7.18,1.04,10.45,1.33,1.75.16,3.08.66,3.9,2.46-2.55,2.07-5.2,2.95-8.46,1.66-1.8-.71-3.76-1.02-5.66-1.48-2.22-.54-4.04,0-5.37,1.96-.45.66-1.17,1.17-1.51,1.87-1.13,2.37-2.87,2.71-5.22,1.77-1.09-3.07,2.11-3.94,3.09-5.94-2.61-.45-5.18-.82-7.71-1.38-.62-.14-1.09-.92-1.62-1.41.43-.47.78-1.06,1.3-1.39,1.59-1.04,3.32-1.5,5.23-1.04.56.14,1.13.2,1.7.29,5.19.82,6.35.13,8.17-4.85.51-1.4.92-2.86,1.6-4.18,1.5-2.9,3.78-3.7,6.89-2.55,2.05.75,4.09,1.53,6.13,2.31.54.2,1.19.32,1.57.7,4.26,4.36,10.32,5.84,15.05,9.47,3.37,2.59,6.96,4.9,10.42,7.37.43.31.7.83,1.3,1.56Z"/><path class="cls-1" d="m342.08,286.98c4.1,2.36,8.29,1.12,12.36,1.15,3.33.02,6.67.08,9.99-.1,1.92-.11,3.8-.68,5.71-1,1.54-.26,3.19-.87,4.58,1.39-.97.53-1.83,1.28-2.8,1.47-4.49.89-8.93,1.99-13.62,1.67-3.07-.21-6.19.47-9.29.49-3.33.02-6.66-.21-9.98-.45-1.18-.08-2.72.29-3.24-1.32-.55-1.7-.54-3.46.6-4.94.83-1.09,1.76-2.2,2.87-2.96,5.15-3.47,10.33-6.83,16.81-7.48,3.87-.39,7.68-1.42,11.54-1.98,3.8-.56,7.1,1.04,10.96,2.62-.84.56-1.16.95-1.51.97-4.9.37-9.81.62-14.71,1.07-1.44.13-2.86.74-4.25,1.24-3.79,1.36-7.56,2.74-11.32,4.19-1.94.75-3.82,1.64-4.71,3.98Z"/><path class="cls-1" d="m534.82,291.34c.94-2.84.08-4.75-.33-6.81-.69-3.47-.05-7.23.21-10.85.04-.5,1.11-1.26,1.74-1.3.61-.04,1.58.56,1.83,1.13.55,1.22.93,2.59,1.05,3.93.19,2.17.08,4.36.18,6.54.13,2.98.72,3.62,3.7,3.71,4.47.13,8.95.14,13.43.2,1.95.03,3.91.12,5.86.04,1.21-.05,2.4-.44,3.6-.51.82-.05,1.9-.08,2.41.38.54.49.93,1.73.68,2.35-.26.63-1.38,1.26-2.13,1.27-6.19.05-12.38-.06-18.57-.09-4.31-.02-8.63,0-13.66,0Z"/><path class="cls-1" d="m584.18,662.32c-2.59,2.55-5.3,2.05-7.71,2.15-4.81.19-9.64-.02-14.46-.06-.91,0-1.84-.04-2.74.07-3.12.39-6.19.71-9.4.4-4.45-.43-8.98.1-13.45-.18-6.88-.44-13.73-1.29-20.61-1.83-2.63-.21-5.3.11-7.93-.08-10.25-.74-20.28-2.68-30.24-5.2-7.47-1.89-15.02-3.49-22.56-5.09-2.9-.62-5.91-.73-8.82-1.34-3.02-.64-5.95-1.66-8.94-2.44-9.79-2.54-19.59-5.07-29.39-7.55-2.78-.7-5.63-1.17-8.43-1.8-1.57-.35-3.13-.75-4.66-1.25-6.67-2.17-13.37-4.26-19.98-6.62-9.52-3.41-18.96-7.02-28.43-10.57-5.38-2.02-10.87-3.81-16.09-6.19-11.29-5.16-22.42-10.67-33.64-15.99-5.09-2.41-10.26-4.66-15.36-7.07-5.83-2.75-11.61-5.59-17.41-8.4-13.35-6.46-26.27-13.77-40.1-19.28-5.64-2.25-10.87-5.52-16.26-8.37-14.45-7.64-28.88-15.31-43.33-22.95-6.4-3.39-12.59-7.11-18.75-10.93-5.06-3.14-10.48-5.7-15.77-8.47-3.15-1.65-6.38-3.16-9.54-4.82-7.84-4.11-15.67-8.25-23.48-12.41-8-4.27-15.87-8.82-24.01-12.79-7.01-3.42-14.32-6.23-21.52-9.27-4.24-1.79-8.5-3.5-12.76-5.24-.4-.16-.85-.21-1.7-.42,0,2.25-.12,4.27.02,6.27.55,7.9,1.3,15.78,1.74,23.68.37,6.75.26,13.52.63,20.27.54,9.98,1.39,19.95,1.97,29.93.27,4.58.1,9.19.32,13.78.14,2.86.76,5.69.98,8.55.2,2.7.05,5.42.22,8.13.46,7.35.99,14.7,1.55,22.04.09,1.13.53,2.24.68,3.37.11.87.02,1.76.03,2.64.03,2.36,0,4.72.13,7.07.06,1.12.59,2.21.68,3.33.24,2.96.52,5.94.49,8.9-.03,3.35-.36,6.69-.58,10.32-3.13-1.58-4.55-3.79-4.61-6.89-.05-2.93-.79-5.65-2.73-8.6.27,1.52.44,2.48.62,3.45.06.34.29.7.22,1-.7,3.18-.63,6.39-.57,9.61,0,.13-.32.26-.66.52-1.25-.95-1.43-2.39-1.73-3.8-.5-2.35-1-4.7-1.61-7.02-1.57-5.9-2.04-11.98-2.71-18.01-.58-5.22-.39-10.53-.77-15.78-.34-4.68-1-9.33-1.51-13.99-.15-1.37-.36-2.74-.4-4.12-.25-7.36-1.15-14.62-2.61-21.84-.5-2.48.16-5.2.33-7.81.06-.91.38-1.82.32-2.71-.37-5.39-.87-10.76-1.21-16.15-.13-2.16.14-4.35.07-6.51-.14-4.71-.32-9.42-.57-14.12-.55-10.31-1.17-20.62-1.74-30.93-.13-2.38-.27-4.77-.23-7.16.03-1.71-.7-2.56-2.29-2.88-1.91-.39-3.82-.85-5.73-1.24-4.05-.83-8.11-1.62-12.16-2.47-1.52-.32-3-.94-3.27-2.65-.28-1.77.86-3.08,2.17-4.02,6.16-4.39,12.36-8.72,18.56-13.05,1.41-.99,2.06-2.07,1.97-3.98-.41-8.61-1.11-17.25.11-25.83.53-3.75.83-7.48.83-11.24,0-4.64-.15-9.28-.14-13.92,0-2.51.28-5.02.28-7.53,0-1.81-.37-3.63-.36-5.44.03-4.82.1-9.65.28-14.47.46-11.62.74-23.23.26-34.86-.17-4,.46-8.02.58-12.04.15-5.16.14-10.32.23-15.48.12-6.87-.17-13.73.23-20.63.7-12.26,2.21-24.47,2.12-36.79-.05-7.8.75-15.6,1.1-23.41.21-4.59.29-9.19.42-13.79,0-.34-.12-.69-.09-1.03.59-5.82,1.07-11.66,1.82-17.46.95-7.41,2.01-14.81,3.24-22.18.92-5.52,2.24-10.98,3.27-16.48,1.56-8.32,2.72-16.74,4.66-24.97,1.18-5.03,1.36-10.24,2.97-15.13,1.08-3.28,1.31-6.91,3.71-9.72.4-.47.5-1.3.54-1.98.31-6.07,2.54-11.64,4.44-17.28,2.16-6.41,4.42-12.79,6.68-19.16,1.88-5.29,3.69-10.61,5.82-15.8,1.29-3.15,3.2-6.05,4.72-9.11,2.87-5.77,5.51-11.66,8.54-17.34,1.38-2.6,3.01-5.52,5.34-7.04,3.06-2.01,5.88-4.88,9.82-5.27,1.18-.12,2.44.2,3.62.51,3.24.83,6.29,1.88,8.04,5.19.83,1.57,1.02,3.05-.3,4.03-2.3,1.71-3.56,3.88-4.57,6.5-.72,1.86-2.49,3.29-3.49,5.08-3.83,6.81-8.92,12.86-12.08,20.09-.86,1.97-2.59,3.55-3.54,5.49-1.31,2.67-2.08,5.6-3.39,8.27-3.23,6.57-4.63,13.7-6.67,20.64-.39,1.32-.84,2.65-1.46,3.87-2.6,5.16-4.45,10.47-5.18,16.29-.7,5.57-2.29,11.02-3.36,16.55-2.11,10.95-4.14,21.92-6.18,32.88-.67,3.61-1.36,7.23-1.85,10.87-1.09,8.08-1.7,16.25-3.18,24.26-1.87,10.12-1.38,20.38-2.64,30.54-1.25,10.11-1.6,20.34-2.31,30.52-.5,7.11-.48,14.28-1.54,21.3-1.56,10.36-1.19,20.88-3.02,31.21-.37,2.1.15,4.35.06,6.52-.42,10.29-1.56,20.56-1.84,30.83-.2,7.42-.12,14.92-.12,22.38,0,6.18-.62,12.37-.9,18.55-.07,1.49.25,2.99.19,4.48-.33,8.5-.72,16.99-1.08,25.48-.1,2.53-.15,5.06-.21,7.6-.13,5.38-.27,10.76-.38,16.14,0,.19.19.39.47.92,1.53-1.26,3.06-2.42,4.49-3.69,3.78-3.35,7.48-6.79,11.31-10.09,3.55-3.06,7.25-5.94,10.83-8.97,4.03-3.41,8.47-6.48,11.86-10.45,4.44-5.21,10.32-8.74,14.8-13.88,2.51-2.87,5.65-5.19,7.8-8.47.54-.82,1.62-1.26,2.34-1.98,2.83-2.83,5.55-5.77,8.43-8.54,5.46-5.26,11.11-10.32,16.48-15.66,5.27-5.24,10.27-10.74,15.42-16.1,2.11-2.2,4.38-4.25,6.43-6.51,2.19-2.43,4.2-5.03,6.3-7.54,1.9-2.27,3.87-4.48,5.71-6.8,1.76-2.23,3.34-4.59,5.08-6.84,2.43-3.15,4.91-6.26,7.4-9.36,4.37-5.44,8.69-10.92,13.16-16.29,2.43-2.91,5.22-5.51,7.64-8.42,2.92-3.51,5.79-7.1,8.39-10.86,4.44-6.43,8.69-13.01,12.94-19.57,3.49-5.38,6.91-10.8,10.28-16.26.96-1.56,1.95-3.22,2.37-4.96,1.12-4.68,3.98-8.46,6.03-12.65.8-1.63,1.33-3.39,1.89-5.12.71-2.2,1.33-4.36,3.61-5.62.83-.45,1.27-1.56,1.97-2.29,1.14-1.2,2.12-1.21,3.19.08,1.5,1.8,2.39,3.82,2.59,6.25.37,4.4.09,8.72-.7,13.04-.21,1.13-.36,2.27-.55,3.41-1.14,6.96-3.47,13.47-7.06,19.55-1.4,2.37-2.71,4.8-3.92,7.27-2.72,5.52-7.04,9.88-10.62,14.77-6.24,8.53-12.45,17.09-18.76,25.57-1.85,2.48-4.02,4.72-6.03,7.08-2.38,2.8-4.67,5.67-7.11,8.41-3.71,4.18-7.53,8.27-11.26,12.44-1.51,1.69-2.9,3.49-4.4,5.19-1.29,1.47-2.67,2.85-3.97,4.3-2.06,2.3-4.08,4.62-6.11,6.93-3,3.42-5.66,7.12-9.28,10-1.48,1.18-2.46,2.95-3.8,4.32-3.75,3.86-7.81,7.45-11.29,11.52-2.85,3.33-6.23,5.98-9.4,8.92-1.14,1.05-1.83,2.6-3,3.6-2.84,2.44-5.89,4.65-8.77,7.05-2.31,1.93-4.5,4.02-6.74,6.03-.17.15-.33.32-.51.46-3.76,2.93-7.91,5.5-11.19,8.9-3.32,3.44-7.81,5.11-11.08,8.47-1.92,1.96-3.85,3.93-5.96,5.68-1.66,1.38-3.69,2.31-5.37,3.67-5.23,4.22-10.36,8.55-15.55,12.81-.7.58-1.51,1.04-2.29,1.52-8.04,4.93-15.36,10.85-22.92,16.43-1.22.9-1.75,1.99-1.74,3.52.04,7.25.02,14.49.02,21.76.89.42,1.58.83,2.32,1.09,7.29,2.52,14.65,4.84,21.85,7.57,5.14,1.95,10.06,4.47,15.09,6.71,6.93,3.09,13.85,6.19,20.8,9.22,5.17,2.25,10.44,4.28,15.56,6.63,3.75,1.71,7.31,3.83,11,5.67,1.85.92,3.82,1.58,5.69,2.46,1.87.87,3.68,1.87,5.53,2.79,5.35,2.66,10.7,5.32,16.06,7.97,1.85.92,3.92,1.53,5.55,2.74,5.67,4.2,12.22,6.79,18.23,10.37,4.53,2.7,9.37,4.87,14.05,7.31.91.47,1.71,1.14,2.56,1.72.56.38,1.07.91,1.68,1.12,6.27,2.23,12.17,5.12,17.86,8.62,4.28,2.63,9.16,4.24,13.63,6.58,10.75,5.64,21.4,11.48,32.13,17.15,3.14,1.66,6.41,3.1,9.68,4.51,6.63,2.86,13.4,5.43,19.94,8.49,7.07,3.31,13.91,7.12,20.93,10.55,3.6,1.76,7.43,3.06,11.04,4.81,4.64,2.25,9.09,4.91,13.77,7.07,5.11,2.36,10.37,4.37,15.59,6.47,3.52,1.42,7.11,2.65,10.61,4.1,4.88,2.01,9.68,4.19,14.56,6.21,7.01,2.91,14.02,5.85,21.1,8.58,5.58,2.14,11.25,4.06,16.92,5.94,9.06,3,17.92,6.59,27.29,8.64,7.28,1.59,14.56,3.25,21.76,5.16,6.78,1.8,13.49,3.87,20.47,4.87,2.39.34,4.74.89,7.11,1.36,5.07,1,10.13,2.12,15.22,2.98,8.39,1.43,16.8,2.81,25.23,3.99,3.62.51,7.32.48,10.99.7.45.03,1.03-.04,1.34.2,3.94,3.06,8.66,1.28,12.95,2.07.55.1,1.42-.58,1.89-1.12,1.13-1.29,2.38-1.57,4.01-1.17,5.62,1.36,11.3,1.73,17.08,1.04,2-.24,4.12.18,6.14.52.76.13,1.41.89,2.39,1.55ZM23.14,446.52c-3.81,1.13-5.94,3.99-8.7,5.97.04.28.08.55.12.83,2.69.64,5.38,1.28,8.59,2.04v-8.84Zm10.46-252.99c.28.03.57.05.85.08.66-5.96,1.32-11.92,1.98-17.88-.16-.02-.33-.04-.49-.06-.78,5.95-1.56,11.9-2.34,17.85Z"/><path class="cls-1" d="m646.9,379.17c-14.08,6.7-28.51,11.34-43.02,15.76-14.49,4.41-28.85,9.34-44.63,11.37.92,1.34,1.47,2.25,2.13,3.07,1.01,1.25,2.3,2.31,3.11,3.67,2.12,3.55,4.16,7.15,6.01,10.84,2.11,4.21,4.06,8.5,5.94,12.82,2.73,6.26,3.45,12.83,2.89,19.6-.38,4.57-2.77,8.22-5.99,10.93-5.15,4.34-11.3,6.65-18.24,5.55-8.75-1.39-16.38-5.09-22.78-11.28-5.49-5.31-10.84-10.83-13.64-18.05-2.32-5.98-3.98-12.23-5.66-18.44-.96-3.53-1.49-7.2-1.96-10.84-.27-2.12-.05-4.31-.05-6.89-2.09,3.42-3.88,6.71-6.01,9.76-6.84,9.82-13.93,19.45-22.93,27.45-4.04,3.59-8.34,6.89-12.51,10.32-4.61,3.79-9.8,4.49-15.58,3.46-4.86-.87-8.36-3.35-10.26-7.71-1.31-3.01-2.42-6.27-2.74-9.51-.74-7.53-1.07-15.11-1.34-22.67-.17-4.9.06-9.82.11-14.73,0-.98,0-1.97,0-3.58-.98.86-1.53,1.23-1.93,1.72-3.38,4.04-6.9,7.97-10.05,12.18-3.89,5.21-8.63,9.58-13.35,13.96-5.39,4.99-10.97,9.78-16.47,14.65-2.3,2.04-3.89,4.8-6.86,6.17-3.43,1.59-6.63,3.7-10.11,5.14-2.42,1-5.05.45-7.16-1.23-4.31-3.43-7.52-7.46-9-13.07-1.89-7.18-2.74-14.48-3.52-21.78-.43-4.08.2-8.26.36-12.4.17-4.47.6-8.91-.61-13.36-.87-3.2-1.01-3.5-4.55-3.44-1.72.03-3.45.08-5.17.01-3.65-.14-6.16-2.36-8.37-4.91-1.42-1.64-2.58-3.51-4.06-5.55-1.2,1.21-2.49,2.33-3.57,3.63-3.51,4.26-7.16,8.43-10.34,12.93-2.44,3.45-5.79,6.11-7.91,9.85-1.04,1.84-2.89,3.22-4.33,4.84-2.28,2.58-4.55,5.17-6.78,7.8-7.35,8.68-14.32,17.69-22.4,25.73-1.52,1.52-1.9,3.03-1.73,5.22.29,3.88-.1,7.81-.18,11.72-.12,5.75-.25,11.51-.31,17.26-.1,8.43-2.25,16.36-5.42,24.11-3.05,7.45-8.63,12.32-15.62,15.83-.48.24-1.09.22-1.65.28-1.83.2-3.67.33-5.48.6-2.91.44-4.86-1.11-5.14-4.02-.13-1.33-.4-2.68-.85-3.93-1.3-3.63-1.02-7.31-.23-10.9,2.28-10.39,5.62-20.39,11.47-29.42,2.44-3.76,4.83-7.58,6.9-11.56.78-1.51.91-3.56.75-5.31-.51-5.5-1.35-10.97-1.97-16.46-.52-4.67-.9-9.36-1.35-14.04-.06-.66-.15-1.32-.27-2.4-.9.6-1.56.95-2.12,1.42-5.14,4.25-10.16,8.65-15.43,12.75-2.79,2.18-5.99,3.84-9,5.73-11.39,7.17-22.87,14.12-35.54,18.95-5.01,1.91-9.99,3.67-15.31,3.68-3.5,0-7.08-.67-10.47-1.6-2.65-.72-5.11-5.27-4.78-8.16.32-2.84.7-5.74,1.6-8.44,2.29-6.89,5.12-13.56,9.3-19.57,1.31-1.89,2.42-3.92,3.79-5.77,1.36-1.84,2.89-3.55,4.4-5.27,1.52-1.72,3.15-3.34,4.64-5.08,1.78-2.08,3.3-4.42,5.24-6.33,3.43-3.37,6.55-7.15,10.97-9.38.58-.29,1.48-.87,1.79-.66,1.82,1.24,3.28,0,4.9-.41,1.4-.36,2.87-.56,4.31-.59,3.76-.08,5.32,2.38,3.73,5.84-.38.82-.88,1.62-1.46,2.31-4.53,5.35-9.17,10.59-13.62,16.01-3.94,4.8-7.73,9.72-11.47,14.68-3.37,4.47-4.95,9.83-6.91,14.98-.26.68.29,1.7.53,2.54.35,1.23.75,2.44,1.24,3.99,2.86,1.27,5.95,1.38,9.49.2,8.04-2.68,15.42-6.62,22.47-11.13,7.47-4.76,14.81-9.78,21.85-15.15,5.56-4.24,10.55-9.22,15.85-13.82,1.15-1,2.51-1.76,4.39-3.05.42-1.76,1.7-3.62,4.92-3.13.81,1,.93,2.62,2.83,2.95.79.14,1.65,1.9,1.87,3.04,1.02,5.3,1.85,10.63,2.7,15.96.4,2.49.67,5,1.06,7.49.08.54.41,1.04.79,1.97,3.14-3.75,6.08-7.25,9-10.77,5.15-6.2,10.23-12.46,15.46-18.59,4.69-5.5,9.7-10.73,14.28-16.32,4.87-5.95,9.39-12.2,14.09-18.3,1.38-1.79,2.87-3.51,4.31-5.25,1.12-1.36,2.37-2.13,4.19-1.15.57.31,1.33.26,2.04.37,1.13,1.52.85,3.09.25,4.61-.78,1.95-.44,3.56,1.05,5.03.57.56.93,1.32,1.44,1.94,2.17,2.63,4.83,4.26,8.38,3.79,2.16-.29,4.29-.84,6.46-1.09,2.5-.28,5.04-.63,7.52-.45,3.44.24,5.9,3.02,6.71,7.69.68,3.96.86,8.01,1.28,12.01.99,9.5,1.87,19.01,3.06,28.48.47,3.75,1.52,7.44,2.55,11.09.9,3.22,2.08,3.71,5.07,2.2,4.74-2.39,9.34-5.05,13.29-8.63,11.79-10.69,23.08-21.85,32.58-34.68,1.36-1.84,2.47-3.88,3.71-5.81.81-1.26,1.63-2.51,2.45-3.76,2.41-3.63,5.68-5.45,10.1-4.54.74.15,1.77.79,1.96,1.42.71,2.3,1.35,4.66,1.6,7.04.66,6.29.99,12.61,1.64,18.89.63,6.05,1.27,12.11,2.36,18.09.71,3.92,1.99,7.79,3.44,11.52,1.44,3.71,4.64,5.05,8.37,3.86,1.62-.52,3.29-1.21,4.64-2.22,3.85-2.9,7.63-5.9,11.26-9.06,1.61-1.4,2.82-3.28,4.15-4.98,3.39-4.32,6.9-8.56,10.08-13.03,2.73-3.83,5.12-7.91,7.57-11.93.71-1.17,1.16-2.51,1.59-3.81,1.28-3.88,3.61-7.07,6.32-10.4,2.29,3.01,4.68,5.28,5,9.41.37,4.73,1.75,9.44,3.8,13.92,2.34,5.12,4.13,10.49,6.2,15.73,1.88,4.77,4.94,8.75,8.13,12.73,4.39,5.47,9.78,9.73,15.66,13.31,2.88,1.76,6.29,2.81,9.59,3.67,4.02,1.05,7.81-1.43,8.69-5.57.42-1.97.4-4.15.08-6.15-1.05-6.61-2.79-13.06-5.78-19.08-.97-1.94-2.35-3.68-3.55-5.51-2.51-3.86-5.03-7.71-7.52-11.58-.94-1.46-2.01-2.5-3.94-1.95-7.97,2.25-15.19-.46-22.36-3.42-1.05-.43-2.14-.85-3.08-1.47-4.04-2.68-5.66-8.68-3.63-13.13,1.01-2.21,6.44-5.02,9.11-4.69,6.84.83,12.81,3.45,17.6,8.55,1.34,1.42,2.76,2.78,4.28,4,.64.52,1.64.93,2.43.86,4.23-.37,8.6-.36,12.61-1.54,5.32-1.56,10.86-1.67,16.14-3.21.33-.1.71,0,1.02-.12,11.53-4.18,23.87-6.19,34.46-12.86.29-.18.59-.4.91-.49,6.1-1.67,11.05-5.6,16.51-8.49,3.82-2.02,7.07-5.09,10.72-7.45,2.19-1.42,4.66-2.42,7.03-3.53,1.2-.56,2.25-.19,3.05.86.42.55.98,1.05,1.2,1.68,1.27,3.51,4.29,5.63,6.52,8.37.21.26.47.58.76.68,5.11,1.69,9.04,5.79,14.53,6.81,3.47.65,6.77,2.16,10.23,2.93,3.69.82,7.46,1.29,11.21,1.77,4.54.57,9.12.86,13.65,1.5,9.33,1.33,18.66,2.67,27.93,4.32,4.55.81,8.81,2.57,12.12,6.12,1.55,1.66,3.59,2.88,5.07,4.59,2.88,3.32,3.09,7.69,3.58,11.71.71,5.93.65,11.95-1.51,17.73-2.2,5.89-5.67,11.02-9.55,15.88-4.2,5.25-9.45,9.47-14.86,13.32-4.46,3.18-9.53,5.53-14.43,8.06-5.23,2.7-10.79,4.51-16.49,5.99-2.87.75-5.61,2.1-8.3,3.38-7.3,3.48-15.04,5.73-22.68,8.26-1.08.36-2.12.82-3.15,1.29-1.18.54-2.31,1.16-3.34-.27-.15-.21-.6-.34-.86-.29-2.49.51-2.67-.96-2.53-2.92,5.68-2.98,11.54-5.47,17.75-7.12,2.54-.68,5.12-1.39,7.07-3.4.37-.39,1-.68,1.54-.72,4.88-.44,8.67-3.56,12.98-5.36,3.78-1.58,7.29-3.86,10.85-5.93,5.27-3.06,10.74-5.84,15.65-9.4,6.41-4.65,12.71-9.59,17.7-15.83,2.73-3.42,4.61-7.43,5.5-11.8.91-4.44-.82-8.41-4.68-10.85-1.65-1.04-3.26-2.16-4.89-3.23-3.83-2.5-8.27-3.43-12.57-4.6-6.32-1.72-12.73-3.1-19.11-4.57-1.79-.41-3.64-.89-5.45-.84-6.67.17-12.9-1.92-19.33-3.14-12.44-2.36-23.99-7.26-35.8-11.43-3.3-1.16-5.79-3.25-7.8-6.41Zm-380.56,87.26c-.33-.04-.65-.07-.98-.11-2.07,3.92-4.26,7.79-6.19,11.78-3.84,7.93-6.59,16.19-6.46,25.12.05,3.35,1.36,6.34,4.34,8.15.79.48,2.38.49,3.11-.01.78-.53,1.64-2.34,1.31-2.85-1.42-2.2.07-3.68.78-5.42.65-1.59,1.38-3.18,1.74-4.85,1.88-8.8,2.42-17.75,2.69-26.72.05-1.69-.22-3.39-.35-5.09Zm279.5-65.72c.09-.3.17-.61.26-.91-3.32-1.76-6.58-3.63-9.97-5.23-1.41-.67-3.07-.96-4.65-1.13-2.43-.27-3.62.3-3.63,1.6,0,1.79,1.64,2.31,2.78,3.19.08.06.22.04.33.07,2.52.7,5.03,1.45,7.56,2.09,2.42.61,4.86,1.19,7.32.34Z"/><path class="cls-1" d="m456.87,359.8c.08,3.1-2.11,5.97-5.22,8.17-1.83,1.29-3.93,1.74-6.12.39-2.2-1.36-3.11-3.16-2.77-5.75.42-3.17.45-6.37,3.13-8.8,2.59-2.35,4.63-2.97,7.43-1.74,2.57,1.13,3.77,3.38,3.54,7.72Z"/><path class="cls-1" d="m597.21,661.85c-.63,1.52.43,3.3-1.98,3.85-.81-1.61-1.62-3.22-2.37-4.69,1.55-2.36,3.57-2.83,5.83-2.89,1.76-.05,3.53-.25,5.77-.42.41.78,1.06,2.01,1.87,3.57-3.26.21-6.18.4-9.13.59Z"/><path class="cls-1" d="m650.38,490.5c-.25,2.13-.84,3.48-2.6,4.16-1.26.48-2.41,1.23-3.62,1.85-1.02.52-2.04,1.15-3.08.02-1.21-1.31-.24-2.3.48-3.31.26-.36.6-.83.98-.92,1.65-.38,2.91-1.21,3.71-2.73.14-.27.51-.54.81-.58.84-.13,1.84-.43,2.52-.12.52.24.66,1.31.8,1.63Z"/><path class="cls-1" d="m655.13,486.44c1.24-.45,2.19-2,3.96-.82.38.26,1.34-.42,2.06-.59,1.06-.25,2.29-.94,3.04.45.79,1.46-.17,2.39-1.28,3.09-.96.61-1.99,1.13-3.04,1.54-3.16,1.25-4.85-.05-4.73-3.68Z"/><path class="cls-1" d="m47.59,643.28c-.1.4-.17,1.47-.64,2.33-.29.54-1.43,1.22-1.73,1.05-.67-.39-1.38-1.23-1.48-1.96-.14-1.06.31-2.19.41-3.29.1-1.1.3-2.13,1.64-2.18,1.34-.04,1.67.96,1.78,2.06.04.45,0,.91,0,1.99Z"/><path class="cls-1" d="m47,660.07c3.56,1.24,2.03,4.58,3.41,6.56-1.22,1.38-2.23.86-3.03-.03-1.57-1.74-1.71-4.25-.37-6.53Z"/><path class="cls-1" d="m630.34,494.58c.89,1.32,1.75,2.03,1.81,2.81.11,1.33-.99,2.04-2.24,2.02-1.09-.02-2.19-.64-1.83-1.89.26-.9,1.19-1.6,2.25-2.93Z"/><path class="cls-1" d="m616.93,657.22c1.1-.73,2.13-1.65,3.33-2.11,1.04-.4,2.09.09,2.25,1.42.15,1.23-.77,1.68-1.7,1.71-1.21.05-2.44-.19-3.66-.31-.08-.24-.15-.47-.23-.71Z"/><path class="cls-1" d="m49.74,674.45c2.16,1.94.97,4.09.84,6.19-2.52-.7-2.75-2.55-.84-6.19Z"/><path class="cls-1" d="m40.9,649.83c.17,1,.53,2.03.42,3-.05.42-1.07.73-1.64,1.09-.37-.6-1.14-1.29-1.02-1.77.21-.88.94-1.63,1.46-2.44.26.04.52.08.79.12Z"/><path class="cls-1" d="m544.62,657.72c.6-.09,1.2-.18,1.81-.28.05.24.11.48.16.73-.64.16-1.27.33-1.91.49-.02-.31-.04-.63-.06-.94Z"/></g></svg>