<?xml version="1.0" encoding="UTF-8"?>
<svg id="Layer_1" data-name="Layer 1" xmlns="http://www.w3.org/2000/svg" viewBox="0 0 433.6 118.17">
  <defs>
    <style>
      .cls-1 {
        fill: #204f8c;
      }
    </style>
  </defs>
  <g>
    <path class="cls-1" d="M430.92,36.14c0-4.79-.5-11.29-9.33-11.5h-3.92c-3.71-.04-7,1.96-9.08,4.41l-11.53,14.17c-1.92,2-2.92,2.79-4.88,2.79s-3.34-1.79-4.2-2.67c-9-11.24-8.41-10.5-11.62-14.41-2.09-2.54-5.42-4.46-9.12-4.46h-3.87c-5.29,0-9.12,3.96-9.12,10.17v67.8c0,3.42,2.54,6.25,5.71,6.25h9.58c3.17,0,5.75-2.83,5.75-6.25v-38.32c0-1.41.58-1.7.79-1.79.55-.2,1.17.13,1.75.71l9.21,11.74c1.49,1.79,3.25,3.25,5.62,3.25,2.54.17,5.12-3,5.33-3.29l8.91-11.29c.66-.91,1.29-1.21,1.88-1.21s.91.84.91,2.26v38.11c0,3.41,2.62,6.2,5.79,6.2h9.54c2,0,3.75-1.13,4.79-2.83.63-1,1.04-2.21,1.04-3.54v-12.03c.12-16.91.09-54.27.09-54.27Z"/>
    <path class="cls-1" d="M246.08,87.41h-17.78c-1.42,0-2.54-1.16-2.54-2.58v-38.39c.04-4.17.13-11.16-.04-14.08,0-.09-.04-.34-.04-.42-.09-.71-.26-1.21-.46-1.87-.46-1.34-1.13-2.54-2.17-3.46-.42-.37-.87-.7-1.33-1.03-.08-.04-.12-.08-.21-.13-1.17-.75-2.63-1.13-4.37-1.3h-3.46c-.58.05-1.04.13-1.54.22-1.63.21-3.12.87-4.29,1.91-1.09.88-1.92,2.04-2.38,3.42-.2.54-.33,1.17-.37,1.75,0,.21-.05.42-.05.62-.17,3.42-.08,11.95-.08,11.95l-.04,3.92s0,.09.04.09v.04l-.04-.04v48.94c0,7.58,3.5,11.41,10.41,11.41h30.74c3.83,0,6.04-2.58,6.58-7.62v-5.71c-.54-5.08-2.75-7.62-6.58-7.62Z"/>
    <path class="cls-1" d="M58.58,71.22c-1.96-3.12-4.71-5.96-8.16-8.33-3.42-2.37-8.04-5.08-13.71-7.99-3.12-1.67-5.28-3.08-6.49-4.21-1.13-1.08-1.66-2.29-1.66-3.71,0-1.58.54-2.83,1.66-3.91,1.13-1.05,3-1.58,5.54-1.58,3.58,0,6.96.71,10.16,2.08.25.13.54.25.83.38l2.34,1.04c2.54,1.13,4.83.33,6.83-2.34.3-.37.54-.78.83-1.2l1.92-4.33c1.25-3.71.63-6.33-1.74-7.75h-.05c-.21-.13-.38-.22-.58-.33h-.04c-2-1-4.5-2.01-4.5-2.01-2-.83-4.41-1.58-7.16-2.29-3.54-.91-7.41-1.33-11.58-1.33-3.37,0-6.45.33-9.28,1.08-2.04.5-3.96,1.25-5.71,2.17-4.08,2.16-7.17,5.13-9.16,8.79-2,3.63-3.04,7.75-3.04,12.24s1,8.75,2.99,12.17c1.96,3.41,4.54,6.29,7.67,8.54,3.04,2.25,6.66,4.33,10.74,6.21,3.58,1.58,6.37,3.17,8.21,4.62,1.75,1.37,2.62,3.04,2.62,5.03,0,1.09-.5,2.25-1.54,3.55-.95,1.2-3.29,1.83-6.83,1.83s-7.12-.71-10.33-2.04l-1.5-.71-4.58-2.04c-2.37-1.08-4.54-.54-6.46,1.62-.5.55-1,1.26-1.46,2.04l-2.04,4.5c-.79,2.38-.83,4.33-.21,5.84l.04.04c.79,1.92,3.29,2.96,3.29,2.96l.38.16c2.21,1.09,4.37,2,6.5,2.79,1.71.63,3.46,1.17,5.13,1.62,3.66.96,6.66,1.59,8.91,1.84,2.21.2,4.12.29,5.66.29,3.21,0,6.25-.34,9.08-1,2-.5,3.92-1.16,5.75-2,4.29-2.04,7.71-5,10.12-8.83,2.42-3.83,3.63-8.42,3.63-13.62,0-4.71-1.01-8.7-3-11.87Z"/>
    <path class="cls-1" d="M129.22,102.45l-5.58-72.92v-.42c-.34-2.66-2.59-4.67-5.34-4.67h-9.91c-2.92,0-5.29,2.33-5.33,5.21v.74l1.41,24.07v.67c-.09,2.12-1.79,3.79-3.87,3.79h-8.29c-2.16,0-3.91-1.75-3.91-3.92v-.13c0-.13,0-.21.04-.34l1.13-23.74.09-1.29c-.17-2.83-2.46-5.08-5.33-5.08l-10-.04c-2.66,0-4.92,2.01-5.25,4.63l-.04.5-6.34,73.13v.05c-.04.17-.04.33-.04.5,0,2.92,2.33,5.25,5.16,5.33h11.37c2.62-.09,4.71-2,5.12-4.5,0-.29.04-.54.04-.83v-.08l1.96-18.91.05-.71c.29-1.87,1.91-3.29,3.87-3.29h11.92c1.99,0,3.62,1.5,3.87,3.42l.04.58.96,19.24.05.33c.25,2.62,2.41,4.66,5.12,4.75h11.91c2.87-.09,5.13-2.41,5.16-5.28v-.05c0-.25-.04-.5-.04-.75Z"/>
    <path class="cls-1" d="M202.73,102.16c-.09-.25-.13-.5-.25-.75l-19.91-70.51h-.04c.08.25.17.45.21.7-.87-4.12-4.54-7.2-8.95-7.2h-13.04c-4.12,0-7.58,2.71-8.75,6.42v.08l-19.61,70.64-.13.45c-.13.38-.17.79-.17,1.21,0,2.92,2.29,5.25,5.21,5.33h10.24c2.29-.04,4.2-1.58,4.92-3.62l.13-.54,2.62-9.53c.09-.16.09-.34.17-.5.54-1.54,2-2.62,3.7-2.62h17.24c1.71,0,3.21,1.12,3.7,2.66,0,.09.05.17.08.3l2.83,10.03s0,.09.04.13c.67,2.12,2.63,3.66,4.92,3.71h9.58c2.95,0,5.33-2.37,5.33-5.33,0-.33-.04-.71-.08-1.04ZM170.36,75.25h-5.46c-1.79,0-3.2-1.46-3.2-3.25,0-.29.05-.63.13-.92v-.04l4.83-17.41c.04-.09.04-.17.08-.25.12-.33.45-.55.83-.55.42,0,.79.25.88.66,0,0,.04.05.04.09l4.92,17.37c.04.12.08.25.13.37.04.22.09.47.09.67,0,1.79-1.46,3.25-3.25,3.25ZM182.89,32.73c.04.29.04.54.04.83,0-.29,0-.54-.04-.83ZM182.78,31.9c.04.17.08.38.08.58,0-.21-.04-.42-.08-.58Z"/>
    <g>
      <path class="cls-1" d="M308.02,74.37s0,0,.01.01c1.6-6.23,5.15-11.7,10.02-15.65-4.88,3.95-8.43,9.41-10.03,15.64Z"/>
      <path class="cls-1" d="M255.35,90.83s.25.08.67.2l-.67-.2Z"/>
      <path class="cls-1" d="M332.73,50.77c1.74-1.15,3.35-2.48,4.82-3.95.13-.13.23-.29.36-.42-.15.16-.29.33-.44.48-1.44,1.44-3.03,2.75-4.74,3.88Z"/>
      <path class="cls-1" d="M341.02,42.47c-.32.49-.66.97-1.01,1.44.35-.47.69-.94,1.01-1.44Z"/>
      <path class="cls-1" d="M349.62,55.05c-.82-3.6-2.08-7.07-3.67-10.35-.3,2.87-.87,5.65-1.73,8.32-2.58,8.22-7.59,15.44-14.27,20.74-1.13.88-2.3,1.71-3.51,2.46,14.35,4.13,9.18,11.77,9.18,11.77-5.18-2.8-8.68,2-13.11,4.63-4.46,2.63-7.18,2.76-27.72,3.47-19.4.66-22.84,11.34-23.17,12.56,8.17,5.54,17.95,8.79,28.51,8.79,3.75,0,7.41-.42,10.95-1.17,1.29-.29,2.58-.63,3.84-.99,4.33-1.3,8.41-3.21,12.16-5.55,1.5-.96,2.96-1.96,4.33-3.04.58-.42,1.13-.91,1.71-1.38,3.5-3,6.58-6.45,9.2-10.33,5.46-8.08,8.63-17.83,8.63-28.33,0-4-.46-7.87-1.34-11.62Z"/>
      <path class="cls-1" d="M276.65,60.61c2.88.91,6.76,2.09,10.68,3.13.83.2,1.67.45,2.46.66.29.12.58.21.88.29,6.22,2,11.56,4.84,13.89,6.76,1.21.88,2.37,1.87,3.46,2.91,1.6-6.23,5.15-11.69,10.03-15.64.7-.57,1.44-1.12,2.21-1.63,1.75-1.21,3.71-2.21,5.76-3.01.38-.16.79-.29,1.17-.46,1.96-.75,3.81-1.71,5.54-2.86,1.71-1.13,3.29-2.44,4.74-3.88.15-.15.29-.32.44-.48.75-.79,1.45-1.62,2.11-2.49.35-.47.69-.95,1.01-1.44.55-.84,1.07-1.69,1.53-2.58.11-.22.25-.43.35-.66-1.53-2.42-3.32-4.71-5.28-6.87-7.2-7.88-16.87-13.46-27.78-15.58-3.12-.58-6.37-.91-9.71-.91-4.12,0-8.16.5-12.04,1.45-10.79,2.63-20.24,8.67-27.11,16.95-1.26,1.58-2.47,3.2-3.58,4.87-.58.92-1.09,1.83-1.62,2.79,1.46,3.96,3.7,7.49,6.58,10.46,2.09,2.15,4.51,4,7.15,5.45.87.48,1.76.91,2.66,1.3,1.46.58,2.92,1.08,4.47,1.46Z"/>
      <path class="cls-1" d="M285.12,82.02s-22.15-6.48-29.88-28.46c-.09-.24-.17-.48-.26-.72-.24-.73-.48-1.47-.69-2.24-.35-1.25-.66-2.52-.9-3.82-2.58,6.09-4.06,12.83-4.06,19.89,0,6.17,1.12,12.08,3.17,17.54.83,2.29,1.79,4.5,2.91,6.58,0,0,.18.06.5.15,2.87.55,17.17,2.56,29.21-8.92Z"/>
    </g>
  </g>
  <g>
    <path class="cls-1" d="M14.6,16.15c-.92,0-1.77-.15-2.54-.46-.78-.3-1.45-.74-2.02-1.29-.57-.56-1.01-1.21-1.34-1.96-.32-.75-.48-1.57-.48-2.46s.16-1.72.48-2.46c.32-.75.77-1.4,1.34-1.96.57-.56,1.25-.99,2.02-1.29.77-.3,1.62-.46,2.54-.46s1.79.16,2.58.47,1.46.78,2.01,1.4l-1.12,1.08c-.46-.48-.98-.84-1.55-1.08-.57-.24-1.19-.35-1.84-.35s-1.31.11-1.89.34c-.58.23-1.08.55-1.51.96-.43.41-.76.91-.99,1.47s-.35,1.19-.35,1.85.12,1.28.35,1.85c.24.57.57,1.06.99,1.47.42.41.93.73,1.51.96.58.23,1.21.34,1.89.34s1.27-.12,1.84-.35,1.09-.6,1.55-1.09l1.12,1.08c-.55.62-1.22,1.09-2.01,1.41-.79.32-1.65.48-2.59.48Z"/>
    <path class="cls-1" d="M26.52,16.15c-.92,0-1.77-.15-2.56-.46-.79-.31-1.47-.74-2.04-1.3-.57-.56-1.02-1.21-1.34-1.96-.32-.75-.48-1.56-.48-2.45s.16-1.7.48-2.45c.32-.75.77-1.4,1.34-1.96s1.25-.99,2.03-1.3c.78-.31,1.64-.46,2.57-.46s1.77.15,2.54.46c.78.3,1.45.74,2.03,1.29.58.56,1.03,1.21,1.34,1.96.32.75.47,1.57.47,2.46s-.16,1.72-.47,2.46c-.32.75-.76,1.4-1.34,1.96-.58.56-1.26.99-2.03,1.29-.77.3-1.62.46-2.54.46ZM26.52,14.61c.67,0,1.28-.11,1.85-.34.57-.23,1.06-.55,1.48-.97s.75-.91.98-1.47.35-1.18.35-1.84-.12-1.28-.35-1.84c-.24-.56-.56-1.05-.98-1.47-.42-.42-.91-.74-1.48-.97-.57-.23-1.19-.34-1.85-.34s-1.3.11-1.87.34c-.57.23-1.07.55-1.49.97-.43.42-.76.91-.99,1.47-.24.56-.35,1.18-.35,1.84s.12,1.28.35,1.84.57,1.05.99,1.47c.42.42.92.74,1.49.97.57.23,1.19.34,1.87.34Z"/>
    <path class="cls-1" d="M35.25,16.01V3.95h1.41l5.41,9.11h-.76l5.34-9.11h1.41l.02,12.06h-1.65l-.02-9.46h.4l-4.75,7.99h-.79l-4.79-7.99h.43v9.46h-1.65Z"/>
    <path class="cls-1" d="M56.28,16.15c-1.58,0-2.83-.45-3.74-1.36s-1.36-2.23-1.36-3.98V3.95h1.72v6.79c0,1.34.3,2.33.89,2.95.59.62,1.43.93,2.51.93s1.93-.31,2.52-.93c.59-.62.89-1.6.89-2.95V3.95h1.67v6.86c0,1.75-.45,3.07-1.35,3.98-.9.91-2.15,1.36-3.75,1.36Z"/>
    <path class="cls-1" d="M64.51,16.01V3.95h1.41l7.98,9.91h-.74V3.95h1.72v12.06h-1.41l-7.98-9.91h.74v9.91h-1.72Z"/>
    <path class="cls-1" d="M78.07,16.01V3.95h1.72v12.06h-1.72Z"/>
    <path class="cls-1" d="M82.99,16.01V3.95h5.08c1.29,0,2.42.25,3.4.76.98.51,1.75,1.21,2.29,2.12.55.91.82,1.96.82,3.15s-.27,2.25-.82,3.15c-.54.91-1.31,1.61-2.29,2.12-.98.51-2.12.76-3.4.76h-5.08ZM84.71,14.51h3.26c1,0,1.86-.19,2.59-.57s1.29-.91,1.7-1.59c.4-.68.6-1.47.6-2.37s-.2-1.7-.6-2.38c-.4-.68-.97-1.21-1.7-1.58s-1.59-.57-2.59-.57h-3.26v9.06Z"/>
    <path class="cls-1" d="M94.71,16.01l5.46-12.06h1.71l5.48,12.06h-1.81l-4.88-11.09h.69l-4.88,11.09h-1.77ZM97.03,12.99l.46-1.38h6.79l.5,1.38h-7.75Z"/>
    <path class="cls-1" d="M108.92,16.01V3.95h5.08c1.29,0,2.42.25,3.4.76.98.51,1.75,1.21,2.29,2.12.55.91.82,1.96.82,3.15s-.27,2.25-.82,3.15c-.54.91-1.31,1.61-2.29,2.12-.98.51-2.12.76-3.4.76h-5.08ZM110.64,14.51h3.26c1,0,1.86-.19,2.59-.57s1.29-.91,1.7-1.59c.4-.68.6-1.47.6-2.37s-.2-1.7-.6-2.38c-.4-.68-.97-1.21-1.7-1.58s-1.59-.57-2.59-.57h-3.26v9.06Z"/>
    <path class="cls-1" d="M124.58,14.51h7.03v1.5h-8.75V3.95h8.51v1.5h-6.79v9.06ZM124.42,9.15h6.2v1.46h-6.2v-1.46Z"/>
    <path class="cls-1" d="M144.18,16.15c-.92,0-1.77-.15-2.54-.46s-1.45-.74-2.02-1.29-1.01-1.21-1.33-1.96c-.32-.75-.48-1.57-.48-2.46s.16-1.72.48-2.46c.32-.75.77-1.4,1.34-1.96.57-.56,1.25-.99,2.02-1.29.78-.3,1.62-.46,2.54-.46s1.79.16,2.58.47c.79.32,1.46.78,2.01,1.4l-1.12,1.08c-.46-.48-.98-.84-1.55-1.08-.58-.24-1.19-.35-1.84-.35s-1.31.11-1.89.34c-.58.23-1.08.55-1.51.96-.42.41-.76.91-.99,1.47s-.35,1.19-.35,1.85.12,1.28.35,1.85c.24.57.57,1.06.99,1.47.42.41.93.73,1.51.96.58.23,1.21.34,1.89.34s1.27-.12,1.84-.35c.57-.24,1.09-.6,1.55-1.09l1.12,1.08c-.55.62-1.22,1.09-2.01,1.41-.79.32-1.65.48-2.59.48Z"/>
    <path class="cls-1" d="M149.45,16.01l5.46-12.06h1.71l5.48,12.06h-1.81l-4.88-11.09h.69l-4.88,11.09h-1.77ZM151.77,12.99l.46-1.38h6.79l.5,1.38h-7.75Z"/>
    <path class="cls-1" d="M164.85,16.01V5.45h-4.13v-1.5h9.97v1.5h-4.13v10.56h-1.71Z"/>
    <path class="cls-1" d="M177.37,16.15c-.92,0-1.77-.15-2.56-.46-.79-.31-1.47-.74-2.04-1.3-.58-.56-1.02-1.21-1.34-1.96-.32-.75-.48-1.56-.48-2.45s.16-1.7.48-2.45c.32-.75.77-1.4,1.34-1.96.57-.56,1.25-.99,2.03-1.3s1.64-.46,2.57-.46,1.77.15,2.54.46c.78.3,1.45.74,2.03,1.29.58.56,1.03,1.21,1.34,1.96.32.75.47,1.57.47,2.46s-.16,1.72-.47,2.46c-.32.75-.76,1.4-1.34,1.96s-1.26.99-2.03,1.29-1.62.46-2.54.46ZM177.37,14.61c.67,0,1.28-.11,1.85-.34.57-.23,1.06-.55,1.48-.97s.75-.91.98-1.47c.24-.56.35-1.18.35-1.84s-.12-1.28-.35-1.84c-.24-.56-.56-1.05-.98-1.47-.42-.42-.91-.74-1.48-.97-.57-.23-1.19-.34-1.85-.34s-1.3.11-1.87.34c-.57.23-1.07.55-1.49.97-.42.42-.76.91-.99,1.47-.24.56-.35,1.18-.35,1.84s.12,1.28.35,1.84.57,1.05.99,1.47.92.74,1.49.97c.57.23,1.19.34,1.87.34ZM176.08,2.97l2.34-2.24h2.1l-2.89,2.24h-1.55Z"/>
    <path class="cls-1" d="M186.1,16.01V3.95h1.72v10.56h6.53v1.5h-8.25Z"/>
    <path class="cls-1" d="M196.02,16.01V3.95h1.72v12.06h-1.72Z"/>
    <path class="cls-1" d="M206.48,16.15c-.92,0-1.77-.15-2.54-.46s-1.45-.74-2.02-1.29-1.01-1.21-1.33-1.96c-.32-.75-.48-1.57-.48-2.46s.16-1.72.48-2.46c.32-.75.77-1.4,1.34-1.96.57-.56,1.25-.99,2.02-1.29.78-.3,1.62-.46,2.54-.46s1.79.16,2.58.47c.79.32,1.46.78,2.01,1.4l-1.12,1.08c-.46-.48-.98-.84-1.55-1.08-.58-.24-1.19-.35-1.84-.35s-1.31.11-1.89.34c-.58.23-1.08.55-1.51.96-.42.41-.76.91-.99,1.47s-.35,1.19-.35,1.85.12,1.28.35,1.85c.24.57.57,1.06.99,1.47.42.41.93.73,1.51.96.58.23,1.21.34,1.89.34s1.27-.12,1.84-.35c.57-.24,1.09-.6,1.55-1.09l1.12,1.08c-.55.62-1.22,1.09-2.01,1.41-.79.32-1.65.48-2.59.48Z"/>
    <path class="cls-1" d="M211.75,16.01l5.46-12.06h1.71l5.48,12.06h-1.81l-4.88-11.09h.69l-4.88,11.09h-1.77ZM214.08,12.99l.46-1.38h6.79l.5,1.38h-7.75Z"/>
  </g>
</svg>