<?xml version="1.0" encoding="UTF-8"?>
<svg id="Camada_1" data-name="Camada 1" xmlns="http://www.w3.org/2000/svg" viewBox="0 0 1609.99 408.85">
  <g>
    <g>
      <path d="M822.25,295.6c-4.9-.21-9.09-5.31-9.1-10.14l-.1-72.24c0-.94-.65-2.2-1.25-2.42s-2.19.13-2.64.71l-18.55,23.26c-1.8,2.26-4.61,4.21-7.43,4.67-4.09.67-8.11-1.55-10.67-4.77l-18.29-23.05c-.44-.56-1.96-.96-2.58-.83-.69.15-1.51,1.39-1.51,2.43l-.1,71.88c0,5.27-4.56,10.2-9.55,10.41-6.72.29-12.65.26-19.42.01-4.72-.17-9.48-4.85-9.48-10.02l-.08-125.41c0-3.38.49-6.23,1.79-9.16,2.37-5.31,7.33-9.05,13.31-9.36,3.38-.18,6.66-.21,10.11,0,5.79.34,11.3,3.13,14.96,7.64l19.67,24.27c3.2,3.95,7.53,9.86,13.56,6.52,2.2-1.22,4.06-3.05,5.71-5.07l20.92-25.53c3.25-3.96,8.09-6.7,13.16-7.32,4.88-.6,9.7-.48,14.41.13,9.54,1.24,12.96,9.47,12.95,18.31l-.24,124.96c0,4.61-4.33,9.68-8.61,10.02-7.14.57-13.5.42-20.96.1Z"/>
      <g>
        <path d="M626.83,232.77c-9.49-8.91-21.69-14.7-33.98-18.22l-23.77-6.79c-17.41-4.97-31.89-17.2-38.15-34.23,15.7-28.4,45.47-46.42,77.45-47.75,33.1-1.38,64.31,14.65,82.41,42.67-6.28,12.92-17.36,22.33-30.74,27.28-16.54,6.12-28.59,20.04-33.21,37.05Z"/>
        <path d="M638.51,270.73c21.91-1.87,23.92-19.37,38.74-13.23,3.32-4.6,1.62-10.9-2.73-14.52-4.01-3.33-8.66-5.09-13.9-6.84,20.2-13.08,32.78-33.63,35.77-57.58,13.42,28.06,12.1,60.5-3.86,87.58-13.79,23.39-38.67,40.79-67.09,44.63-22.83,3.08-46.04-1.95-65.41-15.19,3.71-11.38,14.59-17.75,25.5-20.72,7.28-1.99,14.45-2.32,22.03-2.55,10.41-.32,20.41-.68,30.95-1.58Z"/>
        <path d="M584.73,246.86c-14.08,13.86-34.79,19.75-54.32,16.14-13.39-24.85-15.01-54.46-3.78-80.7,3.53,17.19,11.43,31.89,23.8,43.59,9.68,9.23,20.9,16.04,34.3,20.97Z"/>
      </g>
      <path d="M523.45,263c2.74,5.86,2.75,19.58.12,25.38-1.67,3.69-4.95,6.65-9.34,6.65l-58.83-.02c-4.8,0-9.53-1.64-12.66-5.13s-4.86-8.22-4.87-13.16l-.04-96.11c0-9.06-.16-17.48.36-26.45.39-6.79,6.23-11.91,12.7-12.87,3.94-.59,7.34-.71,11.38-.13,7.07,1.02,13.66,6.91,13.68,14.81l.18,96.09c0,2.51,1.97,4.6,4.51,4.6l33.47.04c4.3,0,7.62,2.62,9.35,6.32Z"/>
      <path d="M385.69,264.61h-32.14c-3.07,0-5.8,2.21-6.61,5.1l-5.33,19.07c-.89,3.17-4.31,6.38-7.71,6.38l-20.66.04c-5.33.01-10.27-5.8-8.73-11.33l36.49-131.24c2-7.18,9.27-11.33,16.26-11.33h23.15c7.96,0,14.5,4.87,16.68,12.57l36.17,127.83c.94,3.32,1.24,6.06-.8,9.15-1.34,2.03-4,4.39-7.19,4.38l-19.69-.06c-4.15-.01-7.17-3.69-8.2-7.31l-5.29-18.57c-.73-2.58-3.44-4.68-6.39-4.68ZM375.01,234.47c4.24-.89,6.08-4.2,5-7.99l-8.97-31.59c-.21-.75-1.09-1.42-1.72-1.41-.48.01-1.39.69-1.54,1.23l-9.03,32.76c-.96,3.48,2.38,6.93,5.68,6.95l10.57.06Z"/>
      <path d="M290.93,295.3l-23.74-.09c-4.61-.02-8.54-4.21-8.78-8.79l-1.91-36.56c-.2-3.81-3.73-6.34-7.25-6.33l-21.87.04c-3.11,0-6.34,2.42-6.67,5.63l-3.66,35.97c-.51,4.99-3.29,10-8.98,10.02l-22.47.1c-6.19-1-8.92-5.98-8.41-11.83l11.7-133.8c.49-5.65,5.77-8.42,10.81-8.39l16.35.09c6.6.03,10.86,4.7,10.53,11.19l-2.22,43.85c-.23,4.45,2.62,8.12,7.28,8.12l14.66.02c4.22,0,7.68-3.29,7.42-7.73l-2.6-44.31c-.32-5.52,3.08-10.96,9.04-10.97l19.57-.02c5.96,0,8.89,4.81,9.3,10.19l10.14,132.96c.4,5.31-3.03,9.57-8.23,10.63Z"/>
      <path d="M151.23,289.22c-14.43,7.21-32.69,7.43-47.99,4.02-11.01-2.45-21.52-5.97-31.36-11.37-3.48-1.91-4.95-5.46-4.77-9.28.18-3.77,1.7-6.93,3.2-10.29,1.58-3.53,3.22-6.84,6.33-9.29,2.47-1.94,5.83-2.89,8.85-1.56l12.86,5.64c7.69,3.37,16.17,4.14,24.39,3.15,4.23-.51,7.03-2.76,8.48-6.24,4.08-9.83-9.07-16.1-16.73-19.64-15.94-7.37-32.28-16.41-38.76-33.79-3.88-10.41-3.78-21.85-.28-32.31,5.48-16.37,19.98-25.8,36.63-28.06,19.24-2.62,36.18,1.42,53.45,9.61,8.21,3.89,5.39,12.31,2.73,18.41-1.51,3.47-3.08,6.73-5.93,9.24s-6.38,3.18-9.82,1.71l-7.94-3.41c-6.96-2.99-26.61-6.83-29.57,4.07-1.17,4.31.46,8.12,3.93,10.69,3.87,2.86,7.9,5.16,12.23,7.42,7.52,3.91,14.64,7.92,21.72,12.56,5.63,3.69,10.42,7.89,14.52,13.21,7,9.1,8.47,19.59,7.47,30.78-1.35,15.09-9.93,27.89-23.64,34.74Z"/>
    </g>
    <g>
      <g>
        <path d="M144.37,126.06l-.26-14.94c-2.26,4.1-4.12,8.1-6.18,12.38-.83.29-2.2.29-3.05.02l-6.28-12.67-.15,15.15-3.94-.05v-21.93c1.72-.09,3.38-.1,5.04-.02l6.83,13.84,6.88-13.85,5,.02v21.96s-3.87.08-3.87.08Z"/>
        <path d="M196.17,125.77c-1.18.18-2.51.26-4,.32l-11.26-14.79-.2,14.69-4.11.03-.02-21.91c1.28-.22,2.74-.22,4.21-.07l11.15,14.66.13-14.65,4.07-.11.03,21.82Z"/>
        <path d="M230.55,114.38c.29,6.14-3.98,11.06-10.07,11.53-3.5.27-6.94.14-10.71.12v-22.07c3.62-.06,6.98-.13,10.47.04,5.73.27,10.03,4.63,10.31,10.38ZM221.02,121.94c3.63-.79,5.26-4.17,5.13-7.33s-2.13-6.18-5.59-6.69c-2.07-.31-4.23-.19-6.45-.13v14.39c2.3.05,4.66.26,6.91-.23Z"/>
        <path d="M276.19,114.16c.42,6.3-3.89,11.28-10.02,11.75-3.49.27-6.95.14-10.66.15l-.02-22.16,10.44.1c5.6.06,9.88,4.45,10.26,10.16ZM266.7,121.94c3.62-.8,5.23-4.18,5.11-7.33-.12-3.05-2.12-6.17-5.57-6.69-2.08-.31-4.24-.2-6.48-.15v14.4c2.34.04,4.69.25,6.94-.24Z"/>
        <path d="M116.15,124.39c-3.7,2.3-8.07,2.41-11.86.72-5.04-2.25-7.48-7.56-6.24-12.84,1.2-5.11,6.02-8.55,11.58-8.49,5.18.06,9.66,3,11.18,7.64,1.57,4.79-.1,10.13-4.66,12.97ZM107.52,107.96c-4.23,1.21-6.26,5.49-5.04,9.19,1.27,3.86,5.28,6.01,9.24,4.89,3.73-1.06,5.92-5.07,5.03-8.72-.99-4.07-4.96-6.58-9.23-5.36Z"/>
        <polygon points="294.35 116.75 283.66 116.81 283.67 122.24 296 122.29 295.95 126.05 279.37 126.07 279.35 103.92 295.59 103.9 295.6 107.62 283.68 107.68 283.65 113.06 294.26 113.08 294.35 116.75"/>
        <path d="M247.04,121.42l-10.66-.1-2.15,4.66h-4.4s9.56-21.87,9.56-21.87c1.5-.22,3.04-.22,4.65-.07l9.44,21.83-4.58.18-1.86-4.62ZM245.41,117.64l-3.78-8.91-3.81,8.86,7.6.05Z"/>
        <path d="M167.93,104l4.29-.08-.03,13.41c0,3.21-1.59,6.29-4.49,7.72-3.21,1.59-6.95,1.61-10.22.14-3.07-1.38-4.82-4.52-4.82-7.85v-13.42s4.26.07,4.26.07l.06,13.31c.01,3.1,2.49,5.05,5.48,5.07,2.65.02,5.34-1.72,5.36-4.67l.1-13.69Z"/>
        <path d="M91.17,121.67c1.28-.53,2.2-1.18,3.52-1.96l2.33,2.78c-2.85,2.77-6.48,4.18-10.38,3.65-6.18-.85-10.26-6.04-9.86-11.96s5.29-10.38,11.49-10.35c3.35.02,6.38,1.05,8.74,3.53l-2.46,3.11c-2.89-2.97-6.64-3.76-10.02-1.7-2.96,1.81-4.29,5.76-2.67,9.23,1.48,3.17,5.47,5.26,9.31,3.68Z"/>
        <path d="M205.18,125.76c-1.2.3-2.64.33-4.29.23l-.03-21.89c1.33-.19,2.72-.2,4.3-.1l.02,21.75Z"/>
      </g>
      <g>
        <path d="M382.79,125c-4.19,1.99-8.86,1.59-12.55-.93-4.26-2.91-5.75-8.22-4.03-13.04,1.61-4.5,6.14-7.31,11.26-7.25,5.4.07,10.05,3.34,11.3,8.38,1.26,5.06-.91,10.42-5.99,12.84ZM375.35,107.94c-4.32,1.2-6.31,5.52-5.06,9.32s5.22,5.8,8.93,4.85c4.04-1.03,6.29-5.18,5.22-9.1s-4.91-6.22-9.09-5.07Z"/>
        <path d="M343.72,121.41l-10.72-.06-2.01,4.59c-1.19.1-2.79.09-4.43-.01l9.57-21.87c1.59-.17,3.13-.16,4.66.05l9.43,21.84-4.57.12-1.92-4.65ZM342.1,117.61l-3.79-8.86-3.78,8.89,7.57-.04Z"/>
        <path d="M453.42,121.39l-10.65-.05-2.11,4.68-4.37-.08,9.58-21.92,4.56-.1,9.47,21.9c-1.46.16-2.87.22-4.49.23l-2-4.68ZM451.79,117.55l-3.72-8.83-3.78,8.89,7.5-.06Z"/>
        <path d="M430.85,121.33l2.83-1.61,2.31,2.72c-2.58,2.6-5.85,3.97-9.49,3.77-4.76-.26-8.74-3.29-10.13-7.41-1.54-4.58-.36-9.6,3.59-12.56,4.82-3.61,11.55-3.21,15.92.98-.74,1.3-1.54,2.29-2.5,3.14-2.97-3-6.81-3.62-10.08-1.48-3.09,2.03-4.19,6.32-2.13,9.78,1.78,3.01,6.08,4.72,9.67,2.68Z"/>
        <path d="M317.41,122.17c2.55.11,4.37-1.03,6.43-2.5l2.39,2.79c-2.64,2.58-5.85,3.97-9.55,3.75-4.98-.3-9.04-3.65-10.28-8.1-1.34-4.79.43-9.94,4.84-12.56,4.86-2.89,10.95-2.2,14.99,1.76l-2.45,3.1c-2.68-2.55-5.83-3.6-9.12-2.14-2.87,1.27-4.75,4.32-4.16,7.9.49,2.96,3.08,5.85,6.91,6.01Z"/>
        <polygon points="358.62 125.95 354.3 126.03 354.27 107.78 347.46 107.7 347.44 103.9 365.51 103.91 365.5 107.65 358.64 107.77 358.62 125.95"/>
        <path d="M405.64,122.21c.62.8.56,2.51.3,3.84l-13.63.02-.04-22.05h4.31s.04,18.17.04,18.17l9.02.02Z"/>
        <path d="M412.7,125.94c-1.6.08-2.93.07-4.44,0v-21.91s4.43-.05,4.43-.05v21.96Z"/>
        <path d="M378.59,101.47c-.73.6-2.65.32-3.68.18l3.27-4.9,4.04,1.78-3.63,2.95Z"/>
      </g>
    </g>
  </g>
  <g>
    <path d="M1316.52,243.57c-.63,0-1.22-.18-1.7-.53-2.29-1.62-.78-4.3-.21-5.31.11-.2.27-.48.35-.66v-.04c-.06-.38-.14-1.03.1-1.75.31-.94,1.2-2.53,3.66-2.53.38,0,.76.03,1.1.06.22.02.42.04.61.05.14-.23.34-.5.64-.72.79-.58,1.77-.73,8.91-.8,1.42-.01,2.76-.03,3.23-.07,12.38-1.02,26.32-5.78,38.61-9.98,1.8-.61,3.57-1.22,5.3-1.8,1.47-.49,3.1-.96,4.68-1.41,2.39-.68,4.87-1.39,6.84-2.2,1.95-.8,4.06-2.4,6.11-3.95,1.6-1.21,3.26-2.47,4.93-3.42,1.09-.62,2.5-1.24,4-1.9,1.88-.82,4.01-1.76,4.93-2.5.55-.44,1.27-1.29,1.97-2.1.71-.83,1.45-1.69,2.19-2.37.77-.7,1.82-1.59,2.93-2.52,2.66-2.24,6.31-5.3,7.35-7.04.34-.69,1.84-4.69,2.27-6.03-.12-.17-.33-.41-.47-.59-.58-.69-1.38-1.63-1.66-2.94-.23-1.11-.09-2.23.03-3.21.07-.56.18-1.47.07-1.76-.63-.29-2.89-1.12-3.43-1.26-.1-.01-.21-.02-.31-.02-.37,0-.76.08-1.16.16-.45.09-.97.2-1.52.2-.07,0-.15,0-.22,0-.63-.03-1.2-.3-1.8-.58-.38-.18-.86-.4-1.14-.45-1.81-.28-3.79-.42-5.89-.42-10.39,0-22.09,3.35-29.98,5.87-19.64,6.27-34.4,12.71-46.44,20.26-.23.14-.51.4-.81.68-.85.78-2.01,1.85-3.75,1.85-.1,0-.21,0-.31-.01l-1.34-.1c-.07.06-.14.11-.22.18-3.08,2.55-4.7,3.59-8.51,5.45-.02.02-.04.05-.06.07-.28.34-.81.97-1.71,1.09-.21.03-.43.05-.65.05-1.56,0-3.08-.81-3.87-2.07-.22-.35-.38-.72-.47-1.09-1.22-.97-1.31-3.04-1.02-6.78v-.19c.21-2.72.75-5.34,1.27-7.88.4-1.97.79-3.83,1-5.65.06-.48.04-1.07.03-1.69-.04-1.75-.09-3.92,1.41-5.65.16-.19.34-.35.52-.49-.01-.18-.01-.36.01-.55.09-.65.35-1.14.52-1.46,0-.02.02-.03.03-.05.05-.5.08-1.02.1-1.56.07-1.56.16-3.41,1.15-4.85-.11-.22-.18-.42-.22-.57-.84-3.14,3.85-5.6,5.25-6.02,1.07-.32,2.03-.33,2.81-.33.47,0,.88,0,1.24-.07,8.65-1.58,17.71-3.6,27.7-6.19,1.61-.42,2.98-.66,4.31-.9,1.77-.31,3.44-.61,5.58-1.31,1.3-.43,3.66-.86,5.63-.86,1.48,0,2.59.24,3.37.74,2.04,1.29,2.14,5.37,2.13,6.17v.92s-.71.58-.71.58c-2.11,1.72-3.99,2.73-6.48,3.5-3.31,1.02-7.62,2.02-11.09,2.82-5.61,1.3-11.34,2.24-16.88,3.15-4.17.68-8.46,1.39-12.67,2.24-.02.26-.05.52-.07.77-.28,3.11-.57,6.32-1.13,9.47-.41,2.32-.98,4.66-1.53,6.91-.3,1.23-.59,2.41-.85,3.58.09-.05.17-.1.26-.15.86-.51,1.76-1.03,2.64-1.47.68-.33,1.36-.49,1.97-.64.55-.13,1.03-.24,1.41-.45.3-.16.85-.75,1.25-1.17.59-.62,1.14-1.21,1.77-1.56,2.97-1.66,6.66-3.14,10.22-4.58,2.1-.85,4.09-1.65,5.88-2.46,2.47-1.12,5.27-2.27,7.99-3.38,4.2-1.72,8.54-3.49,11.92-5.26.23-.14.88-.78,1.19-1.09.68-.67,1.02-1.01,1.54-1.19.87-.31,1.87-.38,2.84-.44.62-.04,1.25-.09,1.66-.19,1.08-.27,1.99-.88,2.95-1.52.89-.6,1.82-1.22,2.92-1.59,1.32-.45,2.75-.57,4.12-.68.99-.08,1.92-.16,2.72-.35.66-.16,1.5-.53,2.31-.9.84-.37,1.7-.76,2.56-1.01l.22-.06c4.52-1.31,12.93-3.75,17.24-3.75h.04c2.01,0,11.55,2,13.42,2.64.72.24,1.49.82,2.38,1.48.49.36,1.04.77,1.36.95.25.14.76.29,1.2.42.78.23,1.52.45,2.1.89.85.64,1.15,1.56,1.35,2.16.05.16.13.39.18.49.22.15.82.41,1.22.59.93.42,1.98.89,2.83,1.55,3.55,2.77,5.11,6.14,4.78,10.29-.53,6.62-3.44,12.29-6.13,17.09-3.32,5.92-22.74,18.78-22.94,18.91-.76.5-1.6.86-2.4,1.2-.63.27-1.23.53-1.68.81-1.05.66-2.09,1.47-3.18,2.32-2.24,1.75-4.56,3.55-7.51,4.55-3.45,1.16-6.97,2.42-10.38,3.64-9.26,3.32-18.84,6.75-28.68,8.79l-1.17.24c-12.04,2.49-23.42,4.85-35.7,4.85-.44,0-.88,0-1.31,0-.09.02-.27.07-.4.11-.43.13-.96.29-1.57.29Z"/>
    <path d="M1258.68,345.13c-.24-.43-.91-.73-1.69-1.07-.63-.28-1.34-.59-1.99-1.06-.04-.03-4.04-3.19-4.48-4.11-.34-.71-.38-1.4-.41-1.96-.01-.22-.03-.5-.06-.6-.16-.49-.32-.89-.48-1.27-.86-2.1-1.03-3.4,1.14-6.23,2.57-3.35,7.79-6.91,12.42-6.91.26,0,.52.01.77.03.78.07,7.4,2.7,8.08,3.31,1.63,1.47,1.53,3.28,1.46,4.36,0,.07,0,.15-.01.23.37.22.8.56,1.13,1.1,2.35,3.93-1.1,11.14-4.51,13.27-1.73,1.07-3.83,1.23-5.86,1.38-1.22.09-2.36.17-3.25.45l-1.5.47-.76-1.37Z"/>
    <path d="M1171.8,296.78c-1.16,0-2.31-.25-3.51-.76-1.42-.6-2.57-1.89-3.6-3.02-.53-.59-1.13-1.26-1.48-1.47-.1-.06-.2-.08-.55-.1-1.37-.09-2.97-.58-3.22-3.5l-.09-1.06.14-.11c0-.63.12-1.52.33-2.86.2-1.25.51-2.91.65-3.41.45-1.51,2.13-4.58,3.55-5.71,1.21-.97,2.85-1.46,4.87-1.46,3.67,0,7.95,1.62,10.28,3.22.6.41,1.9,1.88,2.19,2.91.13.44.15.9.12,1.32.94.48,1.37,1.25,1.57,1.91.35,1.16.1,2.1-.07,2.71-.04.14-.09.33-.09.39,0,.13.08.5.14.8.23,1.15.53,2.57-.2,3.79-.35.59-.87.83-1.19.97-.25.43-.3.64-.35.81-.34,1.29-.97,1.72-2.71,2.7-.16.32-.41.74-.9,1.04-.4.25-.87.38-1.36.38-.33,0-.62-.06-.83-.12-1.25.32-2.42.63-3.72.63Z"/>
    <path d="M1125.5,181.19c-2.87,0-7.31-3.92-8.34-5.51-.6-.92-.88-1.83-1.12-2.63-.07-.23-.14-.45-.21-.66-.48-.3-1.14-.89-1.29-1.97-.17-1.22.05-7.02.21-8.07.56-3.48,4.35-5.06,7.63-5.06.91,0,1.8.12,2.56.36,3.47,1.06,5.62,2.81,7.45,6.02,1.68,2.95,3.25,8.66,1.5,12.13-.18.36-.52,1.04-3.82,3.19-3.26,2.12-3.96,2.17-4.33,2.2-.08,0-.15,0-.23,0Z"/>
    <path d="M1313.52,313.81c-.46-.18-.91-.35-1.34-.51-3.13-1.17-6.36-2.38-7.22-7.34-.8-4.66.84-8.3,4.87-10.8,1.77-1.1,4.63-1.26,6.18-1.26,1.05,0,4.65.09,6.84,1.29.07.04,1.92,1.31,2.28,1.75,2.75,3.43,1.5,9.84-1.41,12.48-.27.24-4.53,3.17-5.09,3.42-.65.28-1.34.37-1.95.45-.52.07-1.1.14-1.36.32l-.85.59-.96-.39Z"/>
    <path d="M1194.25,307.87c-3.4,0-8.31-2.48-9.74-4.9-1.39-2.36-1.4-5.29-.03-7.84,1.41-2.62,4.05-4.35,6.9-4.5.11,0,.22,0,.33,0,3.87,0,8.64,3.62,8.69,7.85.01.94-.28,1.66-.48,2.13-.04.1-.1.23-.13.33.01.06.03.13.05.18.12.41.29,1.04.2,1.76-.15,1.2-2.53,3.88-2.73,4.04-.78.63-1.81.96-3.06.96Z"/>
    <path d="M1336.34,281.72s-3.24-.19-4.01-.61c-.75-.41-2.76-3.07-2.94-3.43-2.09-4.06-1.27-7.58,2.38-10.16,1.93-1.37,3.79-1.98,6.04-1.98.79,0,1.65.07,2.7.23,2.74.41,4.36,2.08,4.79,4.95.49,3.23-.51,5.01-1.58,6.9-.26.46-.53.93-.79,1.46l-.2.39-.34.27c-.44.34-.96.53-1.5.53-.47,0-.87-.14-1.17-.3-.12.09-.24.19-.33.27-.8.64-1.71,1.37-2.8,1.49-.06,0-.15.01-.26.01Z"/>
    <path d="M1175.18,254.7c-1.9,0-3.39-1.64-3.48-3.8l-.07-1.73,1.71-.25c.19-.03.39-.04.58-.04,1.05,0,2.04.44,2.7,1.2.68.79.97,1.83.82,2.93l-.19,1.32-1.3.29c-.26.06-.52.09-.78.09Z"/>
    <g>
      <path d="M1409.09,287.44c-1.31,0-2.58-.13-3.75-.39-2.11-.47-3.68-2.42-4.61-3.97-1.42-2.35-2.56-5.82-1.89-8.29.63-2.31,5.96-8,7.61-8.97.35-.21,5.11-2.23,6.04-2.31.33-.03.65-.04.95-.04,3.16,0,4.59,1.56,5.86,2.94.51.55,1.03,1.12,1.7,1.65l.16.12.13.15c1.99,2.36,4.27,9.26,2.16,12.5-.46.71-4.33,3.79-4.37,3.81-2.67,1.77-6.31,2.79-9.99,2.79Z"/>
      <path d="M1427.89,268.1c-.18,0-.36,0-.54-.02-.46-.03-3.26-.89-3.74-1.23-.99-.68-2.32-4.4-2.32-4.43-.42-1.98.12-3.97,1.56-5.76,2.08-2.57,5.82-4.36,9.11-4.36.55,0,1.08.05,1.57.15,1.99.41,4.87,2.71,4.86,5.38-.02,5.17-5.22,10.25-10.5,10.25Z"/>
    </g>
    <g>
      <path d="M1290.58,363.73c-.44.09-.88.14-1.32.14-1.73,0-3.13-.86-4.06-2.48l-.25-.44-.37-35.22c-.4-.12-.74-.28-1.01-.4-.09-.04-.2-.09-.28-.12-2.9-.35-3.16-.38-4.71-1.11-.43-.2-.95-.45-1.77-.8-2.33-1-3.14-1.07-4.1-1.07-.26,0-.53,0-.83.02-.39.01-.82.02-1.31.02s-1-.01-1.51-.04c-2.43-.11-4.95-.52-7.38-.91-2.88-.46-5.86-.94-8.73-.94-.59,0-1.17.02-1.72.06-1.12.08-2.07.4-3.09.74-.92.3-1.86.62-2.94.76-.36.05-.79.07-1.31.07-.63,0-1.31-.03-2.03-.07-.73-.04-1.48-.07-2.17-.07-1.26,0-1.79.13-1.98.2-.02.05-.04.1-.06.14-.14.34-.35.86-.79,1.32-1.46,1.55-6.03,6.05-7.9,7.37-1.13.8-14.98,7.87-16.82,8.1-.13.02-.25.02-.37.02-.44,0-.81-.1-1.11-.22-.43.28-.94.58-1.49.73-6.38,1.76-12.73,3.39-20.18,3.94-.94.07-2.43.7-3.64,1.2-1.06.44-1.97.83-2.75.98-1.44.28-2.95.31-4.41.34-1.56.03-3.04.06-4.3.38l-.57.14-.55-.19c-1.78-.63-2.27-1.72-2.37-2.53-.26-2.18,2.03-3.68,4.24-5.13.52-.34,1.11-.73,1.31-.91.93-.85,2.05-2.11,3.12-3.33,1.38-1.56,2.8-3.17,4.07-4.19,1.72-1.38,4.7-2.61,7.59-3.79,1.3-.53,2.53-1.04,3.42-1.47.97-.48,1.86-.92,2.71-1.35,3.41-1.71,6.1-3.06,10.5-4.53,1.57-.53,3.19-1.09,4.75-1.64,1.9-.67,3.87-1.36,5.79-1.98,1.93-.63,4.32-.91,7.75-.91,1.2,0,2.39.03,3.54.06,1.06.03,2.07.06,3,.06.41,0,.8,0,1.18-.02.5-.02,1.27-.23,2.01-.44.98-.28,1.99-.56,3.01-.6.35-.01.71-.02,1.07-.02,1.45,0,2.98.11,4.46.21,1.44.1,2.93.21,4.29.21.13,0,.25,0,.37,0-.55-.38-.86-.86-1.04-1.16-1.27-.59-3.2-1.05-5.08-1.5-3-.71-5.83-1.38-7.53-2.81-.6-.5-1-1.08-1.32-1.55-.32-.47-.52-.75-.79-.91-.59-.36-1.47-.49-2.31-.61-.83-.12-1.69-.25-2.48-.6-.73-.33-1.38-1-2.47-2.17-.6-.65-1.73-1.86-2.18-2.07-.55-.22-1.07-.32-1.67-.44-1.23-.24-2.76-.54-4.65-2.01-1.05-.82-1.62-1.78-2.05-2.49-.19-.31-.36-.61-.51-.77-.9-.98-2.63-2.02-4.3-3.02-1.49-.9-3.03-1.82-4.34-2.88-2.57-2.08-5.21-4.53-7.76-6.9-1.12-1.04-2.28-2.12-3.39-3.12-1.55-1.4-6.73-6.15-8.29-8.38-1.59-2.28-3.41-4.5-5.18-6.65-2.18-2.66-4.44-5.4-6.31-8.33l-.05-.08c-.39-.6-.74-1.28-.48-2.49l.27-1.22,1.22-.26c.32-.07.64-.1.94-.1,2.2,0,3.03,1.74,3.47,2.67.17.37.34.71.53.94.35.42,1.11,1.06,1.78,1.63.86.73,1.68,1.42,2.21,2.07.35.44.71,1.1,1.13,1.86.23.42.58,1.07.83,1.45.51.16,1.28.41,1.94.9,1.18.87,1.84,1.89,2.42,2.79.39.6.72,1.13,1.17,1.53,2.74,2.45,7.08,5.66,13.27,9.8.59.39,1.22.87,1.83,1.33.72.55,1.47,1.11,2.04,1.45.28.17,1.13.5,1.81.77,1.81.72,2.86,1.16,3.46,1.79.49.53.67,1.15.81,1.6.08.27.15.52.25.62.35.39,1.72,1.23,2.72,1.84,1.17.72,2.38,1.46,3.23,2.16,4.16,3.41,10.07,7.56,14.21,8.95.9.3,2,.47,3.17.64,1.39.21,2.83.42,4.15.9,1.4.51,2.59,1.4,3.74,2.25.81.6,1.57,1.17,2.3,1.52,1.33.64,2.96,1.15,4.68,1.69,1.52.48,3.09.97,4.55,1.59,1.66.7,3.36,1.52,5.17,2.38,2.96,1.41,6.02,2.87,8.76,3.75,1.15.37,2.03.58,2.88.79,1.41.35,2.74.67,4.91,1.57l.04.02c2.34.96,3.88,1.53,4.88,1.86-.07-.83-.15-1.67-.23-2.49-.15-1.59-.31-3.23-.39-4.85-.11-2.15-.09-4.54-.07-6.85.02-3.29.05-6.69-.28-9.5-.02-.17-.04-.31-.06-.42-1.34-.24-4.24-.66-4.94-.73-10.96-1.21-22.07-3.35-33.97-6.54-.4-.11-1.02-.26-1.77-.44-6.96-1.71-9.39-2.51-10.41-3.42-.48-.43-.69-.92-.78-1.3-1.14-.62-3.6-1.58-5-1.93-.27.28-.6.48-1,.58-.34.09-.68.13-1.03.13-1.88,0-3.25-1.25-4.35-2.25-.5-.46-1.13-1.02-1.5-1.15-.04,0-.12.01-.19.02-.18.02-.42.06-.71.06-1.01,0-1.93-.41-2.91-1.3-.11-.1-.28-.25-.44-.44-.57-.03-1.97-.16-2.8-1.3-.57-.79-.69-1.79-.36-3l.29-1.08,1.08-.28c.91-.24,1.98-.49,3.13-.49.88,0,1.71.15,2.47.46,1.06.42,1.49,1.17,1.72,1.57.01.02.03.05.04.07,2.54,1.68,6.27,2.95,9.88,4.18,2.04.7,3.98,1.36,5.75,2.1,14.04,5.87,29.08,7.97,43.28,9.62.44.05,1.05.2,1.84.38.69.16,1.6.38,2.35.5-.05-2.14-.31-4.5-.56-6.79-.24-2.16-.48-4.39-.57-6.5-.24-6.17-.11-12.42.02-18.47.14-6.49.28-13.2-.05-19.74-.21-4.3-.77-8.62-1.31-12.79-.62-4.78-1.26-9.73-1.4-14.77-.05-1.82.12-3.31.27-4.63.17-1.51.32-2.82.16-4.45-.85-8.69-1.59-18.4-.69-24.47.1-.64.36-1.15.58-1.57.12-.24.27-.51.28-.65.09-1.38-.2-3.09-.49-4.74-.33-1.89-.64-3.68-.47-5.29.08-.81.39-1.51.69-2.05-.45-.7-.93-1.76-.65-3.06.12-.56.42-1.01.9-1.33.14-1.67-.4-3.73-.88-5.58,0-.03-.02-.07-.03-.1,0,0-.01,0-.02,0-.49.11-1.04.25-1.67.25h-.1c-6.38,0-12.82-.78-19.06-1.54-6.12-.74-12.44-1.51-18.57-1.51-2.31,0-4.43.1-6.5.32l-.23.02-.23-.03c-3.94-.54-7.97-.9-11.87-1.24-5.89-.52-11.97-1.06-17.99-2.24-1.18-.23-2.44-.65-3.64-1.05-1.39-.46-2.82-.94-4-1.08-4.1-.48-8.29-.63-12.34-.77-2.24-.08-4.55-.16-6.84-.3.34.86.44,1.83.51,2.59.03.31.06.63.11.96.19,1.53.19,1.88.1,2.6-.03.22-.06.47-.08.95,0,.05.03.22.06.35.12.55.31,1.37,0,2.52-.28,1.03-.95,1.56-1.38,1.83,0,.26.01.58.03.9.04.65.08,1.38-.03,2.14-.93,6.17-6.56,18.07-10.56,22.33-1.27,1.35-2.41,2.16-3.42,2.87-1.53,1.08-2.63,1.86-3.76,4.32-1.8,3.91-4.01,12.16-4.37,16.34-.1,1.09.19,3.07.45,4.81.37,2.54.59,4.18.34,5.34,0,.02,0,.04,0,.06,0,.34.02,1.14-.64,1.8-.41.42-.99.65-1.62.65-.2,0-.41-.02-.64-.07l-.18-.04-.17-.07c-1.66-.67-2.19-2.27-2.51-3.22,0,0,0-.02,0-.02-.59-.18-1.48-.6-1.94-1.72-.45-1.11-.59-2.53-.73-4.04-.12-1.33-.26-2.84-.64-3.74-.37-.89-.82-1.45-1.34-2.11-1.01-1.26-2.16-2.7-2.59-6.06-.2-1.54-.48-3.25-.77-5.07-.52-3.19-1.05-6.5-1.2-9.19-.07-1.29-.15-2.58-.22-3.88-.48-8.32-.97-16.91-.97-25.29,0-1.48.09-2.98.18-4.43.18-3.01.35-5.87-.2-8.58-1.99-.62-3.91-1.33-5.76-2.02-2.69-1-5.22-1.94-8-2.63-2.7-.67-5.61-1.26-8.7-1.89-4.42-.9-9-1.82-12.92-3.01l-.58-.17c-2.11-.64-2.49-.76-5.03-1.24-3.48-.66-6.37-1.73-9.16-2.77-1.76-.65-3.42-1.27-5.23-1.8-3.09-.91-6.55-1.56-10.22-2.24-4.09-.77-8.31-1.56-12.02-2.75-3.91-1.25-7.77-3.02-11.51-4.72-2.46-1.12-5-2.28-7.46-3.25-2.53-1-5.19-1.94-7.76-2.85-8.24-2.91-16.75-5.93-23.79-11.52l-2.12-1.69,2.17-1.37c-1.01-1.32-1.08-2.55-.21-3.67,1.11-1.43,4.3-1.45,4.44-1.45.35,0,.65.03.91.09.36.09.68.21,3.13,1.66l.12.07c3.13,1.85,10.18,5.55,12.32,6.03.92.21,1.55.25,2.22.28,1.37.08,2.66.15,5.09,1.51,4.02,2.25,6.89,2.92,10.2,3.71,2.05.48,4.17.98,6.75,1.89,1.14.4,2.03.81,2.82,1.16,1.31.59,2.44,1.11,4.49,1.52,2.53.51,3.76,1.03,5.06,1.58.73.31,1.49.63,2.6,1.01,11.8,4,24.63,6.9,37.04,9.71,5.77,1.3,11.73,2.65,17.43,4.08,1.29.32,2.56.72,3.79,1.11,2.34.73,4.58,1.43,6.83,1.63-.1-.48-.25-.98-.41-1.52-.25-.84-.5-1.7-.62-2.64-.15-1.21-.17-2.51-.19-3.78-.02-1.41-.05-2.88-.26-4.09-.15-.86-.53-1.74-.9-2.59-.36-.83-.71-1.62-.88-2.45-.11-.56-.12-1.13-.12-1.63,0-.34,0-.89-.08-1.1-.09-.02-.25-.04-.37-.05-.38-.04-.91-.1-1.47-.35-1.33-.61-6.27-4.52-7.12-6.12-.55-1.04-.61-2-.65-2.63,0-.12-.02-.28-.03-.37-.05-.06-.19-.19-.29-.29-.38-.36-.9-.86-1.22-1.65-.26-.64-.4-1.46-.56-2.41-.13-.79-.39-2.34-.72-2.95-.3,0-1.02-.02-1.63-.52-.62-.51-.75-1.2-.85-1.75,0,0,0-.02,0-.03-.56-.35-.9-.83-1.03-1.44-.2-.96.01-1.8.15-2.36.03-.12.07-.29.09-.38-.35-2.37-1.31-4.57-2.32-6.91-.63-1.45-1.28-2.94-1.81-4.56-.68-.66-1.33-1.61-1.09-3.54.31-2.49,1.9-3.37,3.27-3.37,1.59,0,3.16,1.08,4.62,2.25,6.47,5.17,13.12,17.1,15.79,23.41,2.6,6.14,4.86,13.56,6.71,22.05.13.6.22,1.21.29,1.82.31-1.15.56-2.33.69-3.6-.02-.08-.06-.21-.09-.31-.13-.44-.31-1.05-.2-1.75.1-.6.43-1.29,1.24-2.82.3-.58.81-1.55.9-1.83.28-.89.48-1.77.69-2.7.31-1.36.62-2.77,1.22-4.34.31-.83.33-.9.37-1.16.03-.21.08-.5.2-1.01.49-2.16.82-2.77,1.69-3.75.21-.24.45-.5.78-.95,1.04-1.43,2.32-7.69,1.99-9.71l-.21-1.24,1.37-.89c.45-1.11.95-2.09,1.44-3.03.42-.82.82-1.6,1.2-2.47,1.83-4.25,4.03-8.35,6.15-12.32.76-1.42,1.53-2.85,2.28-4.3.2-.37.49-1.11.81-1.88,1.39-3.41,2.42-5.71,4.03-6.49.88-.43,1.92-.47,2.33-.47.09,0,.19,0,.27,0h.15s.15.04.15.04c3.94.84,3.45,6,3.08,9.77-.12,1.24-.28,2.93-.14,3.46l.13.5-.13.5c-.22.82-.16,1.46-.08,2.26.11,1.16.25,2.61-.53,4.53-.24.58-.49,1.22-.77,1.91-3.25,8.1-8.69,21.65-14.36,26.5-1.8,1.54-3.35,3.04-5.15,4.78l-.42.41c-.3.29-.63.44-.92.53-.33.94-.82,2.41-.91,2.73-1.34,4.85-2.15,11.16-2.86,16.72-.13.99-.25,1.95-.37,2.88-.07.5-.24,1.07-.43,1.74-.13.45-.37,1.24-.48,1.83,1.27.24,2.54.51,3.77.77,4.22.89,8.21,1.74,12.29,1.74h0c.23,0,.46,0,.69,0h.13s.13.01.13.01c6.72.77,13.48,1.4,20,2.01,8.98.84,18.26,1.7,27.51,2.93,2.41.32,4.86.63,7.24.92,8.07,1,16.39,2.04,24.55,3.84.44-.42,1.03-.77,1.81-.77.11,0,.21,0,.31.02.93-1.01,2.74-1.16,3.59-1.17.13,0,.26,0,.39,0,3.81,0,7.76.76,11.58,1.5,3.5.68,6.81,1.32,9.99,1.41.18,0,.35,0,.53,0,1.12,0,2.24-.1,3.43-.2,1.21-.11,2.46-.21,3.73-.21.47,0,.92.02,1.36.05l-2.07-20.09.02-.19c.12-1.31.79-2.03,1.52-2.33v-.93c-.02-1.7.16-3.87.35-6.17.31-3.72.65-7.91.2-10.43-.59-.69-.57-1.56-.54-2.96.05-1.95-.05-3.78-.3-5.44-.39-2.61-.35-3.31-.22-4.78.04-.5.1-1.13.14-2.03.28-6.11-.59-10.47-1.69-15.98-.16-.79-.32-1.59-.48-2.43-.03-.18-.08-.38-.12-.61-.61-2.92-1.09-5.93.21-7.87.55-.82,1.36-1.35,2.33-1.53.43-.08.85-.12,1.26-.12,1.98,0,3.67.91,4.88,2.6.34-.08.67-.13.99-.13.94,0,1.78.35,2.44,1.01,1.7,1.71,1.68,5.15,1.67,7.92,0,.69,0,1.34.02,1.74,1.08,13.93,1.82,25.99,1.93,39.56.08,8.98.32,17.96.76,27.44.06,1.2.03,2.39,0,3.55,0,.38-.02.76-.03,1.13.29-.06.57-.12.8-.17,1.22-.26,1.93-.41,2.45-.41,1.22-.01,2.44-.02,3.66-.03,5.62-.03,11.42-.07,17.16-.72,1.7-.19,3.63-.6,5.5-1,2.47-.52,5.02-1.06,7.31-1.17.31-.01.63-.02.95-.02,1.08,0,2.19.08,3.26.15,1.07.07,2.17.15,3.23.15.45,0,.86-.01,1.25-.04,2.22-.15,4.12-.63,6.13-1.14,1.67-.42,3.39-.86,5.3-1.09,4.08-.49,8.18-.57,12.14-.64,5.61-.1,10.91-.2,16.24-1.37,2.1-.46,4.63-1.37,7.07-2.26,2.95-1.06,6-2.16,8.53-2.56.6-.09,1.24-.14,2.01-.14.43,0,.85.01,1.28.03.39.01.77.02,1.16.02.48,0,.86-.02,1.21-.06,6.2-.77,11.72-2.16,17.57-3.64,3.09-.78,6.29-1.59,9.59-2.29,4.09-.87,8.33-1.43,12.44-1.98,1.57-.21,3.19-.42,4.77-.65.79-1.58,1.92-1.95,2.8-1.95.52,0,.97.14,1.34.29.36-.23.84-.45,1.44-.47h.08c.09,0,.51.01.96.25l-.1-.41c1.62-.81,4.1-1.83,6.16-2.29.76-.17,1.45-.18,2.05-.19.44,0,.83-.01,1.14-.08,17.33-3.69,33.48-8.34,50.58-13.26,6.1-1.75,12.41-3.57,18.71-5.32,11.44-3.17,23.33-7.08,33.47-10.99.07-.04.2-.15.29-.23.36-.3.86-.7,1.54-.91.89-.26,4.94-.27,4.98-.27,1.01,0,1.28.03,1.46.07,1.78.32,2.38,1.27,2.57,2.01.35,1.38-.59,2.43-1.28,3.03,0,.56.11,1.44.33,2.37l.2.85-1.03,1.43-.4.21c-.72.39-1.48.54-2.08.66-.38.08-.75.15-.96.25-.53.26-1.06.51-1.59.77-3.75,1.82-7.63,3.7-11.8,4.46-.58.13-4.16,1.31-5.46,1.77-.29.58-1,1.6-2.7,1.6-.13,0-.27,0-.42-.02-.78,1.86-3.31,1.9-5.37,1.92-.42,0-.98.01-1.25.04-.04.04-.09.09-.13.13-.3.3-.79.8-1.6.94-.75.13-1.44.23-2.11.33-2.33.35-4.18.63-6.8,1.73-.33.14-.61.32-.95.53-.83.53-1.87,1.19-3.64,1.19-.12,0-.25,0-.38,0l-.74.38-.11.04c-.84.31-1.63.38-2.34.44-.38.03-.75.06-1.04.13-.92.21-5.13,1.74-5.8,2.14-1.7,1.14-3.16,1.62-4.71,2.14-.81.27-1.65.55-2.59.95-2.56,1.09-5.25,1.44-7.85,1.77-1.6.21-3.26.42-4.9.81-4.58,1.09-8.87,2.65-13.01,4.16-5.63,2.05-11.46,4.18-18.09,5.14-11.49,1.66-21.32,4.1-34.41,7.74-9.83,2.74-19.58,4.06-29.02,5.35-4.87.66-9.9,1.35-14.94,2.22-1.91.33-4.52.78-6.69.78-.1,0-.19,0-.28,0-.17.17-.33.29-.43.36-.01,0-.03.02-.04.03-.7.79-1.98,1.21-8.6,2.52-.84.17-1.57.31-1.91.39-16.61,3.91-35.89,5.98-55.74,5.98-1.82,0-3.66-.02-5.47-.05-1.57-.03-3.32-.23-5-.42-1.7-.19-3.45-.39-4.91-.4-.38,0-1.62.16-2.49.32,0,.04,0,.21,0,.21.13,3.97.56,8.15.97,12.21.41,4.04.83,8.21.98,12.25.49,13.37.03,27.06-.42,40.29-.46,13.46-.93,27.38-.38,40.84.17,4.12.75,8.36,1.31,12.47.71,5.2,1.45,10.57,1.4,15.94,0,.6-.13,1.14-.23,1.57-.03.11-.06.26-.09.39,1.01.22,2.89.44,4.01.5.99.05,2,.08,3.08.08,3.34,0,6.76-.26,10.07-.52.67-.05,1.35-.1,2.04-.16l-.25-.55,1.16-.93c1.16-.93,2.54-1.38,4.24-1.38.83,0,1.64.1,2.42.2.72.09,1.41.17,2.05.17.09,0,.18,0,.26,0,4.17-.17,7.03-1.12,10.35-2.22,1.25-.41,2.55-.84,4-1.26,2.43-.7,5.13-1.37,7.99-2.08,6.64-1.64,14.17-3.51,19.26-6.15.5-.28,3.56-2.41,4.83-3.38-.15-.61-.33-1.73.52-2.77.77-.95,1.67-1.15,2.29-1.15.38,0,.7.07.94.13.27-.34.63-1.08.84-1.5.28-.58.55-1.13.89-1.59.23-.31.46-.63.7-.95,1.99-2.71,4.05-5.51,4.94-8.59.14-.49.24-1.15.34-1.86.18-1.22.38-2.61.92-3.76.35-.75.95-1.24,1.44-1.63.17-.14.41-.33.5-.44.07-.26.11-.64.15-1.04.08-.84.19-1.89.69-2.93.47-.97,1.56-2.04,3.29-3.69.77-.73,1.65-1.57,1.98-2,.29-.38.47-.77.69-1.26.46-1.03,1.03-2.3,2.77-3.59,1.24-.92,2.04-1.64,2.89-2.41.6-.53,1.21-1.09,2-1.74,1-.82,2.24-1.43,3.44-2.02,1.13-.55,2.3-1.12,2.81-1.68.09-.09.23-.39.34-.6.27-.54.6-1.22,1.26-1.72.65-.5,1.43-.7,2.11-.87.44-.11.89-.23,1.19-.4.51-.3,3.02-2.35,3.66-2.95.13-.12.46-.59.68-.9.94-1.32,2-2.82,3.62-2.82.31,0,.72.05,1.13.27.39-.25.85-.38,1.36-.38.22,0,.44.03.67.08l1.78.4-.3,1.8c-.04.26,0,.83.04,1.28.07.81.14,1.65-.05,2.44-.33,1.35-1.55,1.71-2.09,1.83-.47.69-.91,1.74-1.24,2.54-.32.77-.58,1.38-.9,1.83-.45.63-1.1.86-1.58.98-.24.54-.58,1.35-.84,1.94-.42.99-.78,1.84-.98,2.23-2.44,4.95-5.66,9.3-8.77,13.5-1.08,1.46-2.2,2.98-3.28,4.51-.21.29-.45.85-.68,1.39-.33.76-.66,1.55-1.14,2.2-1.43,1.95-4.46,4.78-6.89,7.06-.76.71-1.45,1.36-2.01,1.9-.53.51-1.07,1-1.6,1.46,1.09-.67,2.15-1.35,3.15-2.02,4.25-2.81,8.52-5.53,12.65-8.16,12.81-8.16,24.91-15.86,36.56-26.05.83-.73,1.73-1.7,2.67-2.72,1.26-1.36,2.56-2.77,3.92-3.84.67-.52,1.4-.91,2.05-1.25.66-.35,1.28-.67,1.65-1.04.3-.3.76-1.36.96-1.82.31-.71.49-1.14.92-1.5.49-.41,1.06-.57,1.62-.72.27-.07.76-.2.91-.31.2-.18.59-.96.86-1.47.43-.84.88-1.7,1.48-2.38.77-.88,1.74-1.57,2.68-2.24.35-.25.69-.49,1-.73-.23-.42-.43-.95-.45-1.58-.15-4.07,2.47-14.95,4.01-18.71.35-.85.77-1.61,1.19-2.35.78-1.39,1.45-2.6,1.28-3.82l-.14-1.04.8-.69c.32-.27.69-.44,1.08-.5.23-.61.49-1.27.92-1.91.42-.64.92-1.1,1.35-1.51.29-.27.54-.51.69-.73,3.03-4.33,5.57-6.95,8.52-9.99.78-.8,1.6-1.65,2.47-2.57.44-.47.9-1.03,1.38-1.63,1.68-2.1,3.78-4.71,7.1-4.71.92,0,1.87.21,2.83.62l.31.13.25.23c1.56,1.46,1.2,3.24.98,4.31l-.04.21c-.7,3.54-2.44,6.98-4.12,10.3-.67,1.33-1.31,2.58-1.85,3.79-.69,1.53-1.38,3.2-2.12,4.96-1.8,4.3-3.65,8.75-5.81,12.3-.53.88-1.35,1.73-2.15,2.55-.56.58-1.14,1.18-1.48,1.66l-.29.41c-3.29,4.64-6.69,9.44-10.35,13.92-.91,1.11-1.78,1.99-2.6,2.65.12.13.23.28.32.43.61.97.63,2.23.07,3.37l-.08.16-.11.14c-.68.91-1.74,1.05-2.6,1.16-.18.02-.45.06-.58.09-.08.06-.21.21-.3.31-.38.41-.9.98-1.74,1.28-.35.13-.69.17-.96.18-.16.36-.37.74-.68,1.06-1.44,1.48-3,2.96-4.52,4.38-.79.75-1.57,1.48-2.3,2.19-.32.31-.64.62-.97.93.81-.33,1.63-.66,2.43-.98,2.36-.94,4.8-1.91,6.83-3.01,1.53-.83,3.08-1.75,4.57-2.63,4.14-2.46,8.43-5.01,13.5-6.3,3.82-.97,6.96-1.1,10.28-1.24,1.05-.04,2.14-.09,3.26-.16.45-.03,1-.21,1.63-.43,1.01-.34,2.28-.77,3.85-.77.34,0,.69.02,1.03.06,1.29.15,7.33,2.75,8.16,3.29,1.04.67,2.28,1.79,2.25,3.33,0,.58-.22,1.66-1.52,2.43-1.7,1.01-3.6,1.71-5.33,2l.26,1.03-1.81.51c-1.64.46-2.86.9-3.74,1.33-.53.26-1.21.74-1.88,1.2-.85.59-1.66,1.15-2.42,1.49-1.32.59-2.83.81-4.29,1.02-.95.14-1.85.27-2.53.48-.34.11-.69.39-1.09.72-.51.41-1.08.88-1.85,1.17-.78.3-1.61.39-2.42.49-.49.06-1.07.12-1.4.23-.02.04-.05.09-.07.13-.2.37-.68,1.24-1.76,1.39-.15.02-.31.03-.47.03-.55,0-1-.13-1.35-.24-.04.07-.09.16-.14.26l-.77,1.53-2.97-1.08c-1.91.29-3.99.77-6.18,1.27-3.14.72-6.39,1.46-9.25,1.67-.23.02-.48.02-.76.02-.62,0-1.29-.04-1.93-.08-.63-.04-1.28-.08-1.86-.08-.4,0-.72.02-1,.06l-1.46.2-.54-1.26c-.12.09-.24.18-.37.28-.39.3-.84.65-1.35.92-1.11.58-2.35,1.19-3.66,1.84-4.34,2.15-9.26,4.59-12.17,7.01-.32.26-1.29,1.47-1.71,1.98-.75.93-.93,1.15-1.3,1.37-.51.3-1.08.45-1.71.45-.46,0-.89-.08-1.27-.18-.19.14-.41.27-.69.35-3.38,1.04-5.04,2.36-6.96,3.88-1.42,1.13-3.02,2.4-5.4,3.57-.51.25-1.01.49-1.49.73-3.48,1.69-6.22,3.03-9.52,5.34-5.3,3.72-10.17,5.63-15.8,7.85-.81.32-1.63.64-2.48.98-.82.33-1.47.51-2.04.67-1.02.29-1.63.46-2.79,1.38l-.48.38c-3.21,2.55-6.54,5.19-11.1,6.85-1.81.66-3.81,1.07-5.74,1.47-1.71.35-3.33.68-4.69,1.15-.56.19-1.25.63-1.99,1.08-1.22.76-2.61,1.62-4.29,2.04-.53.13-1.09.23-1.68.31,1.85.36,3.73.78,5.56,1.19,2.37.54,4.82,1.09,7.15,1.48,1.15.19,2.22.76,3.25,1.3.66.35,1.28.68,1.83.86l1.09.36c4.09,1.33,7.61,2.48,11.86,4.71.41.22.88.46,1.39.72,3.43,1.78,8.13,4.22,10.38,5.94,1.74,1.33,2.04,1.54,3.92,2.74.77.49,1.48,1.43,2.21,2.44.64.02,1.58.05,2.52.53.79.41,1.4,1.14,2.09,2,.57.7,1.64,2,2.22,2l6.67-.13-8.02,5.28-.29.08c-.4.11-.79.17-1.17.17s-.71-.05-1.01-.14c-.14.15-.31.29-.51.41-1.08.65-4.95.88-4.99.88h-.09c-3.68,0-6.97-1.37-10.15-2.7-1.43-.6-2.79-1.16-4.16-1.6-.93-.3-1.98-.51-3.09-.74-1.43-.29-2.9-.59-4.33-1.11-6.16-2.23-10.92-5.47-15.96-8.9l-.73-.5c-1.09-.74-2.15-1.38-3.17-2-1.37-.82-2.78-1.68-4.24-2.76-.59-.43-1.2-.8-1.85-1.18-1.23-.73-2.5-1.48-3.6-2.72l-1.01-1.14.69-.99c-1.62-.33-3.54-.47-5.21-.6-1.11-.08-2.16-.16-3.06-.28-.89-.12-2.14-.42-3.46-.73-1.46-.34-3.47-.81-4.19-.81-.62.03-1.72.41-2.78.77-1.39.48-2.97,1.02-4.45,1.16-.62.06-1.27.08-2.01.08-1.17,0-2.36-.07-3.51-.14-1.11-.07-2.15-.13-3.15-.13-.35,0-.67,0-.98.02-1.42.07-2.85.29-4.37.51-2.02.3-4.1.61-6.33.61-.18,0-.37,0-.55,0-.88-.02-1.78-.19-2.66-.35-.87-.16-1.77-.32-2.58-.32-.19,0-.37,0-.54.03.02.97.03,1.95.05,2.91.04,2.63.07,5.36.23,7.96.21,3.4.44,6.95.78,9.82.17,1.43.51,3.34.95,4.79,1.9.64,7.72,1.86,9.47,2.1,1.18.16,6.16.63,8.29.63.02,0,.03,0,.05,0,.24-.35.65-.77,1.33-.93.37-.09.75-.13,1.14-.13,1.36,0,2.48.55,3.46,1.03.8.39,1.5.73,2.19.73.04,0,.08,0,.12,0,.48-.67,1.5-1.72,3.57-1.72.1,0,.19,0,.3,0,1.32.06,2.19.62,2.83,1.03.55.35.83.53,1.43.53.12,0,.25,0,.38-.02.47-.05,1.69-.57,2.5-.92,1.45-.62,2.31-.96,3.08-.96h.09c.44.02,4.09,1.03,4.72,2.93.09.28.13.57.11.86,1.61.39,2.26,1.47,2.51,2.4l.13.47-.11.47c-.65,2.79-5.97,2.79-7.72,2.79-2.3,0-3.9-.28-4.77-.83-.3-.19-.5-.42-.64-.62-.13-.02-.33-.03-.6-.03h-.1c-.92,0-1.48.11-2.33.28l-.11.02c-2.64.52-5.22.74-7.71.94-.94.08-1.87.15-2.79.25-.56.06-1.16.08-1.79.08-.4,0-.8-.01-1.18-.04-1.9-.12-3.48-.18-5.73-.25-.08,0-.28.04-.44.08-.33.07-.74.17-1.21.17-.8,0-1.53-.27-2.15-.79-.15.02-.31.03-.49.03-.08,0-.17,0-.27,0-1.94-.11-3.66-.96-5.17-1.71-.88-.44-1.72-.85-2.49-1.07-.04,1.06-.04,2.47-.04,3.38,0,1.46,0,2.31-.05,2.82-.24,2.28-.15,4.24-.07,6.32.06,1.44.12,2.93.09,4.63-.04,2.1-.44,3.77-.83,5.39-.42,1.76-.82,3.41-.69,5.55.01.24.15.96.26,1.54.63,3.3,1.12,5.9-.7,6.97l-.23.13-4.62,1.24-.6-1.87ZM1145.32,136.79c-.22,1.13.05,3.89.16,5,.09.88.15,1.58.15,2.09,0,12.03,1.38,24.11,2.7,35.79.13,1.15.15,2.32.17,3.45.02,1.17.04,2.29.18,3.37.18-.46.36-.93.42-1.12,1.38-5.06,3.28-11.67,5.7-17.89.2-.51.51-1.13.88-1.84.42-.83,1.36-2.67,1.51-3.5-.44-.86-.09-1.8.11-2.3l.52-1.35,1.02.08c.1-.22.21-.52.3-.74.17-.46.37-.99.65-1.47.68-1.16,1.18-2.42,1.71-3.75.62-1.54,1.25-3.12,2.2-4.66.39-.64.87-1.19,1.33-1.72.57-.67,1.12-1.3,1.44-2.02.12-.29.31-1.38.4-1.91.24-1.38.35-2.01,1.11-2.52.17-.11.35-.19.54-.25-1.98-.29-3.96-.61-5.91-.94-4.67-.77-9.5-1.57-14.13-1.78l-.32-.02c-.49-.02-1.17-.06-1.82-.06-.47,0-.8.02-1.02.04Z"/>
      <path d="M1135.16,254.7c-1.44,0-2.87-.09-4.25-.26-.75-.09-1.34-.35-1.81-.56-.19-.08-.47-.21-.57-.21-.1,0-.32.06-.54.12-.44.12-1.04.27-1.77.27-.14,0-.29,0-.44-.02-2.67-.23-4.88-1.45-6.2-3.42-1.32-1.97-1.6-4.46-.8-7.03.32-1.04,1.03-1.71,1.55-2.2.2-.19.42-.4.5-.52.23-.37.45-.86.69-1.37.37-.81.76-1.65,1.29-2.37.95-1.28,2.82-2.25,5.56-3.6,1.11-.54,2.25-1.1,2.77-1.48.18-.14.66-.69.97-1.06.78-.91,1.58-1.85,2.5-2.38.5-.29.87-.41,1.14-.5.28-.09.49-.17,1.15-.63,3.31-2.34,10.71-4.75,14.56-5.8.73-.2,1.43-.23,2.05-.25.72-.03,1.2-.06,1.5-.23.02-.04.04-.08.06-.11.19-.36.48-.9,1.06-1.32,2.48-1.82,13.47-3.61,16.55-3.61.26,0,.48,0,.68.03.71.06,1.24.34,1.59.52.1.05.25.13.3.14,2.14-.14,4.45-.96,6.68-1.75,2.02-.72,3.93-1.39,5.72-1.58.36-.04.74-.06,1.13-.06,1.37,0,2.71.23,4,.45,1.16.2,2.26.38,3.26.38h.07c1.91-.02,4.05-.23,6.12-.43,1.74-.17,3.54-.35,5.27-.42,1.05-.65,2.04-1.44,3.08-2.27.93-.74,1.9-1.51,2.94-2.2,1.18-.78,2.51-1.46,3.78-2.11,1.19-.61,2.31-1.18,3.23-1.79,6.67-4.42,15.21-14.05,18.65-21.04.26-.52.56-.92.82-1.23-1.18-.83-1.45-2.38-1.58-3.09-.04-.23-.1-.56-.16-.75-.17-.1-.44-.23-.63-.32-.56-.27-1.13-.56-1.59-.94-.67-.55-1.2-1.28-1.7-1.98-.38-.52-.94-1.3-1.28-1.48-.32-.11-1.46-.3-2.27-.38-.44-.04-.94-.07-1.48-.07-3.24,0-8,.82-11.06,1.91-.45.16-.98.52-1.54.9-.66.45-1.41.96-2.26,1.28-9.36,3.53-14.05,6.03-21.74,13.04-.52.47-1.05.93-1.56,1.37-1.49,1.29-2.9,2.5-3.72,3.82-.35.57-.92,1.03-1.72,1.66-.52.41-1.59,1.27-1.78,1.65l-.39,1.01-1.05.18c-.43.08-.8.12-1.16.12-1.42,0-2.18-.64-2.57-1.18-.19-.26-.32-.53-.41-.81-.2.04-.41.06-.63.06-.65,0-1.61-.21-2.48-1.22-.17-.2-.31-.41-.4-.64-.04,0-.9-.15-.9-.15l-.46-.63c-1.21-1.63-.05-4.31.63-5.15.56-.69,1.26-.94,1.67-1.09.03,0,.05-.02.08-.03.64-.67,1.32-1.51,1.97-2.33.57-.72,1.12-1.4,1.66-1.99.83-.92,1.88-1.22,2.58-1.42.19-.06.46-.13.54-.18,1.37-1.02,2.88-2.61,4.35-4.14,1.03-1.08,2.1-2.2,3.14-3.14,4.84-4.36,7.28-5.13,11.32-6.4,1.12-.35,2.38-.75,3.88-1.28,1.7-.6,3.47-1.67,5.35-2.8,2.61-1.56,5.3-3.18,8.1-3.7,1.75-.33,5.84-.55,8.42-.55,1.12,0,1.99.04,2.58.12,1.13.15,2.33.41,3.49.67.97.21,1.97.43,2.91.58,3.33.52,3.93.81,5.29,1.93.37.3.83.68,1.61,1.21.25.16,1.28.6,1.9.87,1.79.76,2.33.99,2.74,1.63.41.64.46,1.32.5,1.81,0,.12.02.29.04.37.11.2.45.59.73.9.92,1.03,2.19,2.43,2.55,4.69.45,2.81-1.02,11.87-2.34,14.48-.41.81-1.97,3.02-3.4,3.67-.74.34-1.48.43-2.07.51-.2.02-.47.06-.63.1-.23.33-.65,1.1-.91,1.59-.6,1.13-.97,1.79-1.41,2.22-.58.57-1.01.98-1.36,1.32q-1.26,1.2-3.01,3.77c-2.26,3.31-5.17,5.43-7.98,7.49-1.12.82-2.18,1.59-3.21,2.44-.04.04-.11.12-.18.22,5.3.22,10.71.53,16.03,1.3l.97.14c2.11.3,4.73.66,6.64,1.17,1.23.33,2.49.99,3.72,1.63.9.47,1.92,1.01,2.43,1.11.66.13,1.35.15,2.08.16,1.64.03,3.68.07,5.82,1.63.56.41.88.88,1.09,1.19.06.09.15.22.18.24,1.28.71,2.21.97,3.19,1.24,1.7.47,3.45.96,6.28,3.39.05.03.17.07.26.11.64.26,2.6,1.04,2.1,3.82-.51,2.84-2.53,3.3-3.62,3.54-.32.07-.62.14-.89.25-.05.03-.1.08-.15.12-.54.51-1.24,1.06-2.78,1.06-.17,0-.37,0-.58-.02-2.38-.17-4.95-1.25-7.44-2.3-1.73-.73-3.36-1.42-4.69-1.7-.63-.13-1.29-.15-1.85-.15-.29,0-.58,0-.86.01-.31,0-.62.01-.94.01-.77,0-1.38-.03-1.95-.11-1.37-.18-2.45-.68-3.41-1.12-.55-.25-1.06-.49-1.54-.62-9.05-2.46-17.65-3.52-25.96-4.55-1.06-.13-2.26-.17-3.52-.21-1.24-.04-2.53-.08-3.74-.21l-.1-1.35c-.33.33-.7.48-1.01.55-3.01.69-3.88,1.2-5.61,2.23-.7.41-1.56.93-2.71,1.53-3.18,1.68-4.79,2.76-7.02,4.27-.81.54-1.72,1.16-2.8,1.87-1.73,1.13-3.93,1.95-6.05,2.75-1.59.59-3.08,1.16-4.33,1.81-1.5.78-2.82,1.73-4.23,2.74-2.41,1.73-4.9,3.51-8.18,4.29-3.41.81-6.81,1.95-10.1,3.05-2.97.99-6.03,2.02-9.18,2.83-4.81,1.25-9.96,2.47-15.38,2.47ZM1155.45,233.95c-.41.13-.92.29-1.56.49-1.35.42-3.2.99-3.79,1.29-.86.44-1.66,1.02-2.51,1.64-1.08.78-2.19,1.59-3.55,2.21-1.39.63-2.75,1.05-4.07,1.45-1.59.48-3.09.94-4.59,1.76-.47.25-.83.45-1.12.62,1.27-.09,2.54-.2,3.67-.39,1.16-.2,2.4-.53,3.72-.88,1.9-.51,3.87-1.04,5.9-1.23.12-.01.23-.02.35-.02.47,0,.87.09,1.19.16.2.05.38.08.51.08.05,0,.09,0,.13-.02.57-.15,1.73-.9,2.58-1.45.9-.58,1.74-1.14,2.5-1.44,2.81-1.15,6.16-2.19,9.4-3.2,2.12-.66,4.12-1.28,5.93-1.92,4.58-1.61,8.09-2.98,12.18-5.06-3.31.81-6.59,1.73-9.8,2.63-4.66,1.3-9.49,2.65-14.32,3.66-.19.04-.64.13-1.11.13-.75,0-1.27-.23-1.63-.5Z"/>
    </g>
  </g>
</svg>